<?xml version="1.0" encoding="utf-8" standalone="no"?>
<!DOCTYPE svg PUBLIC "-//W3C//DTD SVG 1.1//EN"
  "http://www.w3.org/Graphics/SVG/1.1/DTD/svg11.dtd">
<svg xmlns:xlink="http://www.w3.org/1999/xlink" width="855.827187pt" height="710.915625pt" viewBox="0 0 855.827187 710.915625" xmlns="http://www.w3.org/2000/svg" version="1.1">
 <metadata>
  <rdf:RDF xmlns:dc="http://purl.org/dc/elements/1.1/" xmlns:cc="http://creativecommons.org/ns#" xmlns:rdf="http://www.w3.org/1999/02/22-rdf-syntax-ns#">
   <cc:Work>
    <dc:type rdf:resource="http://purl.org/dc/dcmitype/StillImage"/>
    <dc:date>2025-06-15T18:50:13.637427</dc:date>
    <dc:format>image/svg+xml</dc:format>
    <dc:creator>
     <cc:Agent>
      <dc:title>Matplotlib v3.10.3, https://matplotlib.org/</dc:title>
     </cc:Agent>
    </dc:creator>
   </cc:Work>
  </rdf:RDF>
 </metadata>
 <defs>
  <style type="text/css">*{stroke-linejoin: round; stroke-linecap: butt}</style>
 </defs>
 <g id="figure_1">
  <g id="patch_1">
   <path d="M 0 710.915625 
L 855.827187 710.915625 
L 855.827187 0 
L 0 0 
z
" style="fill: #ffffff"/>
  </g>
  <g id="axes_1">
   <g id="patch_2">
    <path d="M 38.467188 319.825 
L 419.237187 319.825 
L 419.237187 21.825 
L 38.467188 21.825 
z
" style="fill: #ffffff"/>
   </g>
   <g id="matplotlib.axis_1">
    <g id="xtick_1">
     <g id="line2d_1">
      <path d="M 94.236531 319.825 
L 94.236531 21.825 
" clip-path="url(#p6861ffeb00)" style="fill: none; stroke: #cccccc; stroke-width: 0.8; stroke-linecap: round"/>
     </g>
     <g id="text_1">
      <!-- 2 -->
      <g style="fill: #262626" transform="translate(91.456062 333.982812) scale(0.1 -0.1)">
       <defs>
        <path id="ArialMT-32" d="M 3222 541 
L 3222 0 
L 194 0 
Q 188 203 259 391 
Q 375 700 629 1000 
Q 884 1300 1366 1694 
Q 2113 2306 2375 2664 
Q 2638 3022 2638 3341 
Q 2638 3675 2398 3904 
Q 2159 4134 1775 4134 
Q 1369 4134 1125 3890 
Q 881 3647 878 3216 
L 300 3275 
Q 359 3922 746 4261 
Q 1134 4600 1788 4600 
Q 2447 4600 2831 4234 
Q 3216 3869 3216 3328 
Q 3216 3053 3103 2787 
Q 2991 2522 2730 2228 
Q 2469 1934 1863 1422 
Q 1356 997 1212 845 
Q 1069 694 975 541 
L 3222 541 
z
" transform="scale(0.015625)"/>
       </defs>
       <use xlink:href="#ArialMT-32"/>
      </g>
     </g>
    </g>
    <g id="xtick_2">
     <g id="line2d_2">
      <path d="M 171.159763 319.825 
L 171.159763 21.825 
" clip-path="url(#p6861ffeb00)" style="fill: none; stroke: #cccccc; stroke-width: 0.8; stroke-linecap: round"/>
     </g>
     <g id="text_2">
      <!-- 4 -->
      <g style="fill: #262626" transform="translate(168.379295 333.982812) scale(0.1 -0.1)">
       <defs>
        <path id="ArialMT-34" d="M 2069 0 
L 2069 1097 
L 81 1097 
L 81 1613 
L 2172 4581 
L 2631 4581 
L 2631 1613 
L 3250 1613 
L 3250 1097 
L 2631 1097 
L 2631 0 
L 2069 0 
z
M 2069 1613 
L 2069 3678 
L 634 1613 
L 2069 1613 
z
" transform="scale(0.015625)"/>
       </defs>
       <use xlink:href="#ArialMT-34"/>
      </g>
     </g>
    </g>
    <g id="xtick_3">
     <g id="line2d_3">
      <path d="M 248.082996 319.825 
L 248.082996 21.825 
" clip-path="url(#p6861ffeb00)" style="fill: none; stroke: #cccccc; stroke-width: 0.8; stroke-linecap: round"/>
     </g>
     <g id="text_3">
      <!-- 6 -->
      <g style="fill: #262626" transform="translate(245.302527 333.982812) scale(0.1 -0.1)">
       <defs>
        <path id="ArialMT-36" d="M 3184 3459 
L 2625 3416 
Q 2550 3747 2413 3897 
Q 2184 4138 1850 4138 
Q 1581 4138 1378 3988 
Q 1113 3794 959 3422 
Q 806 3050 800 2363 
Q 1003 2672 1297 2822 
Q 1591 2972 1913 2972 
Q 2475 2972 2870 2558 
Q 3266 2144 3266 1488 
Q 3266 1056 3080 686 
Q 2894 316 2569 119 
Q 2244 -78 1831 -78 
Q 1128 -78 684 439 
Q 241 956 241 2144 
Q 241 3472 731 4075 
Q 1159 4600 1884 4600 
Q 2425 4600 2770 4297 
Q 3116 3994 3184 3459 
z
M 888 1484 
Q 888 1194 1011 928 
Q 1134 663 1356 523 
Q 1578 384 1822 384 
Q 2178 384 2434 671 
Q 2691 959 2691 1453 
Q 2691 1928 2437 2201 
Q 2184 2475 1800 2475 
Q 1419 2475 1153 2201 
Q 888 1928 888 1484 
z
" transform="scale(0.015625)"/>
       </defs>
       <use xlink:href="#ArialMT-36"/>
      </g>
     </g>
    </g>
    <g id="xtick_4">
     <g id="line2d_4">
      <path d="M 325.006228 319.825 
L 325.006228 21.825 
" clip-path="url(#p6861ffeb00)" style="fill: none; stroke: #cccccc; stroke-width: 0.8; stroke-linecap: round"/>
     </g>
     <g id="text_4">
      <!-- 8 -->
      <g style="fill: #262626" transform="translate(322.225759 333.982812) scale(0.1 -0.1)">
       <defs>
        <path id="ArialMT-38" d="M 1131 2484 
Q 781 2613 612 2850 
Q 444 3088 444 3419 
Q 444 3919 803 4259 
Q 1163 4600 1759 4600 
Q 2359 4600 2725 4251 
Q 3091 3903 3091 3403 
Q 3091 3084 2923 2848 
Q 2756 2613 2416 2484 
Q 2838 2347 3058 2040 
Q 3278 1734 3278 1309 
Q 3278 722 2862 322 
Q 2447 -78 1769 -78 
Q 1091 -78 675 323 
Q 259 725 259 1325 
Q 259 1772 486 2073 
Q 713 2375 1131 2484 
z
M 1019 3438 
Q 1019 3113 1228 2906 
Q 1438 2700 1772 2700 
Q 2097 2700 2305 2904 
Q 2513 3109 2513 3406 
Q 2513 3716 2298 3927 
Q 2084 4138 1766 4138 
Q 1444 4138 1231 3931 
Q 1019 3725 1019 3438 
z
M 838 1322 
Q 838 1081 952 856 
Q 1066 631 1291 507 
Q 1516 384 1775 384 
Q 2178 384 2440 643 
Q 2703 903 2703 1303 
Q 2703 1709 2433 1975 
Q 2163 2241 1756 2241 
Q 1359 2241 1098 1978 
Q 838 1716 838 1322 
z
" transform="scale(0.015625)"/>
       </defs>
       <use xlink:href="#ArialMT-38"/>
      </g>
     </g>
    </g>
    <g id="xtick_5">
     <g id="line2d_5">
      <path d="M 401.92946 319.825 
L 401.92946 21.825 
" clip-path="url(#p6861ffeb00)" style="fill: none; stroke: #cccccc; stroke-width: 0.8; stroke-linecap: round"/>
     </g>
     <g id="text_5">
      <!-- 10 -->
      <g style="fill: #262626" transform="translate(396.368523 333.982812) scale(0.1 -0.1)">
       <defs>
        <path id="ArialMT-31" d="M 2384 0 
L 1822 0 
L 1822 3584 
Q 1619 3391 1289 3197 
Q 959 3003 697 2906 
L 697 3450 
Q 1169 3672 1522 3987 
Q 1875 4303 2022 4600 
L 2384 4600 
L 2384 0 
z
" transform="scale(0.015625)"/>
        <path id="ArialMT-30" d="M 266 2259 
Q 266 3072 433 3567 
Q 600 4063 929 4331 
Q 1259 4600 1759 4600 
Q 2128 4600 2406 4451 
Q 2684 4303 2865 4023 
Q 3047 3744 3150 3342 
Q 3253 2941 3253 2259 
Q 3253 1453 3087 958 
Q 2922 463 2592 192 
Q 2263 -78 1759 -78 
Q 1097 -78 719 397 
Q 266 969 266 2259 
z
M 844 2259 
Q 844 1131 1108 757 
Q 1372 384 1759 384 
Q 2147 384 2411 759 
Q 2675 1134 2675 2259 
Q 2675 3391 2411 3762 
Q 2147 4134 1753 4134 
Q 1366 4134 1134 3806 
Q 844 3388 844 2259 
z
" transform="scale(0.015625)"/>
       </defs>
       <use xlink:href="#ArialMT-31"/>
       <use xlink:href="#ArialMT-30" transform="translate(55.615234 0)"/>
      </g>
     </g>
    </g>
    <g id="text_6">
     <!-- $x$ -->
     <g style="fill: #262626" transform="translate(225.852187 347.128125) scale(0.1 -0.1)">
      <defs>
       <path id="DejaVuSans-Oblique-78" d="M 3841 3500 
L 2234 1784 
L 3219 0 
L 2559 0 
L 1819 1388 
L 531 0 
L -166 0 
L 1556 1844 
L 641 3500 
L 1300 3500 
L 1972 2234 
L 3144 3500 
L 3841 3500 
z
" transform="scale(0.015625)"/>
      </defs>
      <use xlink:href="#DejaVuSans-Oblique-78" transform="translate(0 0.3125)"/>
     </g>
    </g>
   </g>
   <g id="matplotlib.axis_2">
    <g id="ytick_1">
     <g id="line2d_6">
      <path d="M 38.467188 306.279545 
L 419.237187 306.279545 
" clip-path="url(#p6861ffeb00)" style="fill: none; stroke: #cccccc; stroke-width: 0.8; stroke-linecap: round"/>
     </g>
     <g id="text_7">
      <!-- 0 -->
      <g style="fill: #262626" transform="translate(25.90625 309.858452) scale(0.1 -0.1)">
       <use xlink:href="#ArialMT-30"/>
      </g>
     </g>
    </g>
    <g id="ytick_2">
     <g id="line2d_7">
      <path d="M 38.467188 243.900422 
L 419.237187 243.900422 
" clip-path="url(#p6861ffeb00)" style="fill: none; stroke: #cccccc; stroke-width: 0.8; stroke-linecap: round"/>
     </g>
     <g id="text_8">
      <!-- 1 -->
      <g style="fill: #262626" transform="translate(25.90625 247.479328) scale(0.1 -0.1)">
       <use xlink:href="#ArialMT-31"/>
      </g>
     </g>
    </g>
    <g id="ytick_3">
     <g id="line2d_8">
      <path d="M 38.467188 181.521299 
L 419.237187 181.521299 
" clip-path="url(#p6861ffeb00)" style="fill: none; stroke: #cccccc; stroke-width: 0.8; stroke-linecap: round"/>
     </g>
     <g id="text_9">
      <!-- 2 -->
      <g style="fill: #262626" transform="translate(25.90625 185.100205) scale(0.1 -0.1)">
       <use xlink:href="#ArialMT-32"/>
      </g>
     </g>
    </g>
    <g id="ytick_4">
     <g id="line2d_9">
      <path d="M 38.467188 119.142175 
L 419.237187 119.142175 
" clip-path="url(#p6861ffeb00)" style="fill: none; stroke: #cccccc; stroke-width: 0.8; stroke-linecap: round"/>
     </g>
     <g id="text_10">
      <!-- 3 -->
      <g style="fill: #262626" transform="translate(25.90625 122.721081) scale(0.1 -0.1)">
       <defs>
        <path id="ArialMT-33" d="M 269 1209 
L 831 1284 
Q 928 806 1161 595 
Q 1394 384 1728 384 
Q 2125 384 2398 659 
Q 2672 934 2672 1341 
Q 2672 1728 2419 1979 
Q 2166 2231 1775 2231 
Q 1616 2231 1378 2169 
L 1441 2663 
Q 1497 2656 1531 2656 
Q 1891 2656 2178 2843 
Q 2466 3031 2466 3422 
Q 2466 3731 2256 3934 
Q 2047 4138 1716 4138 
Q 1388 4138 1169 3931 
Q 950 3725 888 3313 
L 325 3413 
Q 428 3978 793 4289 
Q 1159 4600 1703 4600 
Q 2078 4600 2393 4439 
Q 2709 4278 2876 4000 
Q 3044 3722 3044 3409 
Q 3044 3113 2884 2869 
Q 2725 2625 2413 2481 
Q 2819 2388 3044 2092 
Q 3269 1797 3269 1353 
Q 3269 753 2831 336 
Q 2394 -81 1725 -81 
Q 1122 -81 723 278 
Q 325 638 269 1209 
z
" transform="scale(0.015625)"/>
       </defs>
       <use xlink:href="#ArialMT-33"/>
      </g>
     </g>
    </g>
    <g id="ytick_5">
     <g id="line2d_10">
      <path d="M 38.467188 56.763052 
L 419.237187 56.763052 
" clip-path="url(#p6861ffeb00)" style="fill: none; stroke: #cccccc; stroke-width: 0.8; stroke-linecap: round"/>
     </g>
     <g id="text_11">
      <!-- 4 -->
      <g style="fill: #262626" transform="translate(25.90625 60.341958) scale(0.1 -0.1)">
       <use xlink:href="#ArialMT-34"/>
      </g>
     </g>
    </g>
    <g id="text_12">
     <!-- Nombre de nombres premiers -->
     <g style="fill: #262626" transform="translate(19.91875 237.233594) rotate(-90) scale(0.1 -0.1)">
      <defs>
       <path id="ArialMT-4e" d="M 488 0 
L 488 4581 
L 1109 4581 
L 3516 984 
L 3516 4581 
L 4097 4581 
L 4097 0 
L 3475 0 
L 1069 3600 
L 1069 0 
L 488 0 
z
" transform="scale(0.015625)"/>
       <path id="ArialMT-6f" d="M 213 1659 
Q 213 2581 725 3025 
Q 1153 3394 1769 3394 
Q 2453 3394 2887 2945 
Q 3322 2497 3322 1706 
Q 3322 1066 3130 698 
Q 2938 331 2570 128 
Q 2203 -75 1769 -75 
Q 1072 -75 642 372 
Q 213 819 213 1659 
z
M 791 1659 
Q 791 1022 1069 705 
Q 1347 388 1769 388 
Q 2188 388 2466 706 
Q 2744 1025 2744 1678 
Q 2744 2294 2464 2611 
Q 2184 2928 1769 2928 
Q 1347 2928 1069 2612 
Q 791 2297 791 1659 
z
" transform="scale(0.015625)"/>
       <path id="ArialMT-6d" d="M 422 0 
L 422 3319 
L 925 3319 
L 925 2853 
Q 1081 3097 1340 3245 
Q 1600 3394 1931 3394 
Q 2300 3394 2536 3241 
Q 2772 3088 2869 2813 
Q 3263 3394 3894 3394 
Q 4388 3394 4653 3120 
Q 4919 2847 4919 2278 
L 4919 0 
L 4359 0 
L 4359 2091 
Q 4359 2428 4304 2576 
Q 4250 2725 4106 2815 
Q 3963 2906 3769 2906 
Q 3419 2906 3187 2673 
Q 2956 2441 2956 1928 
L 2956 0 
L 2394 0 
L 2394 2156 
Q 2394 2531 2256 2718 
Q 2119 2906 1806 2906 
Q 1569 2906 1367 2781 
Q 1166 2656 1075 2415 
Q 984 2175 984 1722 
L 984 0 
L 422 0 
z
" transform="scale(0.015625)"/>
       <path id="ArialMT-62" d="M 941 0 
L 419 0 
L 419 4581 
L 981 4581 
L 981 2947 
Q 1338 3394 1891 3394 
Q 2197 3394 2470 3270 
Q 2744 3147 2920 2923 
Q 3097 2700 3197 2384 
Q 3297 2069 3297 1709 
Q 3297 856 2875 390 
Q 2453 -75 1863 -75 
Q 1275 -75 941 416 
L 941 0 
z
M 934 1684 
Q 934 1088 1097 822 
Q 1363 388 1816 388 
Q 2184 388 2453 708 
Q 2722 1028 2722 1663 
Q 2722 2313 2464 2622 
Q 2206 2931 1841 2931 
Q 1472 2931 1203 2611 
Q 934 2291 934 1684 
z
" transform="scale(0.015625)"/>
       <path id="ArialMT-72" d="M 416 0 
L 416 3319 
L 922 3319 
L 922 2816 
Q 1116 3169 1280 3281 
Q 1444 3394 1641 3394 
Q 1925 3394 2219 3213 
L 2025 2691 
Q 1819 2813 1613 2813 
Q 1428 2813 1281 2702 
Q 1134 2591 1072 2394 
Q 978 2094 978 1738 
L 978 0 
L 416 0 
z
" transform="scale(0.015625)"/>
       <path id="ArialMT-65" d="M 2694 1069 
L 3275 997 
Q 3138 488 2766 206 
Q 2394 -75 1816 -75 
Q 1088 -75 661 373 
Q 234 822 234 1631 
Q 234 2469 665 2931 
Q 1097 3394 1784 3394 
Q 2450 3394 2872 2941 
Q 3294 2488 3294 1666 
Q 3294 1616 3291 1516 
L 816 1516 
Q 847 969 1125 678 
Q 1403 388 1819 388 
Q 2128 388 2347 550 
Q 2566 713 2694 1069 
z
M 847 1978 
L 2700 1978 
Q 2663 2397 2488 2606 
Q 2219 2931 1791 2931 
Q 1403 2931 1139 2672 
Q 875 2413 847 1978 
z
" transform="scale(0.015625)"/>
       <path id="ArialMT-20" transform="scale(0.015625)"/>
       <path id="ArialMT-64" d="M 2575 0 
L 2575 419 
Q 2259 -75 1647 -75 
Q 1250 -75 917 144 
Q 584 363 401 755 
Q 219 1147 219 1656 
Q 219 2153 384 2558 
Q 550 2963 881 3178 
Q 1213 3394 1622 3394 
Q 1922 3394 2156 3267 
Q 2391 3141 2538 2938 
L 2538 4581 
L 3097 4581 
L 3097 0 
L 2575 0 
z
M 797 1656 
Q 797 1019 1065 703 
Q 1334 388 1700 388 
Q 2069 388 2326 689 
Q 2584 991 2584 1609 
Q 2584 2291 2321 2609 
Q 2059 2928 1675 2928 
Q 1300 2928 1048 2622 
Q 797 2316 797 1656 
z
" transform="scale(0.015625)"/>
       <path id="ArialMT-6e" d="M 422 0 
L 422 3319 
L 928 3319 
L 928 2847 
Q 1294 3394 1984 3394 
Q 2284 3394 2536 3286 
Q 2788 3178 2913 3003 
Q 3038 2828 3088 2588 
Q 3119 2431 3119 2041 
L 3119 0 
L 2556 0 
L 2556 2019 
Q 2556 2363 2490 2533 
Q 2425 2703 2258 2804 
Q 2091 2906 1866 2906 
Q 1506 2906 1245 2678 
Q 984 2450 984 1813 
L 984 0 
L 422 0 
z
" transform="scale(0.015625)"/>
       <path id="ArialMT-73" d="M 197 991 
L 753 1078 
Q 800 744 1014 566 
Q 1228 388 1613 388 
Q 2000 388 2187 545 
Q 2375 703 2375 916 
Q 2375 1106 2209 1216 
Q 2094 1291 1634 1406 
Q 1016 1563 777 1677 
Q 538 1791 414 1992 
Q 291 2194 291 2438 
Q 291 2659 392 2848 
Q 494 3038 669 3163 
Q 800 3259 1026 3326 
Q 1253 3394 1513 3394 
Q 1903 3394 2198 3281 
Q 2494 3169 2634 2976 
Q 2775 2784 2828 2463 
L 2278 2388 
Q 2241 2644 2061 2787 
Q 1881 2931 1553 2931 
Q 1166 2931 1000 2803 
Q 834 2675 834 2503 
Q 834 2394 903 2306 
Q 972 2216 1119 2156 
Q 1203 2125 1616 2013 
Q 2213 1853 2448 1751 
Q 2684 1650 2818 1456 
Q 2953 1263 2953 975 
Q 2953 694 2789 445 
Q 2625 197 2315 61 
Q 2006 -75 1616 -75 
Q 969 -75 630 194 
Q 291 463 197 991 
z
" transform="scale(0.015625)"/>
       <path id="ArialMT-70" d="M 422 -1272 
L 422 3319 
L 934 3319 
L 934 2888 
Q 1116 3141 1344 3267 
Q 1572 3394 1897 3394 
Q 2322 3394 2647 3175 
Q 2972 2956 3137 2557 
Q 3303 2159 3303 1684 
Q 3303 1175 3120 767 
Q 2938 359 2589 142 
Q 2241 -75 1856 -75 
Q 1575 -75 1351 44 
Q 1128 163 984 344 
L 984 -1272 
L 422 -1272 
z
M 931 1641 
Q 931 1000 1190 694 
Q 1450 388 1819 388 
Q 2194 388 2461 705 
Q 2728 1022 2728 1688 
Q 2728 2322 2467 2637 
Q 2206 2953 1844 2953 
Q 1484 2953 1207 2617 
Q 931 2281 931 1641 
z
" transform="scale(0.015625)"/>
       <path id="ArialMT-69" d="M 425 3934 
L 425 4581 
L 988 4581 
L 988 3934 
L 425 3934 
z
M 425 0 
L 425 3319 
L 988 3319 
L 988 0 
L 425 0 
z
" transform="scale(0.015625)"/>
      </defs>
      <use xlink:href="#ArialMT-4e"/>
      <use xlink:href="#ArialMT-6f" transform="translate(72.216797 0)"/>
      <use xlink:href="#ArialMT-6d" transform="translate(127.832031 0)"/>
      <use xlink:href="#ArialMT-62" transform="translate(211.132812 0)"/>
      <use xlink:href="#ArialMT-72" transform="translate(266.748047 0)"/>
      <use xlink:href="#ArialMT-65" transform="translate(300.048828 0)"/>
      <use xlink:href="#ArialMT-20" transform="translate(355.664062 0)"/>
      <use xlink:href="#ArialMT-64" transform="translate(383.447266 0)"/>
      <use xlink:href="#ArialMT-65" transform="translate(439.0625 0)"/>
      <use xlink:href="#ArialMT-20" transform="translate(494.677734 0)"/>
      <use xlink:href="#ArialMT-6e" transform="translate(522.460938 0)"/>
      <use xlink:href="#ArialMT-6f" transform="translate(578.076172 0)"/>
      <use xlink:href="#ArialMT-6d" transform="translate(633.691406 0)"/>
      <use xlink:href="#ArialMT-62" transform="translate(716.992188 0)"/>
      <use xlink:href="#ArialMT-72" transform="translate(772.607422 0)"/>
      <use xlink:href="#ArialMT-65" transform="translate(805.908203 0)"/>
      <use xlink:href="#ArialMT-73" transform="translate(861.523438 0)"/>
      <use xlink:href="#ArialMT-20" transform="translate(911.523438 0)"/>
      <use xlink:href="#ArialMT-70" transform="translate(939.306641 0)"/>
      <use xlink:href="#ArialMT-72" transform="translate(994.921875 0)"/>
      <use xlink:href="#ArialMT-65" transform="translate(1028.222656 0)"/>
      <use xlink:href="#ArialMT-6d" transform="translate(1083.837891 0)"/>
      <use xlink:href="#ArialMT-69" transform="translate(1167.138672 0)"/>
      <use xlink:href="#ArialMT-65" transform="translate(1189.355469 0)"/>
      <use xlink:href="#ArialMT-72" transform="translate(1244.970703 0)"/>
      <use xlink:href="#ArialMT-73" transform="translate(1278.271484 0)"/>
     </g>
    </g>
   </g>
   <g id="line2d_11">
    <path d="M 55.774915 306.279545 
L 94.236531 243.900422 
L 132.698147 181.521299 
L 171.159763 181.521299 
L 209.621379 119.142175 
L 248.082996 119.142175 
L 286.544612 56.763052 
L 325.006228 56.763052 
L 363.467844 56.763052 
L 401.92946 56.763052 
" clip-path="url(#p6861ffeb00)" style="fill: none; stroke: #004c9e; stroke-width: 1.5; stroke-linecap: round"/>
   </g>
   <g id="line2d_12">
    <path d="M 94.236531 126.291441 
L 132.698147 135.93977 
L 171.159763 126.291441 
L 209.621379 112.487903 
L 248.082996 97.392835 
L 286.544612 81.883849 
L 325.006228 66.295407 
L 363.467844 50.769883 
L 401.92946 35.370455 
" clip-path="url(#p6861ffeb00)" style="fill: none; stroke-dasharray: 5.55,2.4; stroke-dashoffset: 0; stroke: #11976a; stroke-width: 1.5"/>
   </g>
   <g id="patch_3">
    <path d="M 38.467188 319.825 
L 38.467188 21.825 
" style="fill: none; stroke: #cccccc; stroke-width: 0.8; stroke-linejoin: miter; stroke-linecap: square"/>
   </g>
   <g id="patch_4">
    <path d="M 419.237187 319.825 
L 419.237187 21.825 
" style="fill: none; stroke: #cccccc; stroke-width: 0.8; stroke-linejoin: miter; stroke-linecap: square"/>
   </g>
   <g id="patch_5">
    <path d="M 38.467188 319.825 
L 419.237187 319.825 
" style="fill: none; stroke: #cccccc; stroke-width: 0.8; stroke-linejoin: miter; stroke-linecap: square"/>
   </g>
   <g id="patch_6">
    <path d="M 38.467188 21.825 
L 419.237187 21.825 
" style="fill: none; stroke: #cccccc; stroke-width: 0.8; stroke-linejoin: miter; stroke-linecap: square"/>
   </g>
   <g id="text_13">
    <!-- Nombre de nombres premiers ≤ 10 -->
    <g style="fill: #262626" transform="translate(135.861562 15.825) scale(0.12 -0.12)">
     <defs>
      <path id="ArialMT-2264" d="M 241 2381 
L 241 2906 
L 3275 4188 
L 3275 3625 
L 869 2641 
L 3275 1644 
L 3275 1084 
L 241 2381 
z
M 3269 331 
L 244 331 
L 244 853 
L 3269 853 
L 3269 331 
z
" transform="scale(0.015625)"/>
     </defs>
     <use xlink:href="#ArialMT-4e"/>
     <use xlink:href="#ArialMT-6f" transform="translate(72.216797 0)"/>
     <use xlink:href="#ArialMT-6d" transform="translate(127.832031 0)"/>
     <use xlink:href="#ArialMT-62" transform="translate(211.132812 0)"/>
     <use xlink:href="#ArialMT-72" transform="translate(266.748047 0)"/>
     <use xlink:href="#ArialMT-65" transform="translate(300.048828 0)"/>
     <use xlink:href="#ArialMT-20" transform="translate(355.664062 0)"/>
     <use xlink:href="#ArialMT-64" transform="translate(383.447266 0)"/>
     <use xlink:href="#ArialMT-65" transform="translate(439.0625 0)"/>
     <use xlink:href="#ArialMT-20" transform="translate(494.677734 0)"/>
     <use xlink:href="#ArialMT-6e" transform="translate(522.460938 0)"/>
     <use xlink:href="#ArialMT-6f" transform="translate(578.076172 0)"/>
     <use xlink:href="#ArialMT-6d" transform="translate(633.691406 0)"/>
     <use xlink:href="#ArialMT-62" transform="translate(716.992188 0)"/>
     <use xlink:href="#ArialMT-72" transform="translate(772.607422 0)"/>
     <use xlink:href="#ArialMT-65" transform="translate(805.908203 0)"/>
     <use xlink:href="#ArialMT-73" transform="translate(861.523438 0)"/>
     <use xlink:href="#ArialMT-20" transform="translate(911.523438 0)"/>
     <use xlink:href="#ArialMT-70" transform="translate(939.306641 0)"/>
     <use xlink:href="#ArialMT-72" transform="translate(994.921875 0)"/>
     <use xlink:href="#ArialMT-65" transform="translate(1028.222656 0)"/>
     <use xlink:href="#ArialMT-6d" transform="translate(1083.837891 0)"/>
     <use xlink:href="#ArialMT-69" transform="translate(1167.138672 0)"/>
     <use xlink:href="#ArialMT-65" transform="translate(1189.355469 0)"/>
     <use xlink:href="#ArialMT-72" transform="translate(1244.970703 0)"/>
     <use xlink:href="#ArialMT-73" transform="translate(1278.271484 0)"/>
     <use xlink:href="#ArialMT-20" transform="translate(1328.271484 0)"/>
     <use xlink:href="#ArialMT-2264" transform="translate(1356.054688 0)"/>
     <use xlink:href="#ArialMT-20" transform="translate(1410.9375 0)"/>
     <use xlink:href="#ArialMT-31" transform="translate(1438.720703 0)"/>
     <use xlink:href="#ArialMT-30" transform="translate(1494.335938 0)"/>
    </g>
   </g>
   <g id="legend_1">
    <g id="patch_7">
     <path d="M 45.467188 62.9 
L 232.451563 62.9 
Q 234.451563 62.9 234.451563 60.9 
L 234.451563 28.825 
Q 234.451563 26.825 232.451563 26.825 
L 45.467188 26.825 
Q 43.467188 26.825 43.467188 28.825 
L 43.467188 60.9 
Q 43.467188 62.9 45.467188 62.9 
z
" style="fill: #ffffff; opacity: 0.8; stroke: #cccccc; stroke-linejoin: miter"/>
    </g>
    <g id="line2d_13">
     <path d="M 47.467188 34.5125 
L 57.467188 34.5125 
L 67.467188 34.5125 
" style="fill: none; stroke: #004c9e; stroke-width: 1.5; stroke-linecap: round"/>
    </g>
    <g id="text_14">
     <!-- Nombre de nombres premiers ≤ 10 -->
     <g style="fill: #262626" transform="translate(75.467188 38.0125) scale(0.1 -0.1)">
      <use xlink:href="#ArialMT-4e"/>
      <use xlink:href="#ArialMT-6f" transform="translate(72.216797 0)"/>
      <use xlink:href="#ArialMT-6d" transform="translate(127.832031 0)"/>
      <use xlink:href="#ArialMT-62" transform="translate(211.132812 0)"/>
      <use xlink:href="#ArialMT-72" transform="translate(266.748047 0)"/>
      <use xlink:href="#ArialMT-65" transform="translate(300.048828 0)"/>
      <use xlink:href="#ArialMT-20" transform="translate(355.664062 0)"/>
      <use xlink:href="#ArialMT-64" transform="translate(383.447266 0)"/>
      <use xlink:href="#ArialMT-65" transform="translate(439.0625 0)"/>
      <use xlink:href="#ArialMT-20" transform="translate(494.677734 0)"/>
      <use xlink:href="#ArialMT-6e" transform="translate(522.460938 0)"/>
      <use xlink:href="#ArialMT-6f" transform="translate(578.076172 0)"/>
      <use xlink:href="#ArialMT-6d" transform="translate(633.691406 0)"/>
      <use xlink:href="#ArialMT-62" transform="translate(716.992188 0)"/>
      <use xlink:href="#ArialMT-72" transform="translate(772.607422 0)"/>
      <use xlink:href="#ArialMT-65" transform="translate(805.908203 0)"/>
      <use xlink:href="#ArialMT-73" transform="translate(861.523438 0)"/>
      <use xlink:href="#ArialMT-20" transform="translate(911.523438 0)"/>
      <use xlink:href="#ArialMT-70" transform="translate(939.306641 0)"/>
      <use xlink:href="#ArialMT-72" transform="translate(994.921875 0)"/>
      <use xlink:href="#ArialMT-65" transform="translate(1028.222656 0)"/>
      <use xlink:href="#ArialMT-6d" transform="translate(1083.837891 0)"/>
      <use xlink:href="#ArialMT-69" transform="translate(1167.138672 0)"/>
      <use xlink:href="#ArialMT-65" transform="translate(1189.355469 0)"/>
      <use xlink:href="#ArialMT-72" transform="translate(1244.970703 0)"/>
      <use xlink:href="#ArialMT-73" transform="translate(1278.271484 0)"/>
      <use xlink:href="#ArialMT-20" transform="translate(1328.271484 0)"/>
      <use xlink:href="#ArialMT-2264" transform="translate(1356.054688 0)"/>
      <use xlink:href="#ArialMT-20" transform="translate(1410.9375 0)"/>
      <use xlink:href="#ArialMT-31" transform="translate(1438.720703 0)"/>
      <use xlink:href="#ArialMT-30" transform="translate(1494.335938 0)"/>
     </g>
    </g>
    <g id="line2d_14">
     <path d="M 47.467188 49.8 
L 57.467188 49.8 
L 67.467188 49.8 
" style="fill: none; stroke-dasharray: 5.55,2.4; stroke-dashoffset: 0; stroke: #11976a; stroke-width: 1.5"/>
    </g>
    <g id="text_15">
     <!-- $\frac{x}{\log(x)}$ -->
     <g style="fill: #262626" transform="translate(75.467188 53.3) scale(0.1 -0.1)">
      <defs>
       <path id="DejaVuSans-6c" d="M 603 4863 
L 1178 4863 
L 1178 0 
L 603 0 
L 603 4863 
z
" transform="scale(0.015625)"/>
       <path id="DejaVuSans-6f" d="M 1959 3097 
Q 1497 3097 1228 2736 
Q 959 2375 959 1747 
Q 959 1119 1226 758 
Q 1494 397 1959 397 
Q 2419 397 2687 759 
Q 2956 1122 2956 1747 
Q 2956 2369 2687 2733 
Q 2419 3097 1959 3097 
z
M 1959 3584 
Q 2709 3584 3137 3096 
Q 3566 2609 3566 1747 
Q 3566 888 3137 398 
Q 2709 -91 1959 -91 
Q 1206 -91 779 398 
Q 353 888 353 1747 
Q 353 2609 779 3096 
Q 1206 3584 1959 3584 
z
" transform="scale(0.015625)"/>
       <path id="DejaVuSans-67" d="M 2906 1791 
Q 2906 2416 2648 2759 
Q 2391 3103 1925 3103 
Q 1463 3103 1205 2759 
Q 947 2416 947 1791 
Q 947 1169 1205 825 
Q 1463 481 1925 481 
Q 2391 481 2648 825 
Q 2906 1169 2906 1791 
z
M 3481 434 
Q 3481 -459 3084 -895 
Q 2688 -1331 1869 -1331 
Q 1566 -1331 1297 -1286 
Q 1028 -1241 775 -1147 
L 775 -588 
Q 1028 -725 1275 -790 
Q 1522 -856 1778 -856 
Q 2344 -856 2625 -561 
Q 2906 -266 2906 331 
L 2906 616 
Q 2728 306 2450 153 
Q 2172 0 1784 0 
Q 1141 0 747 490 
Q 353 981 353 1791 
Q 353 2603 747 3093 
Q 1141 3584 1784 3584 
Q 2172 3584 2450 3431 
Q 2728 3278 2906 2969 
L 2906 3500 
L 3481 3500 
L 3481 434 
z
" transform="scale(0.015625)"/>
       <path id="DejaVuSans-28" d="M 1984 4856 
Q 1566 4138 1362 3434 
Q 1159 2731 1159 2009 
Q 1159 1288 1364 580 
Q 1569 -128 1984 -844 
L 1484 -844 
Q 1016 -109 783 600 
Q 550 1309 550 2009 
Q 550 2706 781 3412 
Q 1013 4119 1484 4856 
L 1984 4856 
z
" transform="scale(0.015625)"/>
       <path id="DejaVuSans-29" d="M 513 4856 
L 1013 4856 
Q 1481 4119 1714 3412 
Q 1947 2706 1947 2009 
Q 1947 1309 1714 600 
Q 1481 -109 1013 -844 
L 513 -844 
Q 928 -128 1133 580 
Q 1338 1288 1338 2009 
Q 1338 2731 1133 3434 
Q 928 4138 513 4856 
z
" transform="scale(0.015625)"/>
      </defs>
      <use xlink:href="#DejaVuSans-Oblique-78" transform="translate(81 44.71875) scale(0.7)"/>
      <use xlink:href="#DejaVuSans-6c" transform="translate(0 -39.720313) scale(0.7)"/>
      <use xlink:href="#DejaVuSans-6f" transform="translate(19.448242 -39.720313) scale(0.7)"/>
      <use xlink:href="#DejaVuSans-67" transform="translate(62.275391 -39.720313) scale(0.7)"/>
      <use xlink:href="#DejaVuSans-28" transform="translate(106.708984 -39.720313) scale(0.7)"/>
      <use xlink:href="#DejaVuSans-Oblique-78" transform="translate(134.018555 -39.720313) scale(0.7)"/>
      <use xlink:href="#DejaVuSans-29" transform="translate(175.444336 -39.720313) scale(0.7)"/>
      <path d="M 0 19.71875 
L 0 25.96875 
L 202.753906 25.96875 
L 202.753906 19.71875 
L 0 19.71875 
z
"/>
     </g>
    </g>
   </g>
  </g>
  <g id="axes_2">
   <g id="patch_8">
    <path d="M 467.857187 319.825 
L 848.627187 319.825 
L 848.627187 21.825 
L 467.857187 21.825 
z
" style="fill: #ffffff"/>
   </g>
   <g id="matplotlib.axis_3">
    <g id="xtick_6">
     <g id="line2d_15">
      <path d="M 478.100536 319.825 
L 478.100536 21.825 
" clip-path="url(#p9a74323574)" style="fill: none; stroke: #cccccc; stroke-width: 0.8; stroke-linecap: round"/>
     </g>
     <g id="text_16">
      <!-- 0 -->
      <g style="fill: #262626" transform="translate(475.320068 333.982812) scale(0.1 -0.1)">
       <use xlink:href="#ArialMT-30"/>
      </g>
     </g>
    </g>
    <g id="xtick_7">
     <g id="line2d_16">
      <path d="M 548.744321 319.825 
L 548.744321 21.825 
" clip-path="url(#p9a74323574)" style="fill: none; stroke: #cccccc; stroke-width: 0.8; stroke-linecap: round"/>
     </g>
     <g id="text_17">
      <!-- 10 -->
      <g style="fill: #262626" transform="translate(543.183384 333.982812) scale(0.1 -0.1)">
       <use xlink:href="#ArialMT-31"/>
       <use xlink:href="#ArialMT-30" transform="translate(55.615234 0)"/>
      </g>
     </g>
    </g>
    <g id="xtick_8">
     <g id="line2d_17">
      <path d="M 619.388106 319.825 
L 619.388106 21.825 
" clip-path="url(#p9a74323574)" style="fill: none; stroke: #cccccc; stroke-width: 0.8; stroke-linecap: round"/>
     </g>
     <g id="text_18">
      <!-- 20 -->
      <g style="fill: #262626" transform="translate(613.827168 333.982812) scale(0.1 -0.1)">
       <use xlink:href="#ArialMT-32"/>
       <use xlink:href="#ArialMT-30" transform="translate(55.615234 0)"/>
      </g>
     </g>
    </g>
    <g id="xtick_9">
     <g id="line2d_18">
      <path d="M 690.031891 319.825 
L 690.031891 21.825 
" clip-path="url(#p9a74323574)" style="fill: none; stroke: #cccccc; stroke-width: 0.8; stroke-linecap: round"/>
     </g>
     <g id="text_19">
      <!-- 30 -->
      <g style="fill: #262626" transform="translate(684.470953 333.982812) scale(0.1 -0.1)">
       <use xlink:href="#ArialMT-33"/>
       <use xlink:href="#ArialMT-30" transform="translate(55.615234 0)"/>
      </g>
     </g>
    </g>
    <g id="xtick_10">
     <g id="line2d_19">
      <path d="M 760.675675 319.825 
L 760.675675 21.825 
" clip-path="url(#p9a74323574)" style="fill: none; stroke: #cccccc; stroke-width: 0.8; stroke-linecap: round"/>
     </g>
     <g id="text_20">
      <!-- 40 -->
      <g style="fill: #262626" transform="translate(755.114738 333.982812) scale(0.1 -0.1)">
       <use xlink:href="#ArialMT-34"/>
       <use xlink:href="#ArialMT-30" transform="translate(55.615234 0)"/>
      </g>
     </g>
    </g>
    <g id="xtick_11">
     <g id="line2d_20">
      <path d="M 831.31946 319.825 
L 831.31946 21.825 
" clip-path="url(#p9a74323574)" style="fill: none; stroke: #cccccc; stroke-width: 0.8; stroke-linecap: round"/>
     </g>
     <g id="text_21">
      <!-- 50 -->
      <g style="fill: #262626" transform="translate(825.758523 333.982812) scale(0.1 -0.1)">
       <defs>
        <path id="ArialMT-35" d="M 266 1200 
L 856 1250 
Q 922 819 1161 601 
Q 1400 384 1738 384 
Q 2144 384 2425 690 
Q 2706 997 2706 1503 
Q 2706 1984 2436 2262 
Q 2166 2541 1728 2541 
Q 1456 2541 1237 2417 
Q 1019 2294 894 2097 
L 366 2166 
L 809 4519 
L 3088 4519 
L 3088 3981 
L 1259 3981 
L 1013 2750 
Q 1425 3038 1878 3038 
Q 2478 3038 2890 2622 
Q 3303 2206 3303 1553 
Q 3303 931 2941 478 
Q 2500 -78 1738 -78 
Q 1113 -78 717 272 
Q 322 622 266 1200 
z
" transform="scale(0.015625)"/>
       </defs>
       <use xlink:href="#ArialMT-35"/>
       <use xlink:href="#ArialMT-30" transform="translate(55.615234 0)"/>
      </g>
     </g>
    </g>
    <g id="text_22">
     <!-- $x$ -->
     <g style="fill: #262626" transform="translate(655.242187 347.128125) scale(0.1 -0.1)">
      <use xlink:href="#DejaVuSans-Oblique-78" transform="translate(0 0.3125)"/>
     </g>
    </g>
   </g>
   <g id="matplotlib.axis_4">
    <g id="ytick_6">
     <g id="line2d_21">
      <path d="M 467.857187 306.279545 
L 848.627187 306.279545 
" clip-path="url(#p9a74323574)" style="fill: none; stroke: #cccccc; stroke-width: 0.8; stroke-linecap: round"/>
     </g>
     <g id="text_23">
      <!-- 0 -->
      <g style="fill: #262626" transform="translate(455.29625 309.858452) scale(0.1 -0.1)">
       <use xlink:href="#ArialMT-30"/>
      </g>
     </g>
    </g>
    <g id="ytick_7">
     <g id="line2d_22">
      <path d="M 467.857187 270.158333 
L 848.627187 270.158333 
" clip-path="url(#p9a74323574)" style="fill: none; stroke: #cccccc; stroke-width: 0.8; stroke-linecap: round"/>
     </g>
     <g id="text_24">
      <!-- 2 -->
      <g style="fill: #262626" transform="translate(455.29625 273.73724) scale(0.1 -0.1)">
       <use xlink:href="#ArialMT-32"/>
      </g>
     </g>
    </g>
    <g id="ytick_8">
     <g id="line2d_23">
      <path d="M 467.857187 234.037121 
L 848.627187 234.037121 
" clip-path="url(#p9a74323574)" style="fill: none; stroke: #cccccc; stroke-width: 0.8; stroke-linecap: round"/>
     </g>
     <g id="text_25">
      <!-- 4 -->
      <g style="fill: #262626" transform="translate(455.29625 237.616027) scale(0.1 -0.1)">
       <use xlink:href="#ArialMT-34"/>
      </g>
     </g>
    </g>
    <g id="ytick_9">
     <g id="line2d_24">
      <path d="M 467.857187 197.915909 
L 848.627187 197.915909 
" clip-path="url(#p9a74323574)" style="fill: none; stroke: #cccccc; stroke-width: 0.8; stroke-linecap: round"/>
     </g>
     <g id="text_26">
      <!-- 6 -->
      <g style="fill: #262626" transform="translate(455.29625 201.494815) scale(0.1 -0.1)">
       <use xlink:href="#ArialMT-36"/>
      </g>
     </g>
    </g>
    <g id="ytick_10">
     <g id="line2d_25">
      <path d="M 467.857187 161.794697 
L 848.627187 161.794697 
" clip-path="url(#p9a74323574)" style="fill: none; stroke: #cccccc; stroke-width: 0.8; stroke-linecap: round"/>
     </g>
     <g id="text_27">
      <!-- 8 -->
      <g style="fill: #262626" transform="translate(455.29625 165.373603) scale(0.1 -0.1)">
       <use xlink:href="#ArialMT-38"/>
      </g>
     </g>
    </g>
    <g id="ytick_11">
     <g id="line2d_26">
      <path d="M 467.857187 125.673485 
L 848.627187 125.673485 
" clip-path="url(#p9a74323574)" style="fill: none; stroke: #cccccc; stroke-width: 0.8; stroke-linecap: round"/>
     </g>
     <g id="text_28">
      <!-- 10 -->
      <g style="fill: #262626" transform="translate(449.735312 129.252391) scale(0.1 -0.1)">
       <use xlink:href="#ArialMT-31"/>
       <use xlink:href="#ArialMT-30" transform="translate(55.615234 0)"/>
      </g>
     </g>
    </g>
    <g id="ytick_12">
     <g id="line2d_27">
      <path d="M 467.857187 89.552273 
L 848.627187 89.552273 
" clip-path="url(#p9a74323574)" style="fill: none; stroke: #cccccc; stroke-width: 0.8; stroke-linecap: round"/>
     </g>
     <g id="text_29">
      <!-- 12 -->
      <g style="fill: #262626" transform="translate(449.735312 93.131179) scale(0.1 -0.1)">
       <use xlink:href="#ArialMT-31"/>
       <use xlink:href="#ArialMT-32" transform="translate(55.615234 0)"/>
      </g>
     </g>
    </g>
    <g id="ytick_13">
     <g id="line2d_28">
      <path d="M 467.857187 53.431061 
L 848.627187 53.431061 
" clip-path="url(#p9a74323574)" style="fill: none; stroke: #cccccc; stroke-width: 0.8; stroke-linecap: round"/>
     </g>
     <g id="text_30">
      <!-- 14 -->
      <g style="fill: #262626" transform="translate(449.735312 57.009967) scale(0.1 -0.1)">
       <use xlink:href="#ArialMT-31"/>
       <use xlink:href="#ArialMT-34" transform="translate(55.615234 0)"/>
      </g>
     </g>
    </g>
    <g id="text_31">
     <!-- Nombre de nombres premiers -->
     <g style="fill: #262626" transform="translate(443.747812 237.233594) rotate(-90) scale(0.1 -0.1)">
      <use xlink:href="#ArialMT-4e"/>
      <use xlink:href="#ArialMT-6f" transform="translate(72.216797 0)"/>
      <use xlink:href="#ArialMT-6d" transform="translate(127.832031 0)"/>
      <use xlink:href="#ArialMT-62" transform="translate(211.132812 0)"/>
      <use xlink:href="#ArialMT-72" transform="translate(266.748047 0)"/>
      <use xlink:href="#ArialMT-65" transform="translate(300.048828 0)"/>
      <use xlink:href="#ArialMT-20" transform="translate(355.664062 0)"/>
      <use xlink:href="#ArialMT-64" transform="translate(383.447266 0)"/>
      <use xlink:href="#ArialMT-65" transform="translate(439.0625 0)"/>
      <use xlink:href="#ArialMT-20" transform="translate(494.677734 0)"/>
      <use xlink:href="#ArialMT-6e" transform="translate(522.460938 0)"/>
      <use xlink:href="#ArialMT-6f" transform="translate(578.076172 0)"/>
      <use xlink:href="#ArialMT-6d" transform="translate(633.691406 0)"/>
      <use xlink:href="#ArialMT-62" transform="translate(716.992188 0)"/>
      <use xlink:href="#ArialMT-72" transform="translate(772.607422 0)"/>
      <use xlink:href="#ArialMT-65" transform="translate(805.908203 0)"/>
      <use xlink:href="#ArialMT-73" transform="translate(861.523438 0)"/>
      <use xlink:href="#ArialMT-20" transform="translate(911.523438 0)"/>
      <use xlink:href="#ArialMT-70" transform="translate(939.306641 0)"/>
      <use xlink:href="#ArialMT-72" transform="translate(994.921875 0)"/>
      <use xlink:href="#ArialMT-65" transform="translate(1028.222656 0)"/>
      <use xlink:href="#ArialMT-6d" transform="translate(1083.837891 0)"/>
      <use xlink:href="#ArialMT-69" transform="translate(1167.138672 0)"/>
      <use xlink:href="#ArialMT-65" transform="translate(1189.355469 0)"/>
      <use xlink:href="#ArialMT-72" transform="translate(1244.970703 0)"/>
      <use xlink:href="#ArialMT-73" transform="translate(1278.271484 0)"/>
     </g>
    </g>
   </g>
   <g id="line2d_29">
    <path d="M 485.164915 306.279545 
L 492.229293 288.218939 
L 499.293672 270.158333 
L 506.35805 270.158333 
L 513.422429 252.097727 
L 520.486807 252.097727 
L 527.551186 234.037121 
L 534.615564 234.037121 
L 541.679943 234.037121 
L 548.744321 234.037121 
L 555.8087 215.976515 
L 562.873078 215.976515 
L 569.937457 197.915909 
L 577.001835 197.915909 
L 584.066213 197.915909 
L 591.130592 197.915909 
L 598.19497 179.855303 
L 605.259349 179.855303 
L 612.323727 161.794697 
L 619.388106 161.794697 
L 626.452484 161.794697 
L 633.516863 161.794697 
L 640.581241 143.734091 
L 647.64562 143.734091 
L 654.709998 143.734091 
L 661.774377 143.734091 
L 668.838755 143.734091 
L 675.903134 143.734091 
L 682.967512 125.673485 
L 690.031891 125.673485 
L 697.096269 107.612879 
L 704.160648 107.612879 
L 711.225026 107.612879 
L 718.289405 107.612879 
L 725.353783 107.612879 
L 732.418162 107.612879 
L 739.48254 89.552273 
L 746.546918 89.552273 
L 753.611297 89.552273 
L 760.675675 89.552273 
L 767.740054 71.491667 
L 774.804432 71.491667 
L 781.868811 53.431061 
L 788.933189 53.431061 
L 795.997568 53.431061 
L 803.061946 53.431061 
L 810.126325 35.370455 
L 817.190703 35.370455 
L 824.255082 35.370455 
L 831.31946 35.370455 
" clip-path="url(#p9a74323574)" style="fill: none; stroke: #004c9e; stroke-width: 1.5; stroke-linecap: round"/>
   </g>
   <g id="line2d_30">
    <path d="M 492.229293 254.167652 
L 499.293672 256.961129 
L 506.35805 254.167652 
L 513.422429 250.171118 
L 520.486807 245.800648 
L 527.551186 241.310337 
L 534.615564 236.797021 
L 541.679943 232.301921 
L 548.744321 227.84333 
L 555.8087 223.42911 
L 562.873078 219.062075 
L 569.937457 214.742503 
L 577.001835 210.469393 
L 584.066213 206.241115 
L 591.130592 202.055758 
L 598.19497 197.91132 
L 605.259349 193.80581 
L 612.323727 189.737305 
L 619.388106 185.703977 
L 626.452484 181.704104 
L 633.516863 177.736072 
L 640.581241 173.798376 
L 647.64562 169.889614 
L 654.709998 166.008477 
L 661.774377 162.153749 
L 668.838755 158.324297 
L 675.903134 154.519061 
L 682.967512 150.737056 
L 690.031891 146.977358 
L 697.096269 143.239105 
L 704.160648 139.521486 
L 711.225026 135.823744 
L 718.289405 132.145165 
L 725.353783 128.485079 
L 732.418162 124.842854 
L 739.48254 121.217896 
L 746.546918 117.609642 
L 753.611297 114.01756 
L 760.675675 110.441148 
L 767.740054 106.879928 
L 774.804432 103.33345 
L 781.868811 99.801284 
L 788.933189 96.283022 
L 795.997568 92.778276 
L 803.061946 89.286677 
L 810.126325 85.807872 
L 817.190703 82.341525 
L 824.255082 78.887315 
L 831.31946 75.444936 
" clip-path="url(#p9a74323574)" style="fill: none; stroke-dasharray: 5.55,2.4; stroke-dashoffset: 0; stroke: #11976a; stroke-width: 1.5"/>
   </g>
   <g id="patch_9">
    <path d="M 467.857187 319.825 
L 467.857187 21.825 
" style="fill: none; stroke: #cccccc; stroke-width: 0.8; stroke-linejoin: miter; stroke-linecap: square"/>
   </g>
   <g id="patch_10">
    <path d="M 848.627187 319.825 
L 848.627187 21.825 
" style="fill: none; stroke: #cccccc; stroke-width: 0.8; stroke-linejoin: miter; stroke-linecap: square"/>
   </g>
   <g id="patch_11">
    <path d="M 467.857187 319.825 
L 848.627187 319.825 
" style="fill: none; stroke: #cccccc; stroke-width: 0.8; stroke-linejoin: miter; stroke-linecap: square"/>
   </g>
   <g id="patch_12">
    <path d="M 467.857187 21.825 
L 848.627187 21.825 
" style="fill: none; stroke: #cccccc; stroke-width: 0.8; stroke-linejoin: miter; stroke-linecap: square"/>
   </g>
   <g id="text_32">
    <!-- Nombre de nombres premiers ≤ 50 -->
    <g style="fill: #262626" transform="translate(565.251562 15.825) scale(0.12 -0.12)">
     <use xlink:href="#ArialMT-4e"/>
     <use xlink:href="#ArialMT-6f" transform="translate(72.216797 0)"/>
     <use xlink:href="#ArialMT-6d" transform="translate(127.832031 0)"/>
     <use xlink:href="#ArialMT-62" transform="translate(211.132812 0)"/>
     <use xlink:href="#ArialMT-72" transform="translate(266.748047 0)"/>
     <use xlink:href="#ArialMT-65" transform="translate(300.048828 0)"/>
     <use xlink:href="#ArialMT-20" transform="translate(355.664062 0)"/>
     <use xlink:href="#ArialMT-64" transform="translate(383.447266 0)"/>
     <use xlink:href="#ArialMT-65" transform="translate(439.0625 0)"/>
     <use xlink:href="#ArialMT-20" transform="translate(494.677734 0)"/>
     <use xlink:href="#ArialMT-6e" transform="translate(522.460938 0)"/>
     <use xlink:href="#ArialMT-6f" transform="translate(578.076172 0)"/>
     <use xlink:href="#ArialMT-6d" transform="translate(633.691406 0)"/>
     <use xlink:href="#ArialMT-62" transform="translate(716.992188 0)"/>
     <use xlink:href="#ArialMT-72" transform="translate(772.607422 0)"/>
     <use xlink:href="#ArialMT-65" transform="translate(805.908203 0)"/>
     <use xlink:href="#ArialMT-73" transform="translate(861.523438 0)"/>
     <use xlink:href="#ArialMT-20" transform="translate(911.523438 0)"/>
     <use xlink:href="#ArialMT-70" transform="translate(939.306641 0)"/>
     <use xlink:href="#ArialMT-72" transform="translate(994.921875 0)"/>
     <use xlink:href="#ArialMT-65" transform="translate(1028.222656 0)"/>
     <use xlink:href="#ArialMT-6d" transform="translate(1083.837891 0)"/>
     <use xlink:href="#ArialMT-69" transform="translate(1167.138672 0)"/>
     <use xlink:href="#ArialMT-65" transform="translate(1189.355469 0)"/>
     <use xlink:href="#ArialMT-72" transform="translate(1244.970703 0)"/>
     <use xlink:href="#ArialMT-73" transform="translate(1278.271484 0)"/>
     <use xlink:href="#ArialMT-20" transform="translate(1328.271484 0)"/>
     <use xlink:href="#ArialMT-2264" transform="translate(1356.054688 0)"/>
     <use xlink:href="#ArialMT-20" transform="translate(1410.9375 0)"/>
     <use xlink:href="#ArialMT-35" transform="translate(1438.720703 0)"/>
     <use xlink:href="#ArialMT-30" transform="translate(1494.335938 0)"/>
    </g>
   </g>
   <g id="legend_2">
    <g id="patch_13">
     <path d="M 474.857187 62.9 
L 661.841563 62.9 
Q 663.841563 62.9 663.841563 60.9 
L 663.841563 28.825 
Q 663.841563 26.825 661.841563 26.825 
L 474.857187 26.825 
Q 472.857187 26.825 472.857187 28.825 
L 472.857187 60.9 
Q 472.857187 62.9 474.857187 62.9 
z
" style="fill: #ffffff; opacity: 0.8; stroke: #cccccc; stroke-linejoin: miter"/>
    </g>
    <g id="line2d_31">
     <path d="M 476.857187 34.5125 
L 486.857187 34.5125 
L 496.857187 34.5125 
" style="fill: none; stroke: #004c9e; stroke-width: 1.5; stroke-linecap: round"/>
    </g>
    <g id="text_33">
     <!-- Nombre de nombres premiers ≤ 50 -->
     <g style="fill: #262626" transform="translate(504.857187 38.0125) scale(0.1 -0.1)">
      <use xlink:href="#ArialMT-4e"/>
      <use xlink:href="#ArialMT-6f" transform="translate(72.216797 0)"/>
      <use xlink:href="#ArialMT-6d" transform="translate(127.832031 0)"/>
      <use xlink:href="#ArialMT-62" transform="translate(211.132812 0)"/>
      <use xlink:href="#ArialMT-72" transform="translate(266.748047 0)"/>
      <use xlink:href="#ArialMT-65" transform="translate(300.048828 0)"/>
      <use xlink:href="#ArialMT-20" transform="translate(355.664062 0)"/>
      <use xlink:href="#ArialMT-64" transform="translate(383.447266 0)"/>
      <use xlink:href="#ArialMT-65" transform="translate(439.0625 0)"/>
      <use xlink:href="#ArialMT-20" transform="translate(494.677734 0)"/>
      <use xlink:href="#ArialMT-6e" transform="translate(522.460938 0)"/>
      <use xlink:href="#ArialMT-6f" transform="translate(578.076172 0)"/>
      <use xlink:href="#ArialMT-6d" transform="translate(633.691406 0)"/>
      <use xlink:href="#ArialMT-62" transform="translate(716.992188 0)"/>
      <use xlink:href="#ArialMT-72" transform="translate(772.607422 0)"/>
      <use xlink:href="#ArialMT-65" transform="translate(805.908203 0)"/>
      <use xlink:href="#ArialMT-73" transform="translate(861.523438 0)"/>
      <use xlink:href="#ArialMT-20" transform="translate(911.523438 0)"/>
      <use xlink:href="#ArialMT-70" transform="translate(939.306641 0)"/>
      <use xlink:href="#ArialMT-72" transform="translate(994.921875 0)"/>
      <use xlink:href="#ArialMT-65" transform="translate(1028.222656 0)"/>
      <use xlink:href="#ArialMT-6d" transform="translate(1083.837891 0)"/>
      <use xlink:href="#ArialMT-69" transform="translate(1167.138672 0)"/>
      <use xlink:href="#ArialMT-65" transform="translate(1189.355469 0)"/>
      <use xlink:href="#ArialMT-72" transform="translate(1244.970703 0)"/>
      <use xlink:href="#ArialMT-73" transform="translate(1278.271484 0)"/>
      <use xlink:href="#ArialMT-20" transform="translate(1328.271484 0)"/>
      <use xlink:href="#ArialMT-2264" transform="translate(1356.054688 0)"/>
      <use xlink:href="#ArialMT-20" transform="translate(1410.9375 0)"/>
      <use xlink:href="#ArialMT-35" transform="translate(1438.720703 0)"/>
      <use xlink:href="#ArialMT-30" transform="translate(1494.335938 0)"/>
     </g>
    </g>
    <g id="line2d_32">
     <path d="M 476.857187 49.8 
L 486.857187 49.8 
L 496.857187 49.8 
" style="fill: none; stroke-dasharray: 5.55,2.4; stroke-dashoffset: 0; stroke: #11976a; stroke-width: 1.5"/>
    </g>
    <g id="text_34">
     <!-- $\frac{x}{\log(x)}$ -->
     <g style="fill: #262626" transform="translate(504.857187 53.3) scale(0.1 -0.1)">
      <use xlink:href="#DejaVuSans-Oblique-78" transform="translate(81 44.71875) scale(0.7)"/>
      <use xlink:href="#DejaVuSans-6c" transform="translate(0 -39.720313) scale(0.7)"/>
      <use xlink:href="#DejaVuSans-6f" transform="translate(19.448242 -39.720313) scale(0.7)"/>
      <use xlink:href="#DejaVuSans-67" transform="translate(62.275391 -39.720313) scale(0.7)"/>
      <use xlink:href="#DejaVuSans-28" transform="translate(106.708984 -39.720313) scale(0.7)"/>
      <use xlink:href="#DejaVuSans-Oblique-78" transform="translate(134.018555 -39.720313) scale(0.7)"/>
      <use xlink:href="#DejaVuSans-29" transform="translate(175.444336 -39.720313) scale(0.7)"/>
      <path d="M 0 19.71875 
L 0 25.96875 
L 202.753906 25.96875 
L 202.753906 19.71875 
L 0 19.71875 
z
"/>
     </g>
    </g>
   </g>
  </g>
  <g id="axes_3">
   <g id="patch_14">
    <path d="M 38.467188 674.425 
L 419.237187 674.425 
L 419.237187 376.425 
L 38.467188 376.425 
z
" style="fill: #ffffff"/>
   </g>
   <g id="matplotlib.axis_5">
    <g id="xtick_12">
     <g id="line2d_33">
      <path d="M 52.278404 674.425 
L 52.278404 376.425 
" clip-path="url(#pec7b4f6620)" style="fill: none; stroke: #cccccc; stroke-width: 0.8; stroke-linecap: round"/>
     </g>
     <g id="text_35">
      <!-- 0 -->
      <g style="fill: #262626" transform="translate(49.497935 688.582812) scale(0.1 -0.1)">
       <use xlink:href="#ArialMT-30"/>
      </g>
     </g>
    </g>
    <g id="xtick_13">
     <g id="line2d_34">
      <path d="M 122.208615 674.425 
L 122.208615 376.425 
" clip-path="url(#pec7b4f6620)" style="fill: none; stroke: #cccccc; stroke-width: 0.8; stroke-linecap: round"/>
     </g>
     <g id="text_36">
      <!-- 20 -->
      <g style="fill: #262626" transform="translate(116.647678 688.582812) scale(0.1 -0.1)">
       <use xlink:href="#ArialMT-32"/>
       <use xlink:href="#ArialMT-30" transform="translate(55.615234 0)"/>
      </g>
     </g>
    </g>
    <g id="xtick_14">
     <g id="line2d_35">
      <path d="M 192.138827 674.425 
L 192.138827 376.425 
" clip-path="url(#pec7b4f6620)" style="fill: none; stroke: #cccccc; stroke-width: 0.8; stroke-linecap: round"/>
     </g>
     <g id="text_37">
      <!-- 40 -->
      <g style="fill: #262626" transform="translate(186.577889 688.582812) scale(0.1 -0.1)">
       <use xlink:href="#ArialMT-34"/>
       <use xlink:href="#ArialMT-30" transform="translate(55.615234 0)"/>
      </g>
     </g>
    </g>
    <g id="xtick_15">
     <g id="line2d_36">
      <path d="M 262.069038 674.425 
L 262.069038 376.425 
" clip-path="url(#pec7b4f6620)" style="fill: none; stroke: #cccccc; stroke-width: 0.8; stroke-linecap: round"/>
     </g>
     <g id="text_38">
      <!-- 60 -->
      <g style="fill: #262626" transform="translate(256.5081 688.582812) scale(0.1 -0.1)">
       <use xlink:href="#ArialMT-36"/>
       <use xlink:href="#ArialMT-30" transform="translate(55.615234 0)"/>
      </g>
     </g>
    </g>
    <g id="xtick_16">
     <g id="line2d_37">
      <path d="M 331.999249 674.425 
L 331.999249 376.425 
" clip-path="url(#pec7b4f6620)" style="fill: none; stroke: #cccccc; stroke-width: 0.8; stroke-linecap: round"/>
     </g>
     <g id="text_39">
      <!-- 80 -->
      <g style="fill: #262626" transform="translate(326.438312 688.582812) scale(0.1 -0.1)">
       <use xlink:href="#ArialMT-38"/>
       <use xlink:href="#ArialMT-30" transform="translate(55.615234 0)"/>
      </g>
     </g>
    </g>
    <g id="xtick_17">
     <g id="line2d_38">
      <path d="M 401.92946 674.425 
L 401.92946 376.425 
" clip-path="url(#pec7b4f6620)" style="fill: none; stroke: #cccccc; stroke-width: 0.8; stroke-linecap: round"/>
     </g>
     <g id="text_40">
      <!-- 100 -->
      <g style="fill: #262626" transform="translate(393.588054 688.582812) scale(0.1 -0.1)">
       <use xlink:href="#ArialMT-31"/>
       <use xlink:href="#ArialMT-30" transform="translate(55.615234 0)"/>
       <use xlink:href="#ArialMT-30" transform="translate(111.230469 0)"/>
      </g>
     </g>
    </g>
    <g id="text_41">
     <!-- $x$ -->
     <g style="fill: #262626" transform="translate(225.852187 701.728125) scale(0.1 -0.1)">
      <use xlink:href="#DejaVuSans-Oblique-78" transform="translate(0 0.3125)"/>
     </g>
    </g>
   </g>
   <g id="matplotlib.axis_6">
    <g id="ytick_14">
     <g id="line2d_39">
      <path d="M 38.467188 660.879545 
L 419.237187 660.879545 
" clip-path="url(#pec7b4f6620)" style="fill: none; stroke: #cccccc; stroke-width: 0.8; stroke-linecap: round"/>
     </g>
     <g id="text_42">
      <!-- 0 -->
      <g style="fill: #262626" transform="translate(25.90625 664.458452) scale(0.1 -0.1)">
       <use xlink:href="#ArialMT-30"/>
      </g>
     </g>
    </g>
    <g id="ytick_15">
     <g id="line2d_40">
      <path d="M 38.467188 606.697727 
L 419.237187 606.697727 
" clip-path="url(#pec7b4f6620)" style="fill: none; stroke: #cccccc; stroke-width: 0.8; stroke-linecap: round"/>
     </g>
     <g id="text_43">
      <!-- 5 -->
      <g style="fill: #262626" transform="translate(25.90625 610.276634) scale(0.1 -0.1)">
       <use xlink:href="#ArialMT-35"/>
      </g>
     </g>
    </g>
    <g id="ytick_16">
     <g id="line2d_41">
      <path d="M 38.467188 552.515909 
L 419.237187 552.515909 
" clip-path="url(#pec7b4f6620)" style="fill: none; stroke: #cccccc; stroke-width: 0.8; stroke-linecap: round"/>
     </g>
     <g id="text_44">
      <!-- 10 -->
      <g style="fill: #262626" transform="translate(20.345313 556.094815) scale(0.1 -0.1)">
       <use xlink:href="#ArialMT-31"/>
       <use xlink:href="#ArialMT-30" transform="translate(55.615234 0)"/>
      </g>
     </g>
    </g>
    <g id="ytick_17">
     <g id="line2d_42">
      <path d="M 38.467188 498.334091 
L 419.237187 498.334091 
" clip-path="url(#pec7b4f6620)" style="fill: none; stroke: #cccccc; stroke-width: 0.8; stroke-linecap: round"/>
     </g>
     <g id="text_45">
      <!-- 15 -->
      <g style="fill: #262626" transform="translate(20.345313 501.912997) scale(0.1 -0.1)">
       <use xlink:href="#ArialMT-31"/>
       <use xlink:href="#ArialMT-35" transform="translate(55.615234 0)"/>
      </g>
     </g>
    </g>
    <g id="ytick_18">
     <g id="line2d_43">
      <path d="M 38.467188 444.152273 
L 419.237187 444.152273 
" clip-path="url(#pec7b4f6620)" style="fill: none; stroke: #cccccc; stroke-width: 0.8; stroke-linecap: round"/>
     </g>
     <g id="text_46">
      <!-- 20 -->
      <g style="fill: #262626" transform="translate(20.345313 447.731179) scale(0.1 -0.1)">
       <use xlink:href="#ArialMT-32"/>
       <use xlink:href="#ArialMT-30" transform="translate(55.615234 0)"/>
      </g>
     </g>
    </g>
    <g id="ytick_19">
     <g id="line2d_44">
      <path d="M 38.467188 389.970455 
L 419.237187 389.970455 
" clip-path="url(#pec7b4f6620)" style="fill: none; stroke: #cccccc; stroke-width: 0.8; stroke-linecap: round"/>
     </g>
     <g id="text_47">
      <!-- 25 -->
      <g style="fill: #262626" transform="translate(20.345313 393.549361) scale(0.1 -0.1)">
       <use xlink:href="#ArialMT-32"/>
       <use xlink:href="#ArialMT-35" transform="translate(55.615234 0)"/>
      </g>
     </g>
    </g>
    <g id="text_48">
     <!-- Nombre de nombres premiers -->
     <g style="fill: #262626" transform="translate(14.357813 591.833594) rotate(-90) scale(0.1 -0.1)">
      <use xlink:href="#ArialMT-4e"/>
      <use xlink:href="#ArialMT-6f" transform="translate(72.216797 0)"/>
      <use xlink:href="#ArialMT-6d" transform="translate(127.832031 0)"/>
      <use xlink:href="#ArialMT-62" transform="translate(211.132812 0)"/>
      <use xlink:href="#ArialMT-72" transform="translate(266.748047 0)"/>
      <use xlink:href="#ArialMT-65" transform="translate(300.048828 0)"/>
      <use xlink:href="#ArialMT-20" transform="translate(355.664062 0)"/>
      <use xlink:href="#ArialMT-64" transform="translate(383.447266 0)"/>
      <use xlink:href="#ArialMT-65" transform="translate(439.0625 0)"/>
      <use xlink:href="#ArialMT-20" transform="translate(494.677734 0)"/>
      <use xlink:href="#ArialMT-6e" transform="translate(522.460938 0)"/>
      <use xlink:href="#ArialMT-6f" transform="translate(578.076172 0)"/>
      <use xlink:href="#ArialMT-6d" transform="translate(633.691406 0)"/>
      <use xlink:href="#ArialMT-62" transform="translate(716.992188 0)"/>
      <use xlink:href="#ArialMT-72" transform="translate(772.607422 0)"/>
      <use xlink:href="#ArialMT-65" transform="translate(805.908203 0)"/>
      <use xlink:href="#ArialMT-73" transform="translate(861.523438 0)"/>
      <use xlink:href="#ArialMT-20" transform="translate(911.523438 0)"/>
      <use xlink:href="#ArialMT-70" transform="translate(939.306641 0)"/>
      <use xlink:href="#ArialMT-72" transform="translate(994.921875 0)"/>
      <use xlink:href="#ArialMT-65" transform="translate(1028.222656 0)"/>
      <use xlink:href="#ArialMT-6d" transform="translate(1083.837891 0)"/>
      <use xlink:href="#ArialMT-69" transform="translate(1167.138672 0)"/>
      <use xlink:href="#ArialMT-65" transform="translate(1189.355469 0)"/>
      <use xlink:href="#ArialMT-72" transform="translate(1244.970703 0)"/>
      <use xlink:href="#ArialMT-73" transform="translate(1278.271484 0)"/>
     </g>
    </g>
   </g>
   <g id="line2d_45">
    <path d="M 55.774915 660.879545 
L 59.271425 650.043182 
L 62.767936 639.206818 
L 66.264446 639.206818 
L 69.760957 628.370455 
L 73.257468 628.370455 
L 76.753978 617.534091 
L 80.250489 617.534091 
L 83.746999 617.534091 
L 87.24351 617.534091 
L 90.74002 606.697727 
L 94.236531 606.697727 
L 97.733041 595.861364 
L 101.229552 595.861364 
L 104.726063 595.861364 
L 108.222573 595.861364 
L 111.719084 585.025 
L 115.215594 585.025 
L 118.712105 574.188636 
L 122.208615 574.188636 
L 125.705126 574.188636 
L 129.201637 574.188636 
L 132.698147 563.352273 
L 136.194658 563.352273 
L 139.691168 563.352273 
L 143.187679 563.352273 
L 146.684189 563.352273 
L 150.1807 563.352273 
L 153.67721 552.515909 
L 157.173721 552.515909 
L 160.670232 541.679545 
L 164.166742 541.679545 
L 167.663253 541.679545 
L 171.159763 541.679545 
L 174.656274 541.679545 
L 178.152784 541.679545 
L 181.649295 530.843182 
L 185.145805 530.843182 
L 188.642316 530.843182 
L 192.138827 530.843182 
L 195.635337 520.006818 
L 199.131848 520.006818 
L 202.628358 509.170455 
L 206.124869 509.170455 
L 209.621379 509.170455 
L 213.11789 509.170455 
L 216.614401 498.334091 
L 220.110911 498.334091 
L 223.607422 498.334091 
L 227.103932 498.334091 
L 230.600443 498.334091 
L 234.096953 498.334091 
L 237.593464 487.497727 
L 241.089974 487.497727 
L 244.586485 487.497727 
L 248.082996 487.497727 
L 251.579506 487.497727 
L 255.076017 487.497727 
L 258.572527 476.661364 
L 262.069038 476.661364 
L 265.565548 465.825 
L 269.062059 465.825 
L 272.55857 465.825 
L 276.05508 465.825 
L 279.551591 465.825 
L 283.048101 465.825 
L 286.544612 454.988636 
L 290.041122 454.988636 
L 293.537633 454.988636 
L 297.034143 454.988636 
L 300.530654 444.152273 
L 304.027165 444.152273 
L 307.523675 433.315909 
L 311.020186 433.315909 
L 314.516696 433.315909 
L 318.013207 433.315909 
L 321.509717 433.315909 
L 325.006228 433.315909 
L 328.502738 422.479545 
L 331.999249 422.479545 
L 335.49576 422.479545 
L 338.99227 422.479545 
L 342.488781 411.643182 
L 345.985291 411.643182 
L 349.481802 411.643182 
L 352.978312 411.643182 
L 356.474823 411.643182 
L 359.971334 411.643182 
L 363.467844 400.806818 
L 366.964355 400.806818 
L 370.460865 400.806818 
L 373.957376 400.806818 
L 377.453886 400.806818 
L 380.950397 400.806818 
L 384.446907 400.806818 
L 387.943418 400.806818 
L 391.439929 389.970455 
L 394.936439 389.970455 
L 398.43295 389.970455 
L 401.92946 389.970455 
" clip-path="url(#pec7b4f6620)" style="fill: none; stroke: #004c9e; stroke-width: 1.5; stroke-linecap: round"/>
   </g>
   <g id="line2d_46">
    <path d="M 59.271425 629.612409 
L 62.767936 631.288496 
L 66.264446 629.612409 
L 69.760957 627.214489 
L 73.257468 624.592207 
L 76.753978 621.89802 
L 80.250489 619.190031 
L 83.746999 616.492971 
L 87.24351 613.817816 
L 90.74002 611.169284 
L 94.236531 608.549063 
L 97.733041 605.95732 
L 101.229552 603.393454 
L 104.726063 600.856487 
L 108.222573 598.345273 
L 111.719084 595.85861 
L 115.215594 593.395304 
L 118.712105 590.954201 
L 122.208615 588.534205 
L 125.705126 586.13428 
L 129.201637 583.753461 
L 132.698147 581.390844 
L 136.194658 579.045586 
L 139.691168 576.716904 
L 143.187679 574.404068 
L 146.684189 572.106396 
L 150.1807 569.823255 
L 153.67721 567.554052 
L 157.173721 565.298233 
L 160.670232 563.055281 
L 164.166742 560.82471 
L 167.663253 558.606064 
L 171.159763 556.398917 
L 174.656274 554.202866 
L 178.152784 552.017531 
L 181.649295 549.842556 
L 185.145805 547.677603 
L 188.642316 545.522354 
L 192.138827 543.376507 
L 195.635337 541.239775 
L 199.131848 539.111888 
L 202.628358 536.992589 
L 206.124869 534.881631 
L 209.621379 532.778784 
L 213.11789 530.683824 
L 216.614401 528.596541 
L 220.110911 526.516733 
L 223.607422 524.444207 
L 227.103932 522.37878 
L 230.600443 520.320274 
L 234.096953 518.268522 
L 237.593464 516.223363 
L 241.089974 514.18464 
L 244.586485 512.152207 
L 248.082996 510.125919 
L 251.579506 508.105641 
L 255.076017 506.091241 
L 258.572527 504.082591 
L 262.069038 502.079569 
L 265.565548 500.08206 
L 269.062059 498.089948 
L 272.55857 496.103125 
L 276.05508 494.121486 
L 279.551591 492.144929 
L 283.048101 490.173355 
L 286.544612 488.20667 
L 290.041122 486.244783 
L 293.537633 484.287603 
L 297.034143 482.335046 
L 300.530654 480.387029 
L 304.027165 478.44347 
L 307.523675 476.504292 
L 311.020186 474.56942 
L 314.516696 472.638779 
L 318.013207 470.712299 
L 321.509717 468.78991 
L 325.006228 466.871546 
L 328.502738 464.957141 
L 331.999249 463.046633 
L 335.49576 461.13996 
L 338.99227 459.237061 
L 342.488781 457.337879 
L 345.985291 455.442357 
L 349.481802 453.55044 
L 352.978312 451.662075 
L 356.474823 449.777209 
L 359.971334 447.895792 
L 363.467844 446.017774 
L 366.964355 444.143106 
L 370.460865 442.271741 
L 373.957376 440.403635 
L 377.453886 438.538741 
L 380.950397 436.677016 
L 384.446907 434.818418 
L 387.943418 432.962904 
L 391.439929 431.110435 
L 394.936439 429.26097 
L 398.43295 427.414471 
L 401.92946 425.570899 
" clip-path="url(#pec7b4f6620)" style="fill: none; stroke-dasharray: 5.55,2.4; stroke-dashoffset: 0; stroke: #11976a; stroke-width: 1.5"/>
   </g>
   <g id="patch_15">
    <path d="M 38.467188 674.425 
L 38.467188 376.425 
" style="fill: none; stroke: #cccccc; stroke-width: 0.8; stroke-linejoin: miter; stroke-linecap: square"/>
   </g>
   <g id="patch_16">
    <path d="M 419.237187 674.425 
L 419.237187 376.425 
" style="fill: none; stroke: #cccccc; stroke-width: 0.8; stroke-linejoin: miter; stroke-linecap: square"/>
   </g>
   <g id="patch_17">
    <path d="M 38.467188 674.425 
L 419.237187 674.425 
" style="fill: none; stroke: #cccccc; stroke-width: 0.8; stroke-linejoin: miter; stroke-linecap: square"/>
   </g>
   <g id="patch_18">
    <path d="M 38.467188 376.425 
L 419.237187 376.425 
" style="fill: none; stroke: #cccccc; stroke-width: 0.8; stroke-linejoin: miter; stroke-linecap: square"/>
   </g>
   <g id="text_49">
    <!-- Nombre de nombres premiers ≤ 100 -->
    <g style="fill: #262626" transform="translate(132.525 370.425) scale(0.12 -0.12)">
     <use xlink:href="#ArialMT-4e"/>
     <use xlink:href="#ArialMT-6f" transform="translate(72.216797 0)"/>
     <use xlink:href="#ArialMT-6d" transform="translate(127.832031 0)"/>
     <use xlink:href="#ArialMT-62" transform="translate(211.132812 0)"/>
     <use xlink:href="#ArialMT-72" transform="translate(266.748047 0)"/>
     <use xlink:href="#ArialMT-65" transform="translate(300.048828 0)"/>
     <use xlink:href="#ArialMT-20" transform="translate(355.664062 0)"/>
     <use xlink:href="#ArialMT-64" transform="translate(383.447266 0)"/>
     <use xlink:href="#ArialMT-65" transform="translate(439.0625 0)"/>
     <use xlink:href="#ArialMT-20" transform="translate(494.677734 0)"/>
     <use xlink:href="#ArialMT-6e" transform="translate(522.460938 0)"/>
     <use xlink:href="#ArialMT-6f" transform="translate(578.076172 0)"/>
     <use xlink:href="#ArialMT-6d" transform="translate(633.691406 0)"/>
     <use xlink:href="#ArialMT-62" transform="translate(716.992188 0)"/>
     <use xlink:href="#ArialMT-72" transform="translate(772.607422 0)"/>
     <use xlink:href="#ArialMT-65" transform="translate(805.908203 0)"/>
     <use xlink:href="#ArialMT-73" transform="translate(861.523438 0)"/>
     <use xlink:href="#ArialMT-20" transform="translate(911.523438 0)"/>
     <use xlink:href="#ArialMT-70" transform="translate(939.306641 0)"/>
     <use xlink:href="#ArialMT-72" transform="translate(994.921875 0)"/>
     <use xlink:href="#ArialMT-65" transform="translate(1028.222656 0)"/>
     <use xlink:href="#ArialMT-6d" transform="translate(1083.837891 0)"/>
     <use xlink:href="#ArialMT-69" transform="translate(1167.138672 0)"/>
     <use xlink:href="#ArialMT-65" transform="translate(1189.355469 0)"/>
     <use xlink:href="#ArialMT-72" transform="translate(1244.970703 0)"/>
     <use xlink:href="#ArialMT-73" transform="translate(1278.271484 0)"/>
     <use xlink:href="#ArialMT-20" transform="translate(1328.271484 0)"/>
     <use xlink:href="#ArialMT-2264" transform="translate(1356.054688 0)"/>
     <use xlink:href="#ArialMT-20" transform="translate(1410.9375 0)"/>
     <use xlink:href="#ArialMT-31" transform="translate(1438.720703 0)"/>
     <use xlink:href="#ArialMT-30" transform="translate(1494.335938 0)"/>
     <use xlink:href="#ArialMT-30" transform="translate(1549.951172 0)"/>
    </g>
   </g>
   <g id="legend_3">
    <g id="patch_19">
     <path d="M 45.467188 417.5 
L 238.0125 417.5 
Q 240.0125 417.5 240.0125 415.5 
L 240.0125 383.425 
Q 240.0125 381.425 238.0125 381.425 
L 45.467188 381.425 
Q 43.467188 381.425 43.467188 383.425 
L 43.467188 415.5 
Q 43.467188 417.5 45.467188 417.5 
z
" style="fill: #ffffff; opacity: 0.8; stroke: #cccccc; stroke-linejoin: miter"/>
    </g>
    <g id="line2d_47">
     <path d="M 47.467188 389.1125 
L 57.467188 389.1125 
L 67.467188 389.1125 
" style="fill: none; stroke: #004c9e; stroke-width: 1.5; stroke-linecap: round"/>
    </g>
    <g id="text_50">
     <!-- Nombre de nombres premiers ≤ 100 -->
     <g style="fill: #262626" transform="translate(75.467188 392.6125) scale(0.1 -0.1)">
      <use xlink:href="#ArialMT-4e"/>
      <use xlink:href="#ArialMT-6f" transform="translate(72.216797 0)"/>
      <use xlink:href="#ArialMT-6d" transform="translate(127.832031 0)"/>
      <use xlink:href="#ArialMT-62" transform="translate(211.132812 0)"/>
      <use xlink:href="#ArialMT-72" transform="translate(266.748047 0)"/>
      <use xlink:href="#ArialMT-65" transform="translate(300.048828 0)"/>
      <use xlink:href="#ArialMT-20" transform="translate(355.664062 0)"/>
      <use xlink:href="#ArialMT-64" transform="translate(383.447266 0)"/>
      <use xlink:href="#ArialMT-65" transform="translate(439.0625 0)"/>
      <use xlink:href="#ArialMT-20" transform="translate(494.677734 0)"/>
      <use xlink:href="#ArialMT-6e" transform="translate(522.460938 0)"/>
      <use xlink:href="#ArialMT-6f" transform="translate(578.076172 0)"/>
      <use xlink:href="#ArialMT-6d" transform="translate(633.691406 0)"/>
      <use xlink:href="#ArialMT-62" transform="translate(716.992188 0)"/>
      <use xlink:href="#ArialMT-72" transform="translate(772.607422 0)"/>
      <use xlink:href="#ArialMT-65" transform="translate(805.908203 0)"/>
      <use xlink:href="#ArialMT-73" transform="translate(861.523438 0)"/>
      <use xlink:href="#ArialMT-20" transform="translate(911.523438 0)"/>
      <use xlink:href="#ArialMT-70" transform="translate(939.306641 0)"/>
      <use xlink:href="#ArialMT-72" transform="translate(994.921875 0)"/>
      <use xlink:href="#ArialMT-65" transform="translate(1028.222656 0)"/>
      <use xlink:href="#ArialMT-6d" transform="translate(1083.837891 0)"/>
      <use xlink:href="#ArialMT-69" transform="translate(1167.138672 0)"/>
      <use xlink:href="#ArialMT-65" transform="translate(1189.355469 0)"/>
      <use xlink:href="#ArialMT-72" transform="translate(1244.970703 0)"/>
      <use xlink:href="#ArialMT-73" transform="translate(1278.271484 0)"/>
      <use xlink:href="#ArialMT-20" transform="translate(1328.271484 0)"/>
      <use xlink:href="#ArialMT-2264" transform="translate(1356.054688 0)"/>
      <use xlink:href="#ArialMT-20" transform="translate(1410.9375 0)"/>
      <use xlink:href="#ArialMT-31" transform="translate(1438.720703 0)"/>
      <use xlink:href="#ArialMT-30" transform="translate(1494.335938 0)"/>
      <use xlink:href="#ArialMT-30" transform="translate(1549.951172 0)"/>
     </g>
    </g>
    <g id="line2d_48">
     <path d="M 47.467188 404.4 
L 57.467188 404.4 
L 67.467188 404.4 
" style="fill: none; stroke-dasharray: 5.55,2.4; stroke-dashoffset: 0; stroke: #11976a; stroke-width: 1.5"/>
    </g>
    <g id="text_51">
     <!-- $\frac{x}{\log(x)}$ -->
     <g style="fill: #262626" transform="translate(75.467188 407.9) scale(0.1 -0.1)">
      <use xlink:href="#DejaVuSans-Oblique-78" transform="translate(81 44.71875) scale(0.7)"/>
      <use xlink:href="#DejaVuSans-6c" transform="translate(0 -39.720313) scale(0.7)"/>
      <use xlink:href="#DejaVuSans-6f" transform="translate(19.448242 -39.720313) scale(0.7)"/>
      <use xlink:href="#DejaVuSans-67" transform="translate(62.275391 -39.720313) scale(0.7)"/>
      <use xlink:href="#DejaVuSans-28" transform="translate(106.708984 -39.720313) scale(0.7)"/>
      <use xlink:href="#DejaVuSans-Oblique-78" transform="translate(134.018555 -39.720313) scale(0.7)"/>
      <use xlink:href="#DejaVuSans-29" transform="translate(175.444336 -39.720313) scale(0.7)"/>
      <path d="M 0 19.71875 
L 0 25.96875 
L 202.753906 25.96875 
L 202.753906 19.71875 
L 0 19.71875 
z
"/>
     </g>
    </g>
   </g>
  </g>
  <g id="axes_4">
   <g id="patch_20">
    <path d="M 467.857187 674.425 
L 848.627187 674.425 
L 848.627187 376.425 
L 467.857187 376.425 
z
" style="fill: #ffffff"/>
   </g>
   <g id="matplotlib.axis_7">
    <g id="xtick_18">
     <g id="line2d_49">
      <path d="M 484.818414 674.425 
L 484.818414 376.425 
" clip-path="url(#pef1c441a9e)" style="fill: none; stroke: #cccccc; stroke-width: 0.8; stroke-linecap: round"/>
     </g>
     <g id="text_52">
      <!-- 0 -->
      <g style="fill: #262626" transform="translate(482.037945 688.582812) scale(0.1 -0.1)">
       <use xlink:href="#ArialMT-30"/>
      </g>
     </g>
    </g>
    <g id="xtick_19">
     <g id="line2d_50">
      <path d="M 554.118623 674.425 
L 554.118623 376.425 
" clip-path="url(#pef1c441a9e)" style="fill: none; stroke: #cccccc; stroke-width: 0.8; stroke-linecap: round"/>
     </g>
     <g id="text_53">
      <!-- 200 -->
      <g style="fill: #262626" transform="translate(545.777217 688.582812) scale(0.1 -0.1)">
       <use xlink:href="#ArialMT-32"/>
       <use xlink:href="#ArialMT-30" transform="translate(55.615234 0)"/>
       <use xlink:href="#ArialMT-30" transform="translate(111.230469 0)"/>
      </g>
     </g>
    </g>
    <g id="xtick_20">
     <g id="line2d_51">
      <path d="M 623.418832 674.425 
L 623.418832 376.425 
" clip-path="url(#pef1c441a9e)" style="fill: none; stroke: #cccccc; stroke-width: 0.8; stroke-linecap: round"/>
     </g>
     <g id="text_54">
      <!-- 400 -->
      <g style="fill: #262626" transform="translate(615.077426 688.582812) scale(0.1 -0.1)">
       <use xlink:href="#ArialMT-34"/>
       <use xlink:href="#ArialMT-30" transform="translate(55.615234 0)"/>
       <use xlink:href="#ArialMT-30" transform="translate(111.230469 0)"/>
      </g>
     </g>
    </g>
    <g id="xtick_21">
     <g id="line2d_52">
      <path d="M 692.719042 674.425 
L 692.719042 376.425 
" clip-path="url(#pef1c441a9e)" style="fill: none; stroke: #cccccc; stroke-width: 0.8; stroke-linecap: round"/>
     </g>
     <g id="text_55">
      <!-- 600 -->
      <g style="fill: #262626" transform="translate(684.377635 688.582812) scale(0.1 -0.1)">
       <use xlink:href="#ArialMT-36"/>
       <use xlink:href="#ArialMT-30" transform="translate(55.615234 0)"/>
       <use xlink:href="#ArialMT-30" transform="translate(111.230469 0)"/>
      </g>
     </g>
    </g>
    <g id="xtick_22">
     <g id="line2d_53">
      <path d="M 762.019251 674.425 
L 762.019251 376.425 
" clip-path="url(#pef1c441a9e)" style="fill: none; stroke: #cccccc; stroke-width: 0.8; stroke-linecap: round"/>
     </g>
     <g id="text_56">
      <!-- 800 -->
      <g style="fill: #262626" transform="translate(753.677845 688.582812) scale(0.1 -0.1)">
       <use xlink:href="#ArialMT-38"/>
       <use xlink:href="#ArialMT-30" transform="translate(55.615234 0)"/>
       <use xlink:href="#ArialMT-30" transform="translate(111.230469 0)"/>
      </g>
     </g>
    </g>
    <g id="xtick_23">
     <g id="line2d_54">
      <path d="M 831.31946 674.425 
L 831.31946 376.425 
" clip-path="url(#pef1c441a9e)" style="fill: none; stroke: #cccccc; stroke-width: 0.8; stroke-linecap: round"/>
     </g>
     <g id="text_57">
      <!-- 1000 -->
      <g style="fill: #262626" transform="translate(820.197585 688.582812) scale(0.1 -0.1)">
       <use xlink:href="#ArialMT-31"/>
       <use xlink:href="#ArialMT-30" transform="translate(55.615234 0)"/>
       <use xlink:href="#ArialMT-30" transform="translate(111.230469 0)"/>
       <use xlink:href="#ArialMT-30" transform="translate(166.845703 0)"/>
      </g>
     </g>
    </g>
    <g id="text_58">
     <!-- $x$ -->
     <g style="fill: #262626" transform="translate(655.242187 701.728125) scale(0.1 -0.1)">
      <use xlink:href="#DejaVuSans-Oblique-78" transform="translate(0 0.3125)"/>
     </g>
    </g>
   </g>
   <g id="matplotlib.axis_8">
    <g id="ytick_20">
     <g id="line2d_55">
      <path d="M 467.857187 660.879545 
L 848.627187 660.879545 
" clip-path="url(#pef1c441a9e)" style="fill: none; stroke: #cccccc; stroke-width: 0.8; stroke-linecap: round"/>
     </g>
     <g id="text_59">
      <!-- 0 -->
      <g style="fill: #262626" transform="translate(455.29625 664.458452) scale(0.1 -0.1)">
       <use xlink:href="#ArialMT-30"/>
      </g>
     </g>
    </g>
    <g id="ytick_21">
     <g id="line2d_56">
      <path d="M 467.857187 620.565693 
L 848.627187 620.565693 
" clip-path="url(#pef1c441a9e)" style="fill: none; stroke: #cccccc; stroke-width: 0.8; stroke-linecap: round"/>
     </g>
     <g id="text_60">
      <!-- 25 -->
      <g style="fill: #262626" transform="translate(449.735312 624.144599) scale(0.1 -0.1)">
       <use xlink:href="#ArialMT-32"/>
       <use xlink:href="#ArialMT-35" transform="translate(55.615234 0)"/>
      </g>
     </g>
    </g>
    <g id="ytick_22">
     <g id="line2d_57">
      <path d="M 467.857187 580.25184 
L 848.627187 580.25184 
" clip-path="url(#pef1c441a9e)" style="fill: none; stroke: #cccccc; stroke-width: 0.8; stroke-linecap: round"/>
     </g>
     <g id="text_61">
      <!-- 50 -->
      <g style="fill: #262626" transform="translate(449.735312 583.830746) scale(0.1 -0.1)">
       <use xlink:href="#ArialMT-35"/>
       <use xlink:href="#ArialMT-30" transform="translate(55.615234 0)"/>
      </g>
     </g>
    </g>
    <g id="ytick_23">
     <g id="line2d_58">
      <path d="M 467.857187 539.937987 
L 848.627187 539.937987 
" clip-path="url(#pef1c441a9e)" style="fill: none; stroke: #cccccc; stroke-width: 0.8; stroke-linecap: round"/>
     </g>
     <g id="text_62">
      <!-- 75 -->
      <g style="fill: #262626" transform="translate(449.735312 543.516893) scale(0.1 -0.1)">
       <defs>
        <path id="ArialMT-37" d="M 303 3981 
L 303 4522 
L 3269 4522 
L 3269 4084 
Q 2831 3619 2401 2847 
Q 1972 2075 1738 1259 
Q 1569 684 1522 0 
L 944 0 
Q 953 541 1156 1306 
Q 1359 2072 1739 2783 
Q 2119 3494 2547 3981 
L 303 3981 
z
" transform="scale(0.015625)"/>
       </defs>
       <use xlink:href="#ArialMT-37"/>
       <use xlink:href="#ArialMT-35" transform="translate(55.615234 0)"/>
      </g>
     </g>
    </g>
    <g id="ytick_24">
     <g id="line2d_59">
      <path d="M 467.857187 499.624134 
L 848.627187 499.624134 
" clip-path="url(#pef1c441a9e)" style="fill: none; stroke: #cccccc; stroke-width: 0.8; stroke-linecap: round"/>
     </g>
     <g id="text_63">
      <!-- 100 -->
      <g style="fill: #262626" transform="translate(444.174375 503.20304) scale(0.1 -0.1)">
       <use xlink:href="#ArialMT-31"/>
       <use xlink:href="#ArialMT-30" transform="translate(55.615234 0)"/>
       <use xlink:href="#ArialMT-30" transform="translate(111.230469 0)"/>
      </g>
     </g>
    </g>
    <g id="ytick_25">
     <g id="line2d_60">
      <path d="M 467.857187 459.310281 
L 848.627187 459.310281 
" clip-path="url(#pef1c441a9e)" style="fill: none; stroke: #cccccc; stroke-width: 0.8; stroke-linecap: round"/>
     </g>
     <g id="text_64">
      <!-- 125 -->
      <g style="fill: #262626" transform="translate(444.174375 462.889188) scale(0.1 -0.1)">
       <use xlink:href="#ArialMT-31"/>
       <use xlink:href="#ArialMT-32" transform="translate(55.615234 0)"/>
       <use xlink:href="#ArialMT-35" transform="translate(111.230469 0)"/>
      </g>
     </g>
    </g>
    <g id="ytick_26">
     <g id="line2d_61">
      <path d="M 467.857187 418.996429 
L 848.627187 418.996429 
" clip-path="url(#pef1c441a9e)" style="fill: none; stroke: #cccccc; stroke-width: 0.8; stroke-linecap: round"/>
     </g>
     <g id="text_65">
      <!-- 150 -->
      <g style="fill: #262626" transform="translate(444.174375 422.575335) scale(0.1 -0.1)">
       <use xlink:href="#ArialMT-31"/>
       <use xlink:href="#ArialMT-35" transform="translate(55.615234 0)"/>
       <use xlink:href="#ArialMT-30" transform="translate(111.230469 0)"/>
      </g>
     </g>
    </g>
    <g id="ytick_27">
     <g id="line2d_62">
      <path d="M 467.857187 378.682576 
L 848.627187 378.682576 
" clip-path="url(#pef1c441a9e)" style="fill: none; stroke: #cccccc; stroke-width: 0.8; stroke-linecap: round"/>
     </g>
     <g id="text_66">
      <!-- 175 -->
      <g style="fill: #262626" transform="translate(444.174375 382.261482) scale(0.1 -0.1)">
       <use xlink:href="#ArialMT-31"/>
       <use xlink:href="#ArialMT-37" transform="translate(55.615234 0)"/>
       <use xlink:href="#ArialMT-35" transform="translate(111.230469 0)"/>
      </g>
     </g>
    </g>
    <g id="text_67">
     <!-- Nombre de nombres premiers -->
     <g style="fill: #262626" transform="translate(438.186875 591.833594) rotate(-90) scale(0.1 -0.1)">
      <use xlink:href="#ArialMT-4e"/>
      <use xlink:href="#ArialMT-6f" transform="translate(72.216797 0)"/>
      <use xlink:href="#ArialMT-6d" transform="translate(127.832031 0)"/>
      <use xlink:href="#ArialMT-62" transform="translate(211.132812 0)"/>
      <use xlink:href="#ArialMT-72" transform="translate(266.748047 0)"/>
      <use xlink:href="#ArialMT-65" transform="translate(300.048828 0)"/>
      <use xlink:href="#ArialMT-20" transform="translate(355.664062 0)"/>
      <use xlink:href="#ArialMT-64" transform="translate(383.447266 0)"/>
      <use xlink:href="#ArialMT-65" transform="translate(439.0625 0)"/>
      <use xlink:href="#ArialMT-20" transform="translate(494.677734 0)"/>
      <use xlink:href="#ArialMT-6e" transform="translate(522.460938 0)"/>
      <use xlink:href="#ArialMT-6f" transform="translate(578.076172 0)"/>
      <use xlink:href="#ArialMT-6d" transform="translate(633.691406 0)"/>
      <use xlink:href="#ArialMT-62" transform="translate(716.992188 0)"/>
      <use xlink:href="#ArialMT-72" transform="translate(772.607422 0)"/>
      <use xlink:href="#ArialMT-65" transform="translate(805.908203 0)"/>
      <use xlink:href="#ArialMT-73" transform="translate(861.523438 0)"/>
      <use xlink:href="#ArialMT-20" transform="translate(911.523438 0)"/>
      <use xlink:href="#ArialMT-70" transform="translate(939.306641 0)"/>
      <use xlink:href="#ArialMT-72" transform="translate(994.921875 0)"/>
      <use xlink:href="#ArialMT-65" transform="translate(1028.222656 0)"/>
      <use xlink:href="#ArialMT-6d" transform="translate(1083.837891 0)"/>
      <use xlink:href="#ArialMT-69" transform="translate(1167.138672 0)"/>
      <use xlink:href="#ArialMT-65" transform="translate(1189.355469 0)"/>
      <use xlink:href="#ArialMT-72" transform="translate(1244.970703 0)"/>
      <use xlink:href="#ArialMT-73" transform="translate(1278.271484 0)"/>
     </g>
    </g>
   </g>
   <g id="line2d_63">
    <path d="M 485.164915 660.879545 
L 485.857917 657.654437 
L 486.204418 657.654437 
L 486.550919 656.041883 
L 486.89742 656.041883 
L 487.243921 654.429329 
L 488.283424 654.429329 
L 488.629925 652.816775 
L 488.976426 652.816775 
L 489.322927 651.204221 
L 490.36243 651.204221 
L 490.708932 649.591667 
L 491.055433 649.591667 
L 491.401934 647.979113 
L 492.441437 647.979113 
L 492.787938 646.366558 
L 494.520443 646.366558 
L 494.866944 644.754004 
L 495.213445 644.754004 
L 495.559946 643.14145 
L 497.292451 643.14145 
L 497.638952 641.528896 
L 498.678456 641.528896 
L 499.024957 639.916342 
L 499.371458 639.916342 
L 499.717959 638.303788 
L 500.757462 638.303788 
L 501.103963 636.691234 
L 502.836468 636.691234 
L 503.182969 635.07868 
L 504.915474 635.07868 
L 505.261975 633.466126 
L 505.608477 633.466126 
L 505.954978 631.853571 
L 507.687483 631.853571 
L 508.033984 630.241017 
L 509.073487 630.241017 
L 509.419988 628.628463 
L 509.766489 628.628463 
L 510.11299 627.015909 
L 511.845495 627.015909 
L 512.191996 625.403355 
L 513.2315 625.403355 
L 513.578001 623.790801 
L 515.310506 623.790801 
L 515.657007 622.178247 
L 518.082514 622.178247 
L 518.429015 620.565693 
L 519.468518 620.565693 
L 519.815019 618.953139 
L 520.16152 618.953139 
L 520.508022 617.340584 
L 521.547525 617.340584 
L 521.894026 615.72803 
L 522.240527 615.72803 
L 522.587028 614.115476 
L 523.626531 614.115476 
L 523.973032 612.502922 
L 528.477546 612.502922 
L 528.824047 610.890368 
L 529.86355 610.890368 
L 530.210051 609.277814 
L 531.942556 609.277814 
L 532.289057 607.66526 
L 532.635558 607.66526 
L 532.982059 606.052706 
L 536.100569 606.052706 
L 536.44707 604.440152 
L 536.793571 604.440152 
L 537.140072 602.827597 
L 538.872577 602.827597 
L 539.219078 601.215043 
L 540.951583 601.215043 
L 541.298084 599.602489 
L 542.337587 599.602489 
L 542.684088 597.989935 
L 544.416594 597.989935 
L 544.763095 596.377381 
L 546.4956 596.377381 
L 546.842101 594.764827 
L 547.188602 594.764827 
L 547.535103 593.152273 
L 550.653613 593.152273 
L 551.000114 591.539719 
L 551.346615 591.539719 
L 551.693116 589.927165 
L 552.732619 589.927165 
L 553.07912 588.31461 
L 553.425621 588.31461 
L 553.772122 586.702056 
L 557.583633 586.702056 
L 557.930135 585.089502 
L 561.741646 585.089502 
L 562.088147 583.476948 
L 563.12765 583.476948 
L 563.474151 581.864394 
L 563.820652 581.864394 
L 564.167153 580.25184 
L 565.206657 580.25184 
L 565.553158 578.639286 
L 567.285663 578.639286 
L 567.632164 577.026732 
L 567.978665 577.026732 
L 568.325166 575.414177 
L 571.443675 575.414177 
L 571.790176 573.801623 
L 573.522682 573.801623 
L 573.869183 572.189069 
L 575.601688 572.189069 
L 575.948189 570.576515 
L 577.680694 570.576515 
L 578.027195 568.963961 
L 578.373696 568.963961 
L 578.720197 567.351407 
L 580.452703 567.351407 
L 580.799204 565.738853 
L 581.838707 565.738853 
L 582.185208 564.126299 
L 582.531709 564.126299 
L 582.87821 562.513745 
L 585.996719 562.513745 
L 586.34322 560.90119 
L 590.847734 560.90119 
L 591.194235 559.288636 
L 592.233738 559.288636 
L 592.580239 557.676082 
L 592.92674 557.676082 
L 593.273241 556.063528 
L 594.312744 556.063528 
L 594.659245 554.450974 
L 599.163759 554.450974 
L 599.51026 552.83842 
L 601.242765 552.83842 
L 601.589266 551.225866 
L 604.707776 551.225866 
L 605.054277 549.613312 
L 605.400778 549.613312 
L 605.747279 548.000758 
L 606.786782 548.000758 
L 607.133283 546.388203 
L 608.865788 546.388203 
L 609.212289 544.775649 
L 611.637797 544.775649 
L 611.984298 543.163095 
L 613.716803 543.163095 
L 614.063304 541.550541 
L 615.795809 541.550541 
L 616.14231 539.937987 
L 617.181813 539.937987 
L 617.528315 538.325433 
L 619.26082 538.325433 
L 619.607321 536.712879 
L 622.032828 536.712879 
L 622.379329 535.100325 
L 623.418832 535.100325 
L 623.765333 533.487771 
L 626.190841 533.487771 
L 626.537342 531.875216 
L 629.655851 531.875216 
L 630.002352 530.262662 
L 630.348853 530.262662 
L 630.695354 528.650108 
L 633.813864 528.650108 
L 634.160365 527.037554 
L 634.506866 527.037554 
L 634.853367 525.425 
L 636.585872 525.425 
L 636.932373 523.812446 
L 637.971876 523.812446 
L 638.318377 522.199892 
L 640.050883 522.199892 
L 640.397384 520.587338 
L 642.822891 520.587338 
L 643.169392 518.974784 
L 644.208895 518.974784 
L 644.555396 517.362229 
L 644.901897 517.362229 
L 645.248398 515.749675 
L 646.287901 515.749675 
L 646.634402 514.137121 
L 650.445914 514.137121 
L 650.792415 512.524567 
L 653.217922 512.524567 
L 653.564423 510.912013 
L 654.603927 510.912013 
L 654.950428 509.299459 
L 657.375935 509.299459 
L 657.722436 507.686905 
L 658.761939 507.686905 
L 659.10844 506.074351 
L 660.840945 506.074351 
L 661.187446 504.461797 
L 664.998958 504.461797 
L 665.345459 502.849242 
L 665.69196 502.849242 
L 666.038461 501.236688 
L 671.928979 501.236688 
L 672.27548 499.624134 
L 674.007985 499.624134 
L 674.354486 498.01158 
L 677.472996 498.01158 
L 677.819497 496.399026 
L 679.552002 496.399026 
L 679.898503 494.786472 
L 681.631008 494.786472 
L 681.977509 493.173918 
L 682.32401 493.173918 
L 682.670511 491.561364 
L 684.403017 491.561364 
L 684.749518 489.94881 
L 687.868027 489.94881 
L 688.214528 488.336255 
L 689.947033 488.336255 
L 690.293534 486.723701 
L 692.02604 486.723701 
L 692.372541 485.111147 
L 692.719042 485.111147 
L 693.065543 483.498593 
L 694.798048 483.498593 
L 695.144549 481.886039 
L 696.877054 481.886039 
L 697.223555 480.273485 
L 698.263058 480.273485 
L 698.609559 478.660931 
L 698.95606 478.660931 
L 699.302562 477.048377 
L 703.114073 477.048377 
L 703.460574 475.435823 
L 706.579083 475.435823 
L 706.925585 473.823268 
L 707.272086 473.823268 
L 707.618587 472.210714 
L 708.65809 472.210714 
L 709.004591 470.59816 
L 710.737096 470.59816 
L 711.083597 468.985606 
L 712.816102 468.985606 
L 713.162603 467.373052 
L 713.509104 467.373052 
L 713.855605 465.760498 
L 717.667117 465.760498 
L 718.013618 464.147944 
L 719.053121 464.147944 
L 719.399622 462.53539 
L 721.132127 462.53539 
L 721.478628 460.922835 
L 723.904136 460.922835 
L 724.250637 459.310281 
L 727.369146 459.310281 
L 727.715647 457.697727 
L 730.141155 457.697727 
L 730.487656 456.085173 
L 733.606165 456.085173 
L 733.952666 454.472619 
L 736.378173 454.472619 
L 736.724675 452.860065 
L 738.45718 452.860065 
L 738.803681 451.247511 
L 740.536186 451.247511 
L 740.882687 449.634957 
L 741.92219 449.634957 
L 742.268691 448.022403 
L 744.694199 448.022403 
L 745.0407 446.409848 
L 746.773205 446.409848 
L 747.119706 444.797294 
L 748.159209 444.797294 
L 748.50571 443.18474 
L 750.931217 443.18474 
L 751.277718 441.572186 
L 752.317222 441.572186 
L 752.663723 439.959632 
L 757.168236 439.959632 
L 757.514737 438.347078 
L 760.633247 438.347078 
L 760.979748 436.734524 
L 764.791259 436.734524 
L 765.13776 435.12197 
L 765.484261 435.12197 
L 765.830762 433.509416 
L 768.949272 433.509416 
L 769.295773 431.896861 
L 769.642274 431.896861 
L 769.988775 430.284307 
L 771.028278 430.284307 
L 771.374779 428.671753 
L 771.72128 428.671753 
L 772.067781 427.059199 
L 775.186291 427.059199 
L 775.532792 425.446645 
L 780.037305 425.446645 
L 780.383806 423.834091 
L 781.42331 423.834091 
L 781.769811 422.221537 
L 782.116312 422.221537 
L 782.462813 420.608983 
L 783.502316 420.608983 
L 783.848817 418.996429 
L 788.35333 418.996429 
L 788.699832 417.383874 
L 789.739335 417.383874 
L 790.085836 415.77132 
L 790.432337 415.77132 
L 790.778838 414.158766 
L 791.818341 414.158766 
L 792.164842 412.546212 
L 798.748362 412.546212 
L 799.094863 410.933658 
L 800.134366 410.933658 
L 800.480867 409.321104 
L 802.906374 409.321104 
L 803.252875 407.70855 
L 806.371385 407.70855 
L 806.717886 406.095996 
L 809.143393 406.095996 
L 809.489894 404.483442 
L 810.529397 404.483442 
L 810.875898 402.870887 
L 812.608404 402.870887 
L 812.954905 401.258333 
L 814.68741 401.258333 
L 815.033911 399.645779 
L 819.538425 399.645779 
L 819.884926 398.033225 
L 820.924429 398.033225 
L 821.27093 396.420671 
L 823.003435 396.420671 
L 823.349936 394.808117 
L 825.082441 394.808117 
L 825.428942 393.195563 
L 827.85445 393.195563 
L 828.200951 391.583009 
L 829.933456 391.583009 
L 830.279957 389.970455 
L 831.31946 389.970455 
L 831.31946 389.970455 
" clip-path="url(#pef1c441a9e)" style="fill: none; stroke: #004c9e; stroke-width: 1.5; stroke-linecap: round"/>
   </g>
   <g id="line2d_64">
    <path d="M 485.511416 656.226698 
L 485.857917 656.476115 
L 486.550919 655.869864 
L 492.441437 649.40245 
L 496.599449 645.331833 
L 501.796965 640.576668 
L 508.033984 635.184177 
L 515.657007 628.906067 
L 524.319533 622.065469 
L 534.368063 614.415218 
L 545.802598 605.989225 
L 558.969638 596.569422 
L 573.522682 586.433983 
L 589.808231 575.365589 
L 607.826285 563.392279 
L 627.576845 550.537456 
L 649.05991 536.820963 
L 672.621981 522.044375 
L 697.916557 506.444928 
L 725.29014 489.826072 
L 754.742729 472.207637 
L 786.274324 453.607109 
L 819.884926 434.040034 
L 831.31946 427.438428 
L 831.31946 427.438428 
" clip-path="url(#pef1c441a9e)" style="fill: none; stroke-dasharray: 5.55,2.4; stroke-dashoffset: 0; stroke: #11976a; stroke-width: 1.5"/>
   </g>
   <g id="patch_21">
    <path d="M 467.857187 674.425 
L 467.857187 376.425 
" style="fill: none; stroke: #cccccc; stroke-width: 0.8; stroke-linejoin: miter; stroke-linecap: square"/>
   </g>
   <g id="patch_22">
    <path d="M 848.627187 674.425 
L 848.627187 376.425 
" style="fill: none; stroke: #cccccc; stroke-width: 0.8; stroke-linejoin: miter; stroke-linecap: square"/>
   </g>
   <g id="patch_23">
    <path d="M 467.857187 674.425 
L 848.627187 674.425 
" style="fill: none; stroke: #cccccc; stroke-width: 0.8; stroke-linejoin: miter; stroke-linecap: square"/>
   </g>
   <g id="patch_24">
    <path d="M 467.857187 376.425 
L 848.627187 376.425 
" style="fill: none; stroke: #cccccc; stroke-width: 0.8; stroke-linejoin: miter; stroke-linecap: square"/>
   </g>
   <g id="text_68">
    <!-- Nombre de nombres premiers ≤ 1000 -->
    <g style="fill: #262626" transform="translate(558.578437 370.425) scale(0.12 -0.12)">
     <use xlink:href="#ArialMT-4e"/>
     <use xlink:href="#ArialMT-6f" transform="translate(72.216797 0)"/>
     <use xlink:href="#ArialMT-6d" transform="translate(127.832031 0)"/>
     <use xlink:href="#ArialMT-62" transform="translate(211.132812 0)"/>
     <use xlink:href="#ArialMT-72" transform="translate(266.748047 0)"/>
     <use xlink:href="#ArialMT-65" transform="translate(300.048828 0)"/>
     <use xlink:href="#ArialMT-20" transform="translate(355.664062 0)"/>
     <use xlink:href="#ArialMT-64" transform="translate(383.447266 0)"/>
     <use xlink:href="#ArialMT-65" transform="translate(439.0625 0)"/>
     <use xlink:href="#ArialMT-20" transform="translate(494.677734 0)"/>
     <use xlink:href="#ArialMT-6e" transform="translate(522.460938 0)"/>
     <use xlink:href="#ArialMT-6f" transform="translate(578.076172 0)"/>
     <use xlink:href="#ArialMT-6d" transform="translate(633.691406 0)"/>
     <use xlink:href="#ArialMT-62" transform="translate(716.992188 0)"/>
     <use xlink:href="#ArialMT-72" transform="translate(772.607422 0)"/>
     <use xlink:href="#ArialMT-65" transform="translate(805.908203 0)"/>
     <use xlink:href="#ArialMT-73" transform="translate(861.523438 0)"/>
     <use xlink:href="#ArialMT-20" transform="translate(911.523438 0)"/>
     <use xlink:href="#ArialMT-70" transform="translate(939.306641 0)"/>
     <use xlink:href="#ArialMT-72" transform="translate(994.921875 0)"/>
     <use xlink:href="#ArialMT-65" transform="translate(1028.222656 0)"/>
     <use xlink:href="#ArialMT-6d" transform="translate(1083.837891 0)"/>
     <use xlink:href="#ArialMT-69" transform="translate(1167.138672 0)"/>
     <use xlink:href="#ArialMT-65" transform="translate(1189.355469 0)"/>
     <use xlink:href="#ArialMT-72" transform="translate(1244.970703 0)"/>
     <use xlink:href="#ArialMT-73" transform="translate(1278.271484 0)"/>
     <use xlink:href="#ArialMT-20" transform="translate(1328.271484 0)"/>
     <use xlink:href="#ArialMT-2264" transform="translate(1356.054688 0)"/>
     <use xlink:href="#ArialMT-20" transform="translate(1410.9375 0)"/>
     <use xlink:href="#ArialMT-31" transform="translate(1438.720703 0)"/>
     <use xlink:href="#ArialMT-30" transform="translate(1494.335938 0)"/>
     <use xlink:href="#ArialMT-30" transform="translate(1549.951172 0)"/>
     <use xlink:href="#ArialMT-30" transform="translate(1605.566406 0)"/>
    </g>
   </g>
   <g id="legend_4">
    <g id="patch_25">
     <path d="M 474.857187 417.5 
L 672.963437 417.5 
Q 674.963437 417.5 674.963437 415.5 
L 674.963437 383.425 
Q 674.963437 381.425 672.963437 381.425 
L 474.857187 381.425 
Q 472.857187 381.425 472.857187 383.425 
L 472.857187 415.5 
Q 472.857187 417.5 474.857187 417.5 
z
" style="fill: #ffffff; opacity: 0.8; stroke: #cccccc; stroke-linejoin: miter"/>
    </g>
    <g id="line2d_65">
     <path d="M 476.857187 389.1125 
L 486.857187 389.1125 
L 496.857187 389.1125 
" style="fill: none; stroke: #004c9e; stroke-width: 1.5; stroke-linecap: round"/>
    </g>
    <g id="text_69">
     <!-- Nombre de nombres premiers ≤ 1000 -->
     <g style="fill: #262626" transform="translate(504.857187 392.6125) scale(0.1 -0.1)">
      <use xlink:href="#ArialMT-4e"/>
      <use xlink:href="#ArialMT-6f" transform="translate(72.216797 0)"/>
      <use xlink:href="#ArialMT-6d" transform="translate(127.832031 0)"/>
      <use xlink:href="#ArialMT-62" transform="translate(211.132812 0)"/>
      <use xlink:href="#ArialMT-72" transform="translate(266.748047 0)"/>
      <use xlink:href="#ArialMT-65" transform="translate(300.048828 0)"/>
      <use xlink:href="#ArialMT-20" transform="translate(355.664062 0)"/>
      <use xlink:href="#ArialMT-64" transform="translate(383.447266 0)"/>
      <use xlink:href="#ArialMT-65" transform="translate(439.0625 0)"/>
      <use xlink:href="#ArialMT-20" transform="translate(494.677734 0)"/>
      <use xlink:href="#ArialMT-6e" transform="translate(522.460938 0)"/>
      <use xlink:href="#ArialMT-6f" transform="translate(578.076172 0)"/>
      <use xlink:href="#ArialMT-6d" transform="translate(633.691406 0)"/>
      <use xlink:href="#ArialMT-62" transform="translate(716.992188 0)"/>
      <use xlink:href="#ArialMT-72" transform="translate(772.607422 0)"/>
      <use xlink:href="#ArialMT-65" transform="translate(805.908203 0)"/>
      <use xlink:href="#ArialMT-73" transform="translate(861.523438 0)"/>
      <use xlink:href="#ArialMT-20" transform="translate(911.523438 0)"/>
      <use xlink:href="#ArialMT-70" transform="translate(939.306641 0)"/>
      <use xlink:href="#ArialMT-72" transform="translate(994.921875 0)"/>
      <use xlink:href="#ArialMT-65" transform="translate(1028.222656 0)"/>
      <use xlink:href="#ArialMT-6d" transform="translate(1083.837891 0)"/>
      <use xlink:href="#ArialMT-69" transform="translate(1167.138672 0)"/>
      <use xlink:href="#ArialMT-65" transform="translate(1189.355469 0)"/>
      <use xlink:href="#ArialMT-72" transform="translate(1244.970703 0)"/>
      <use xlink:href="#ArialMT-73" transform="translate(1278.271484 0)"/>
      <use xlink:href="#ArialMT-20" transform="translate(1328.271484 0)"/>
      <use xlink:href="#ArialMT-2264" transform="translate(1356.054688 0)"/>
      <use xlink:href="#ArialMT-20" transform="translate(1410.9375 0)"/>
      <use xlink:href="#ArialMT-31" transform="translate(1438.720703 0)"/>
      <use xlink:href="#ArialMT-30" transform="translate(1494.335938 0)"/>
      <use xlink:href="#ArialMT-30" transform="translate(1549.951172 0)"/>
      <use xlink:href="#ArialMT-30" transform="translate(1605.566406 0)"/>
     </g>
    </g>
    <g id="line2d_66">
     <path d="M 476.857187 404.4 
L 486.857187 404.4 
L 496.857187 404.4 
" style="fill: none; stroke-dasharray: 5.55,2.4; stroke-dashoffset: 0; stroke: #11976a; stroke-width: 1.5"/>
    </g>
    <g id="text_70">
     <!-- $\frac{x}{\log(x)}$ -->
     <g style="fill: #262626" transform="translate(504.857187 407.9) scale(0.1 -0.1)">
      <use xlink:href="#DejaVuSans-Oblique-78" transform="translate(81 44.71875) scale(0.7)"/>
      <use xlink:href="#DejaVuSans-6c" transform="translate(0 -39.720313) scale(0.7)"/>
      <use xlink:href="#DejaVuSans-6f" transform="translate(19.448242 -39.720313) scale(0.7)"/>
      <use xlink:href="#DejaVuSans-67" transform="translate(62.275391 -39.720313) scale(0.7)"/>
      <use xlink:href="#DejaVuSans-28" transform="translate(106.708984 -39.720313) scale(0.7)"/>
      <use xlink:href="#DejaVuSans-Oblique-78" transform="translate(134.018555 -39.720313) scale(0.7)"/>
      <use xlink:href="#DejaVuSans-29" transform="translate(175.444336 -39.720313) scale(0.7)"/>
      <path d="M 0 19.71875 
L 0 25.96875 
L 202.753906 25.96875 
L 202.753906 19.71875 
L 0 19.71875 
z
"/>
     </g>
    </g>
   </g>
  </g>
 </g>
 <defs>
  <clipPath id="p6861ffeb00">
   <rect x="38.467188" y="21.825" width="380.77" height="298"/>
  </clipPath>
  <clipPath id="p9a74323574">
   <rect x="467.857187" y="21.825" width="380.77" height="298"/>
  </clipPath>
  <clipPath id="pec7b4f6620">
   <rect x="38.467188" y="376.425" width="380.77" height="298"/>
  </clipPath>
  <clipPath id="pef1c441a9e">
   <rect x="467.857187" y="376.425" width="380.77" height="298"/>
  </clipPath>
 </defs>
</svg>
