<?xml version="1.0" encoding="utf-8" standalone="no"?>
<!DOCTYPE svg PUBLIC "-//W3C//DTD SVG 1.1//EN"
  "http://www.w3.org/Graphics/SVG/1.1/DTD/svg11.dtd">
<svg xmlns:xlink="http://www.w3.org/1999/xlink" width="855.815312pt" height="710.915625pt" viewBox="0 0 855.815312 710.915625" xmlns="http://www.w3.org/2000/svg" version="1.1">
 <metadata>
  <rdf:RDF xmlns:dc="http://purl.org/dc/elements/1.1/" xmlns:cc="http://creativecommons.org/ns#" xmlns:rdf="http://www.w3.org/1999/02/22-rdf-syntax-ns#">
   <cc:Work>
    <dc:type rdf:resource="http://purl.org/dc/dcmitype/StillImage"/>
    <dc:date>2025-06-15T18:49:22.189245</dc:date>
    <dc:format>image/svg+xml</dc:format>
    <dc:creator>
     <cc:Agent>
      <dc:title>Matplotlib v3.10.3, https://matplotlib.org/</dc:title>
     </cc:Agent>
    </dc:creator>
   </cc:Work>
  </rdf:RDF>
 </metadata>
 <defs>
  <style type="text/css">*{stroke-linejoin: round; stroke-linecap: butt}</style>
 </defs>
 <g id="figure_1">
  <g id="patch_1">
   <path d="M 0 710.915625 
L 855.815312 710.915625 
L 855.815312 0 
L 0 0 
z
" style="fill: #ffffff"/>
  </g>
  <g id="axes_1">
   <g id="patch_2">
    <path d="M 41.245313 319.825 
L 420.620313 319.825 
L 420.620313 21.825 
L 41.245313 21.825 
z
" style="fill: #ffffff"/>
   </g>
   <g id="matplotlib.axis_1">
    <g id="xtick_1">
     <g id="line2d_1">
      <path d="M 96.810338 319.825 
L 96.810338 21.825 
" clip-path="url(#p0961515fd9)" style="fill: none; stroke: #cccccc; stroke-width: 0.8; stroke-linecap: round"/>
     </g>
     <g id="text_1">
      <!-- 2 -->
      <g style="fill: #262626" transform="translate(94.029869 333.982812) scale(0.1 -0.1)">
       <defs>
        <path id="ArialMT-32" d="M 3222 541 
L 3222 0 
L 194 0 
Q 188 203 259 391 
Q 375 700 629 1000 
Q 884 1300 1366 1694 
Q 2113 2306 2375 2664 
Q 2638 3022 2638 3341 
Q 2638 3675 2398 3904 
Q 2159 4134 1775 4134 
Q 1369 4134 1125 3890 
Q 881 3647 878 3216 
L 300 3275 
Q 359 3922 746 4261 
Q 1134 4600 1788 4600 
Q 2447 4600 2831 4234 
Q 3216 3869 3216 3328 
Q 3216 3053 3103 2787 
Q 2991 2522 2730 2228 
Q 2469 1934 1863 1422 
Q 1356 997 1212 845 
Q 1069 694 975 541 
L 3222 541 
z
" transform="scale(0.015625)"/>
       </defs>
       <use xlink:href="#ArialMT-32"/>
      </g>
     </g>
    </g>
    <g id="xtick_2">
     <g id="line2d_2">
      <path d="M 173.451752 319.825 
L 173.451752 21.825 
" clip-path="url(#p0961515fd9)" style="fill: none; stroke: #cccccc; stroke-width: 0.8; stroke-linecap: round"/>
     </g>
     <g id="text_2">
      <!-- 4 -->
      <g style="fill: #262626" transform="translate(170.671283 333.982812) scale(0.1 -0.1)">
       <defs>
        <path id="ArialMT-34" d="M 2069 0 
L 2069 1097 
L 81 1097 
L 81 1613 
L 2172 4581 
L 2631 4581 
L 2631 1613 
L 3250 1613 
L 3250 1097 
L 2631 1097 
L 2631 0 
L 2069 0 
z
M 2069 1613 
L 2069 3678 
L 634 1613 
L 2069 1613 
z
" transform="scale(0.015625)"/>
       </defs>
       <use xlink:href="#ArialMT-34"/>
      </g>
     </g>
    </g>
    <g id="xtick_3">
     <g id="line2d_3">
      <path d="M 250.093166 319.825 
L 250.093166 21.825 
" clip-path="url(#p0961515fd9)" style="fill: none; stroke: #cccccc; stroke-width: 0.8; stroke-linecap: round"/>
     </g>
     <g id="text_3">
      <!-- 6 -->
      <g style="fill: #262626" transform="translate(247.312697 333.982812) scale(0.1 -0.1)">
       <defs>
        <path id="ArialMT-36" d="M 3184 3459 
L 2625 3416 
Q 2550 3747 2413 3897 
Q 2184 4138 1850 4138 
Q 1581 4138 1378 3988 
Q 1113 3794 959 3422 
Q 806 3050 800 2363 
Q 1003 2672 1297 2822 
Q 1591 2972 1913 2972 
Q 2475 2972 2870 2558 
Q 3266 2144 3266 1488 
Q 3266 1056 3080 686 
Q 2894 316 2569 119 
Q 2244 -78 1831 -78 
Q 1128 -78 684 439 
Q 241 956 241 2144 
Q 241 3472 731 4075 
Q 1159 4600 1884 4600 
Q 2425 4600 2770 4297 
Q 3116 3994 3184 3459 
z
M 888 1484 
Q 888 1194 1011 928 
Q 1134 663 1356 523 
Q 1578 384 1822 384 
Q 2178 384 2434 671 
Q 2691 959 2691 1453 
Q 2691 1928 2437 2201 
Q 2184 2475 1800 2475 
Q 1419 2475 1153 2201 
Q 888 1928 888 1484 
z
" transform="scale(0.015625)"/>
       </defs>
       <use xlink:href="#ArialMT-36"/>
      </g>
     </g>
    </g>
    <g id="xtick_4">
     <g id="line2d_4">
      <path d="M 326.73458 319.825 
L 326.73458 21.825 
" clip-path="url(#p0961515fd9)" style="fill: none; stroke: #cccccc; stroke-width: 0.8; stroke-linecap: round"/>
     </g>
     <g id="text_4">
      <!-- 8 -->
      <g style="fill: #262626" transform="translate(323.954111 333.982812) scale(0.1 -0.1)">
       <defs>
        <path id="ArialMT-38" d="M 1131 2484 
Q 781 2613 612 2850 
Q 444 3088 444 3419 
Q 444 3919 803 4259 
Q 1163 4600 1759 4600 
Q 2359 4600 2725 4251 
Q 3091 3903 3091 3403 
Q 3091 3084 2923 2848 
Q 2756 2613 2416 2484 
Q 2838 2347 3058 2040 
Q 3278 1734 3278 1309 
Q 3278 722 2862 322 
Q 2447 -78 1769 -78 
Q 1091 -78 675 323 
Q 259 725 259 1325 
Q 259 1772 486 2073 
Q 713 2375 1131 2484 
z
M 1019 3438 
Q 1019 3113 1228 2906 
Q 1438 2700 1772 2700 
Q 2097 2700 2305 2904 
Q 2513 3109 2513 3406 
Q 2513 3716 2298 3927 
Q 2084 4138 1766 4138 
Q 1444 4138 1231 3931 
Q 1019 3725 1019 3438 
z
M 838 1322 
Q 838 1081 952 856 
Q 1066 631 1291 507 
Q 1516 384 1775 384 
Q 2178 384 2440 643 
Q 2703 903 2703 1303 
Q 2703 1709 2433 1975 
Q 2163 2241 1756 2241 
Q 1359 2241 1098 1978 
Q 838 1716 838 1322 
z
" transform="scale(0.015625)"/>
       </defs>
       <use xlink:href="#ArialMT-38"/>
      </g>
     </g>
    </g>
    <g id="xtick_5">
     <g id="line2d_5">
      <path d="M 403.375994 319.825 
L 403.375994 21.825 
" clip-path="url(#p0961515fd9)" style="fill: none; stroke: #cccccc; stroke-width: 0.8; stroke-linecap: round"/>
     </g>
     <g id="text_5">
      <!-- 10 -->
      <g style="fill: #262626" transform="translate(397.815057 333.982812) scale(0.1 -0.1)">
       <defs>
        <path id="ArialMT-31" d="M 2384 0 
L 1822 0 
L 1822 3584 
Q 1619 3391 1289 3197 
Q 959 3003 697 2906 
L 697 3450 
Q 1169 3672 1522 3987 
Q 1875 4303 2022 4600 
L 2384 4600 
L 2384 0 
z
" transform="scale(0.015625)"/>
        <path id="ArialMT-30" d="M 266 2259 
Q 266 3072 433 3567 
Q 600 4063 929 4331 
Q 1259 4600 1759 4600 
Q 2128 4600 2406 4451 
Q 2684 4303 2865 4023 
Q 3047 3744 3150 3342 
Q 3253 2941 3253 2259 
Q 3253 1453 3087 958 
Q 2922 463 2592 192 
Q 2263 -78 1759 -78 
Q 1097 -78 719 397 
Q 266 969 266 2259 
z
M 844 2259 
Q 844 1131 1108 757 
Q 1372 384 1759 384 
Q 2147 384 2411 759 
Q 2675 1134 2675 2259 
Q 2675 3391 2411 3762 
Q 2147 4134 1753 4134 
Q 1366 4134 1134 3806 
Q 844 3388 844 2259 
z
" transform="scale(0.015625)"/>
       </defs>
       <use xlink:href="#ArialMT-31"/>
       <use xlink:href="#ArialMT-30" transform="translate(55.615234 0)"/>
      </g>
     </g>
    </g>
    <g id="text_6">
     <!-- $x$ -->
     <g style="fill: #262626" transform="translate(227.932813 347.128125) scale(0.1 -0.1)">
      <defs>
       <path id="DejaVuSans-Oblique-78" d="M 3841 3500 
L 2234 1784 
L 3219 0 
L 2559 0 
L 1819 1388 
L 531 0 
L -166 0 
L 1556 1844 
L 641 3500 
L 1300 3500 
L 1972 2234 
L 3144 3500 
L 3841 3500 
z
" transform="scale(0.015625)"/>
      </defs>
      <use xlink:href="#DejaVuSans-Oblique-78" transform="translate(0 0.3125)"/>
     </g>
    </g>
   </g>
   <g id="matplotlib.axis_2">
    <g id="ytick_1">
     <g id="line2d_6">
      <path d="M 41.245313 306.279545 
L 420.620313 306.279545 
" clip-path="url(#p0961515fd9)" style="fill: none; stroke: #cccccc; stroke-width: 0.8; stroke-linecap: round"/>
     </g>
     <g id="text_7">
      <!-- 0.0 -->
      <g style="fill: #262626" transform="translate(20.345313 309.858452) scale(0.1 -0.1)">
       <defs>
        <path id="ArialMT-2e" d="M 581 0 
L 581 641 
L 1222 641 
L 1222 0 
L 581 0 
z
" transform="scale(0.015625)"/>
       </defs>
       <use xlink:href="#ArialMT-30"/>
       <use xlink:href="#ArialMT-2e" transform="translate(55.615234 0)"/>
       <use xlink:href="#ArialMT-30" transform="translate(83.398438 0)"/>
      </g>
     </g>
    </g>
    <g id="ytick_2">
     <g id="line2d_7">
      <path d="M 41.245313 272.415909 
L 420.620313 272.415909 
" clip-path="url(#p0961515fd9)" style="fill: none; stroke: #cccccc; stroke-width: 0.8; stroke-linecap: round"/>
     </g>
     <g id="text_8">
      <!-- 0.5 -->
      <g style="fill: #262626" transform="translate(20.345313 275.994815) scale(0.1 -0.1)">
       <defs>
        <path id="ArialMT-35" d="M 266 1200 
L 856 1250 
Q 922 819 1161 601 
Q 1400 384 1738 384 
Q 2144 384 2425 690 
Q 2706 997 2706 1503 
Q 2706 1984 2436 2262 
Q 2166 2541 1728 2541 
Q 1456 2541 1237 2417 
Q 1019 2294 894 2097 
L 366 2166 
L 809 4519 
L 3088 4519 
L 3088 3981 
L 1259 3981 
L 1013 2750 
Q 1425 3038 1878 3038 
Q 2478 3038 2890 2622 
Q 3303 2206 3303 1553 
Q 3303 931 2941 478 
Q 2500 -78 1738 -78 
Q 1113 -78 717 272 
Q 322 622 266 1200 
z
" transform="scale(0.015625)"/>
       </defs>
       <use xlink:href="#ArialMT-30"/>
       <use xlink:href="#ArialMT-2e" transform="translate(55.615234 0)"/>
       <use xlink:href="#ArialMT-35" transform="translate(83.398438 0)"/>
      </g>
     </g>
    </g>
    <g id="ytick_3">
     <g id="line2d_8">
      <path d="M 41.245313 238.552273 
L 420.620313 238.552273 
" clip-path="url(#p0961515fd9)" style="fill: none; stroke: #cccccc; stroke-width: 0.8; stroke-linecap: round"/>
     </g>
     <g id="text_9">
      <!-- 1.0 -->
      <g style="fill: #262626" transform="translate(20.345313 242.131179) scale(0.1 -0.1)">
       <use xlink:href="#ArialMT-31"/>
       <use xlink:href="#ArialMT-2e" transform="translate(55.615234 0)"/>
       <use xlink:href="#ArialMT-30" transform="translate(83.398438 0)"/>
      </g>
     </g>
    </g>
    <g id="ytick_4">
     <g id="line2d_9">
      <path d="M 41.245313 204.688636 
L 420.620313 204.688636 
" clip-path="url(#p0961515fd9)" style="fill: none; stroke: #cccccc; stroke-width: 0.8; stroke-linecap: round"/>
     </g>
     <g id="text_10">
      <!-- 1.5 -->
      <g style="fill: #262626" transform="translate(20.345313 208.267543) scale(0.1 -0.1)">
       <use xlink:href="#ArialMT-31"/>
       <use xlink:href="#ArialMT-2e" transform="translate(55.615234 0)"/>
       <use xlink:href="#ArialMT-35" transform="translate(83.398438 0)"/>
      </g>
     </g>
    </g>
    <g id="ytick_5">
     <g id="line2d_10">
      <path d="M 41.245313 170.825 
L 420.620313 170.825 
" clip-path="url(#p0961515fd9)" style="fill: none; stroke: #cccccc; stroke-width: 0.8; stroke-linecap: round"/>
     </g>
     <g id="text_11">
      <!-- 2.0 -->
      <g style="fill: #262626" transform="translate(20.345313 174.403906) scale(0.1 -0.1)">
       <use xlink:href="#ArialMT-32"/>
       <use xlink:href="#ArialMT-2e" transform="translate(55.615234 0)"/>
       <use xlink:href="#ArialMT-30" transform="translate(83.398438 0)"/>
      </g>
     </g>
    </g>
    <g id="ytick_6">
     <g id="line2d_11">
      <path d="M 41.245313 136.961364 
L 420.620313 136.961364 
" clip-path="url(#p0961515fd9)" style="fill: none; stroke: #cccccc; stroke-width: 0.8; stroke-linecap: round"/>
     </g>
     <g id="text_12">
      <!-- 2.5 -->
      <g style="fill: #262626" transform="translate(20.345313 140.54027) scale(0.1 -0.1)">
       <use xlink:href="#ArialMT-32"/>
       <use xlink:href="#ArialMT-2e" transform="translate(55.615234 0)"/>
       <use xlink:href="#ArialMT-35" transform="translate(83.398438 0)"/>
      </g>
     </g>
    </g>
    <g id="ytick_7">
     <g id="line2d_12">
      <path d="M 41.245313 103.097727 
L 420.620313 103.097727 
" clip-path="url(#p0961515fd9)" style="fill: none; stroke: #cccccc; stroke-width: 0.8; stroke-linecap: round"/>
     </g>
     <g id="text_13">
      <!-- 3.0 -->
      <g style="fill: #262626" transform="translate(20.345313 106.676634) scale(0.1 -0.1)">
       <defs>
        <path id="ArialMT-33" d="M 269 1209 
L 831 1284 
Q 928 806 1161 595 
Q 1394 384 1728 384 
Q 2125 384 2398 659 
Q 2672 934 2672 1341 
Q 2672 1728 2419 1979 
Q 2166 2231 1775 2231 
Q 1616 2231 1378 2169 
L 1441 2663 
Q 1497 2656 1531 2656 
Q 1891 2656 2178 2843 
Q 2466 3031 2466 3422 
Q 2466 3731 2256 3934 
Q 2047 4138 1716 4138 
Q 1388 4138 1169 3931 
Q 950 3725 888 3313 
L 325 3413 
Q 428 3978 793 4289 
Q 1159 4600 1703 4600 
Q 2078 4600 2393 4439 
Q 2709 4278 2876 4000 
Q 3044 3722 3044 3409 
Q 3044 3113 2884 2869 
Q 2725 2625 2413 2481 
Q 2819 2388 3044 2092 
Q 3269 1797 3269 1353 
Q 3269 753 2831 336 
Q 2394 -81 1725 -81 
Q 1122 -81 723 278 
Q 325 638 269 1209 
z
" transform="scale(0.015625)"/>
       </defs>
       <use xlink:href="#ArialMT-33"/>
       <use xlink:href="#ArialMT-2e" transform="translate(55.615234 0)"/>
       <use xlink:href="#ArialMT-30" transform="translate(83.398438 0)"/>
      </g>
     </g>
    </g>
    <g id="ytick_8">
     <g id="line2d_13">
      <path d="M 41.245313 69.234091 
L 420.620313 69.234091 
" clip-path="url(#p0961515fd9)" style="fill: none; stroke: #cccccc; stroke-width: 0.8; stroke-linecap: round"/>
     </g>
     <g id="text_14">
      <!-- 3.5 -->
      <g style="fill: #262626" transform="translate(20.345313 72.812997) scale(0.1 -0.1)">
       <use xlink:href="#ArialMT-33"/>
       <use xlink:href="#ArialMT-2e" transform="translate(55.615234 0)"/>
       <use xlink:href="#ArialMT-35" transform="translate(83.398438 0)"/>
      </g>
     </g>
    </g>
    <g id="ytick_9">
     <g id="line2d_14">
      <path d="M 41.245313 35.370455 
L 420.620313 35.370455 
" clip-path="url(#p0961515fd9)" style="fill: none; stroke: #cccccc; stroke-width: 0.8; stroke-linecap: round"/>
     </g>
     <g id="text_15">
      <!-- 4.0 -->
      <g style="fill: #262626" transform="translate(20.345313 38.949361) scale(0.1 -0.1)">
       <use xlink:href="#ArialMT-34"/>
       <use xlink:href="#ArialMT-2e" transform="translate(55.615234 0)"/>
       <use xlink:href="#ArialMT-30" transform="translate(83.398438 0)"/>
      </g>
     </g>
    </g>
    <g id="text_16">
     <!-- Nombre de nombres premiers -->
     <g style="fill: #262626" transform="translate(14.357813 237.233594) rotate(-90) scale(0.1 -0.1)">
      <defs>
       <path id="ArialMT-4e" d="M 488 0 
L 488 4581 
L 1109 4581 
L 3516 984 
L 3516 4581 
L 4097 4581 
L 4097 0 
L 3475 0 
L 1069 3600 
L 1069 0 
L 488 0 
z
" transform="scale(0.015625)"/>
       <path id="ArialMT-6f" d="M 213 1659 
Q 213 2581 725 3025 
Q 1153 3394 1769 3394 
Q 2453 3394 2887 2945 
Q 3322 2497 3322 1706 
Q 3322 1066 3130 698 
Q 2938 331 2570 128 
Q 2203 -75 1769 -75 
Q 1072 -75 642 372 
Q 213 819 213 1659 
z
M 791 1659 
Q 791 1022 1069 705 
Q 1347 388 1769 388 
Q 2188 388 2466 706 
Q 2744 1025 2744 1678 
Q 2744 2294 2464 2611 
Q 2184 2928 1769 2928 
Q 1347 2928 1069 2612 
Q 791 2297 791 1659 
z
" transform="scale(0.015625)"/>
       <path id="ArialMT-6d" d="M 422 0 
L 422 3319 
L 925 3319 
L 925 2853 
Q 1081 3097 1340 3245 
Q 1600 3394 1931 3394 
Q 2300 3394 2536 3241 
Q 2772 3088 2869 2813 
Q 3263 3394 3894 3394 
Q 4388 3394 4653 3120 
Q 4919 2847 4919 2278 
L 4919 0 
L 4359 0 
L 4359 2091 
Q 4359 2428 4304 2576 
Q 4250 2725 4106 2815 
Q 3963 2906 3769 2906 
Q 3419 2906 3187 2673 
Q 2956 2441 2956 1928 
L 2956 0 
L 2394 0 
L 2394 2156 
Q 2394 2531 2256 2718 
Q 2119 2906 1806 2906 
Q 1569 2906 1367 2781 
Q 1166 2656 1075 2415 
Q 984 2175 984 1722 
L 984 0 
L 422 0 
z
" transform="scale(0.015625)"/>
       <path id="ArialMT-62" d="M 941 0 
L 419 0 
L 419 4581 
L 981 4581 
L 981 2947 
Q 1338 3394 1891 3394 
Q 2197 3394 2470 3270 
Q 2744 3147 2920 2923 
Q 3097 2700 3197 2384 
Q 3297 2069 3297 1709 
Q 3297 856 2875 390 
Q 2453 -75 1863 -75 
Q 1275 -75 941 416 
L 941 0 
z
M 934 1684 
Q 934 1088 1097 822 
Q 1363 388 1816 388 
Q 2184 388 2453 708 
Q 2722 1028 2722 1663 
Q 2722 2313 2464 2622 
Q 2206 2931 1841 2931 
Q 1472 2931 1203 2611 
Q 934 2291 934 1684 
z
" transform="scale(0.015625)"/>
       <path id="ArialMT-72" d="M 416 0 
L 416 3319 
L 922 3319 
L 922 2816 
Q 1116 3169 1280 3281 
Q 1444 3394 1641 3394 
Q 1925 3394 2219 3213 
L 2025 2691 
Q 1819 2813 1613 2813 
Q 1428 2813 1281 2702 
Q 1134 2591 1072 2394 
Q 978 2094 978 1738 
L 978 0 
L 416 0 
z
" transform="scale(0.015625)"/>
       <path id="ArialMT-65" d="M 2694 1069 
L 3275 997 
Q 3138 488 2766 206 
Q 2394 -75 1816 -75 
Q 1088 -75 661 373 
Q 234 822 234 1631 
Q 234 2469 665 2931 
Q 1097 3394 1784 3394 
Q 2450 3394 2872 2941 
Q 3294 2488 3294 1666 
Q 3294 1616 3291 1516 
L 816 1516 
Q 847 969 1125 678 
Q 1403 388 1819 388 
Q 2128 388 2347 550 
Q 2566 713 2694 1069 
z
M 847 1978 
L 2700 1978 
Q 2663 2397 2488 2606 
Q 2219 2931 1791 2931 
Q 1403 2931 1139 2672 
Q 875 2413 847 1978 
z
" transform="scale(0.015625)"/>
       <path id="ArialMT-20" transform="scale(0.015625)"/>
       <path id="ArialMT-64" d="M 2575 0 
L 2575 419 
Q 2259 -75 1647 -75 
Q 1250 -75 917 144 
Q 584 363 401 755 
Q 219 1147 219 1656 
Q 219 2153 384 2558 
Q 550 2963 881 3178 
Q 1213 3394 1622 3394 
Q 1922 3394 2156 3267 
Q 2391 3141 2538 2938 
L 2538 4581 
L 3097 4581 
L 3097 0 
L 2575 0 
z
M 797 1656 
Q 797 1019 1065 703 
Q 1334 388 1700 388 
Q 2069 388 2326 689 
Q 2584 991 2584 1609 
Q 2584 2291 2321 2609 
Q 2059 2928 1675 2928 
Q 1300 2928 1048 2622 
Q 797 2316 797 1656 
z
" transform="scale(0.015625)"/>
       <path id="ArialMT-6e" d="M 422 0 
L 422 3319 
L 928 3319 
L 928 2847 
Q 1294 3394 1984 3394 
Q 2284 3394 2536 3286 
Q 2788 3178 2913 3003 
Q 3038 2828 3088 2588 
Q 3119 2431 3119 2041 
L 3119 0 
L 2556 0 
L 2556 2019 
Q 2556 2363 2490 2533 
Q 2425 2703 2258 2804 
Q 2091 2906 1866 2906 
Q 1506 2906 1245 2678 
Q 984 2450 984 1813 
L 984 0 
L 422 0 
z
" transform="scale(0.015625)"/>
       <path id="ArialMT-73" d="M 197 991 
L 753 1078 
Q 800 744 1014 566 
Q 1228 388 1613 388 
Q 2000 388 2187 545 
Q 2375 703 2375 916 
Q 2375 1106 2209 1216 
Q 2094 1291 1634 1406 
Q 1016 1563 777 1677 
Q 538 1791 414 1992 
Q 291 2194 291 2438 
Q 291 2659 392 2848 
Q 494 3038 669 3163 
Q 800 3259 1026 3326 
Q 1253 3394 1513 3394 
Q 1903 3394 2198 3281 
Q 2494 3169 2634 2976 
Q 2775 2784 2828 2463 
L 2278 2388 
Q 2241 2644 2061 2787 
Q 1881 2931 1553 2931 
Q 1166 2931 1000 2803 
Q 834 2675 834 2503 
Q 834 2394 903 2306 
Q 972 2216 1119 2156 
Q 1203 2125 1616 2013 
Q 2213 1853 2448 1751 
Q 2684 1650 2818 1456 
Q 2953 1263 2953 975 
Q 2953 694 2789 445 
Q 2625 197 2315 61 
Q 2006 -75 1616 -75 
Q 969 -75 630 194 
Q 291 463 197 991 
z
" transform="scale(0.015625)"/>
       <path id="ArialMT-70" d="M 422 -1272 
L 422 3319 
L 934 3319 
L 934 2888 
Q 1116 3141 1344 3267 
Q 1572 3394 1897 3394 
Q 2322 3394 2647 3175 
Q 2972 2956 3137 2557 
Q 3303 2159 3303 1684 
Q 3303 1175 3120 767 
Q 2938 359 2589 142 
Q 2241 -75 1856 -75 
Q 1575 -75 1351 44 
Q 1128 163 984 344 
L 984 -1272 
L 422 -1272 
z
M 931 1641 
Q 931 1000 1190 694 
Q 1450 388 1819 388 
Q 2194 388 2461 705 
Q 2728 1022 2728 1688 
Q 2728 2322 2467 2637 
Q 2206 2953 1844 2953 
Q 1484 2953 1207 2617 
Q 931 2281 931 1641 
z
" transform="scale(0.015625)"/>
       <path id="ArialMT-69" d="M 425 3934 
L 425 4581 
L 988 4581 
L 988 3934 
L 425 3934 
z
M 425 0 
L 425 3319 
L 988 3319 
L 988 0 
L 425 0 
z
" transform="scale(0.015625)"/>
      </defs>
      <use xlink:href="#ArialMT-4e"/>
      <use xlink:href="#ArialMT-6f" transform="translate(72.216797 0)"/>
      <use xlink:href="#ArialMT-6d" transform="translate(127.832031 0)"/>
      <use xlink:href="#ArialMT-62" transform="translate(211.132812 0)"/>
      <use xlink:href="#ArialMT-72" transform="translate(266.748047 0)"/>
      <use xlink:href="#ArialMT-65" transform="translate(300.048828 0)"/>
      <use xlink:href="#ArialMT-20" transform="translate(355.664062 0)"/>
      <use xlink:href="#ArialMT-64" transform="translate(383.447266 0)"/>
      <use xlink:href="#ArialMT-65" transform="translate(439.0625 0)"/>
      <use xlink:href="#ArialMT-20" transform="translate(494.677734 0)"/>
      <use xlink:href="#ArialMT-6e" transform="translate(522.460938 0)"/>
      <use xlink:href="#ArialMT-6f" transform="translate(578.076172 0)"/>
      <use xlink:href="#ArialMT-6d" transform="translate(633.691406 0)"/>
      <use xlink:href="#ArialMT-62" transform="translate(716.992188 0)"/>
      <use xlink:href="#ArialMT-72" transform="translate(772.607422 0)"/>
      <use xlink:href="#ArialMT-65" transform="translate(805.908203 0)"/>
      <use xlink:href="#ArialMT-73" transform="translate(861.523438 0)"/>
      <use xlink:href="#ArialMT-20" transform="translate(911.523438 0)"/>
      <use xlink:href="#ArialMT-70" transform="translate(939.306641 0)"/>
      <use xlink:href="#ArialMT-72" transform="translate(994.921875 0)"/>
      <use xlink:href="#ArialMT-65" transform="translate(1028.222656 0)"/>
      <use xlink:href="#ArialMT-6d" transform="translate(1083.837891 0)"/>
      <use xlink:href="#ArialMT-69" transform="translate(1167.138672 0)"/>
      <use xlink:href="#ArialMT-65" transform="translate(1189.355469 0)"/>
      <use xlink:href="#ArialMT-72" transform="translate(1244.970703 0)"/>
      <use xlink:href="#ArialMT-73" transform="translate(1278.271484 0)"/>
     </g>
    </g>
   </g>
   <g id="line2d_15">
    <path d="M 58.489631 306.279545 
L 96.810338 238.552273 
L 135.131045 170.825 
L 173.451752 170.825 
L 211.772459 103.097727 
L 250.093166 103.097727 
L 288.413873 35.370455 
L 326.73458 35.370455 
L 365.055287 35.370455 
L 403.375994 35.370455 
" clip-path="url(#p0961515fd9)" style="fill: none; stroke: #004c9e; stroke-width: 1.5; stroke-linecap: round"/>
   </g>
   <g id="patch_3">
    <path d="M 41.245313 319.825 
L 41.245313 21.825 
" style="fill: none; stroke: #cccccc; stroke-width: 0.8; stroke-linejoin: miter; stroke-linecap: square"/>
   </g>
   <g id="patch_4">
    <path d="M 420.620313 319.825 
L 420.620313 21.825 
" style="fill: none; stroke: #cccccc; stroke-width: 0.8; stroke-linejoin: miter; stroke-linecap: square"/>
   </g>
   <g id="patch_5">
    <path d="M 41.245313 319.825 
L 420.620313 319.825 
" style="fill: none; stroke: #cccccc; stroke-width: 0.8; stroke-linejoin: miter; stroke-linecap: square"/>
   </g>
   <g id="patch_6">
    <path d="M 41.245313 21.825 
L 420.620313 21.825 
" style="fill: none; stroke: #cccccc; stroke-width: 0.8; stroke-linejoin: miter; stroke-linecap: square"/>
   </g>
   <g id="text_17">
    <!-- Nombre de nombres premiers ≤ 10 -->
    <g style="fill: #262626" transform="translate(137.942188 15.825) scale(0.12 -0.12)">
     <defs>
      <path id="ArialMT-2264" d="M 241 2381 
L 241 2906 
L 3275 4188 
L 3275 3625 
L 869 2641 
L 3275 1644 
L 3275 1084 
L 241 2381 
z
M 3269 331 
L 244 331 
L 244 853 
L 3269 853 
L 3269 331 
z
" transform="scale(0.015625)"/>
     </defs>
     <use xlink:href="#ArialMT-4e"/>
     <use xlink:href="#ArialMT-6f" transform="translate(72.216797 0)"/>
     <use xlink:href="#ArialMT-6d" transform="translate(127.832031 0)"/>
     <use xlink:href="#ArialMT-62" transform="translate(211.132812 0)"/>
     <use xlink:href="#ArialMT-72" transform="translate(266.748047 0)"/>
     <use xlink:href="#ArialMT-65" transform="translate(300.048828 0)"/>
     <use xlink:href="#ArialMT-20" transform="translate(355.664062 0)"/>
     <use xlink:href="#ArialMT-64" transform="translate(383.447266 0)"/>
     <use xlink:href="#ArialMT-65" transform="translate(439.0625 0)"/>
     <use xlink:href="#ArialMT-20" transform="translate(494.677734 0)"/>
     <use xlink:href="#ArialMT-6e" transform="translate(522.460938 0)"/>
     <use xlink:href="#ArialMT-6f" transform="translate(578.076172 0)"/>
     <use xlink:href="#ArialMT-6d" transform="translate(633.691406 0)"/>
     <use xlink:href="#ArialMT-62" transform="translate(716.992188 0)"/>
     <use xlink:href="#ArialMT-72" transform="translate(772.607422 0)"/>
     <use xlink:href="#ArialMT-65" transform="translate(805.908203 0)"/>
     <use xlink:href="#ArialMT-73" transform="translate(861.523438 0)"/>
     <use xlink:href="#ArialMT-20" transform="translate(911.523438 0)"/>
     <use xlink:href="#ArialMT-70" transform="translate(939.306641 0)"/>
     <use xlink:href="#ArialMT-72" transform="translate(994.921875 0)"/>
     <use xlink:href="#ArialMT-65" transform="translate(1028.222656 0)"/>
     <use xlink:href="#ArialMT-6d" transform="translate(1083.837891 0)"/>
     <use xlink:href="#ArialMT-69" transform="translate(1167.138672 0)"/>
     <use xlink:href="#ArialMT-65" transform="translate(1189.355469 0)"/>
     <use xlink:href="#ArialMT-72" transform="translate(1244.970703 0)"/>
     <use xlink:href="#ArialMT-73" transform="translate(1278.271484 0)"/>
     <use xlink:href="#ArialMT-20" transform="translate(1328.271484 0)"/>
     <use xlink:href="#ArialMT-2264" transform="translate(1356.054688 0)"/>
     <use xlink:href="#ArialMT-20" transform="translate(1410.9375 0)"/>
     <use xlink:href="#ArialMT-31" transform="translate(1438.720703 0)"/>
     <use xlink:href="#ArialMT-30" transform="translate(1494.335938 0)"/>
    </g>
   </g>
   <g id="legend_1">
    <g id="patch_7">
     <path d="M 48.245313 44 
L 235.229688 44 
Q 237.229688 44 237.229688 42 
L 237.229688 28.825 
Q 237.229688 26.825 235.229688 26.825 
L 48.245313 26.825 
Q 46.245313 26.825 46.245313 28.825 
L 46.245313 42 
Q 46.245313 44 48.245313 44 
z
" style="fill: #ffffff; opacity: 0.8; stroke: #cccccc; stroke-linejoin: miter"/>
    </g>
    <g id="line2d_16">
     <path d="M 50.245313 34.5125 
L 60.245313 34.5125 
L 70.245313 34.5125 
" style="fill: none; stroke: #004c9e; stroke-width: 1.5; stroke-linecap: round"/>
    </g>
    <g id="text_18">
     <!-- Nombre de nombres premiers ≤ 10 -->
     <g style="fill: #262626" transform="translate(78.245313 38.0125) scale(0.1 -0.1)">
      <use xlink:href="#ArialMT-4e"/>
      <use xlink:href="#ArialMT-6f" transform="translate(72.216797 0)"/>
      <use xlink:href="#ArialMT-6d" transform="translate(127.832031 0)"/>
      <use xlink:href="#ArialMT-62" transform="translate(211.132812 0)"/>
      <use xlink:href="#ArialMT-72" transform="translate(266.748047 0)"/>
      <use xlink:href="#ArialMT-65" transform="translate(300.048828 0)"/>
      <use xlink:href="#ArialMT-20" transform="translate(355.664062 0)"/>
      <use xlink:href="#ArialMT-64" transform="translate(383.447266 0)"/>
      <use xlink:href="#ArialMT-65" transform="translate(439.0625 0)"/>
      <use xlink:href="#ArialMT-20" transform="translate(494.677734 0)"/>
      <use xlink:href="#ArialMT-6e" transform="translate(522.460938 0)"/>
      <use xlink:href="#ArialMT-6f" transform="translate(578.076172 0)"/>
      <use xlink:href="#ArialMT-6d" transform="translate(633.691406 0)"/>
      <use xlink:href="#ArialMT-62" transform="translate(716.992188 0)"/>
      <use xlink:href="#ArialMT-72" transform="translate(772.607422 0)"/>
      <use xlink:href="#ArialMT-65" transform="translate(805.908203 0)"/>
      <use xlink:href="#ArialMT-73" transform="translate(861.523438 0)"/>
      <use xlink:href="#ArialMT-20" transform="translate(911.523438 0)"/>
      <use xlink:href="#ArialMT-70" transform="translate(939.306641 0)"/>
      <use xlink:href="#ArialMT-72" transform="translate(994.921875 0)"/>
      <use xlink:href="#ArialMT-65" transform="translate(1028.222656 0)"/>
      <use xlink:href="#ArialMT-6d" transform="translate(1083.837891 0)"/>
      <use xlink:href="#ArialMT-69" transform="translate(1167.138672 0)"/>
      <use xlink:href="#ArialMT-65" transform="translate(1189.355469 0)"/>
      <use xlink:href="#ArialMT-72" transform="translate(1244.970703 0)"/>
      <use xlink:href="#ArialMT-73" transform="translate(1278.271484 0)"/>
      <use xlink:href="#ArialMT-20" transform="translate(1328.271484 0)"/>
      <use xlink:href="#ArialMT-2264" transform="translate(1356.054688 0)"/>
      <use xlink:href="#ArialMT-20" transform="translate(1410.9375 0)"/>
      <use xlink:href="#ArialMT-31" transform="translate(1438.720703 0)"/>
      <use xlink:href="#ArialMT-30" transform="translate(1494.335938 0)"/>
     </g>
    </g>
   </g>
  </g>
  <g id="axes_2">
   <g id="patch_8">
    <path d="M 469.240313 319.825 
L 848.615312 319.825 
L 848.615312 21.825 
L 469.240313 21.825 
z
" style="fill: #ffffff"/>
   </g>
   <g id="matplotlib.axis_3">
    <g id="xtick_6">
     <g id="line2d_17">
      <path d="M 479.446133 319.825 
L 479.446133 21.825 
" clip-path="url(#pa1cf774791)" style="fill: none; stroke: #cccccc; stroke-width: 0.8; stroke-linecap: round"/>
     </g>
     <g id="text_19">
      <!-- 0 -->
      <g style="fill: #262626" transform="translate(476.665665 333.982812) scale(0.1 -0.1)">
       <use xlink:href="#ArialMT-30"/>
      </g>
     </g>
    </g>
    <g id="xtick_7">
     <g id="line2d_18">
      <path d="M 549.831106 319.825 
L 549.831106 21.825 
" clip-path="url(#pa1cf774791)" style="fill: none; stroke: #cccccc; stroke-width: 0.8; stroke-linecap: round"/>
     </g>
     <g id="text_20">
      <!-- 10 -->
      <g style="fill: #262626" transform="translate(544.270168 333.982812) scale(0.1 -0.1)">
       <use xlink:href="#ArialMT-31"/>
       <use xlink:href="#ArialMT-30" transform="translate(55.615234 0)"/>
      </g>
     </g>
    </g>
    <g id="xtick_8">
     <g id="line2d_19">
      <path d="M 620.216078 319.825 
L 620.216078 21.825 
" clip-path="url(#pa1cf774791)" style="fill: none; stroke: #cccccc; stroke-width: 0.8; stroke-linecap: round"/>
     </g>
     <g id="text_21">
      <!-- 20 -->
      <g style="fill: #262626" transform="translate(614.65514 333.982812) scale(0.1 -0.1)">
       <use xlink:href="#ArialMT-32"/>
       <use xlink:href="#ArialMT-30" transform="translate(55.615234 0)"/>
      </g>
     </g>
    </g>
    <g id="xtick_9">
     <g id="line2d_20">
      <path d="M 690.60105 319.825 
L 690.60105 21.825 
" clip-path="url(#pa1cf774791)" style="fill: none; stroke: #cccccc; stroke-width: 0.8; stroke-linecap: round"/>
     </g>
     <g id="text_22">
      <!-- 30 -->
      <g style="fill: #262626" transform="translate(685.040112 333.982812) scale(0.1 -0.1)">
       <use xlink:href="#ArialMT-33"/>
       <use xlink:href="#ArialMT-30" transform="translate(55.615234 0)"/>
      </g>
     </g>
    </g>
    <g id="xtick_10">
     <g id="line2d_21">
      <path d="M 760.986022 319.825 
L 760.986022 21.825 
" clip-path="url(#pa1cf774791)" style="fill: none; stroke: #cccccc; stroke-width: 0.8; stroke-linecap: round"/>
     </g>
     <g id="text_23">
      <!-- 40 -->
      <g style="fill: #262626" transform="translate(755.425085 333.982812) scale(0.1 -0.1)">
       <use xlink:href="#ArialMT-34"/>
       <use xlink:href="#ArialMT-30" transform="translate(55.615234 0)"/>
      </g>
     </g>
    </g>
    <g id="xtick_11">
     <g id="line2d_22">
      <path d="M 831.370994 319.825 
L 831.370994 21.825 
" clip-path="url(#pa1cf774791)" style="fill: none; stroke: #cccccc; stroke-width: 0.8; stroke-linecap: round"/>
     </g>
     <g id="text_24">
      <!-- 50 -->
      <g style="fill: #262626" transform="translate(825.810057 333.982812) scale(0.1 -0.1)">
       <use xlink:href="#ArialMT-35"/>
       <use xlink:href="#ArialMT-30" transform="translate(55.615234 0)"/>
      </g>
     </g>
    </g>
    <g id="text_25">
     <!-- $x$ -->
     <g style="fill: #262626" transform="translate(655.927812 347.128125) scale(0.1 -0.1)">
      <use xlink:href="#DejaVuSans-Oblique-78" transform="translate(0 0.3125)"/>
     </g>
    </g>
   </g>
   <g id="matplotlib.axis_4">
    <g id="ytick_10">
     <g id="line2d_23">
      <path d="M 469.240313 306.279545 
L 848.615312 306.279545 
" clip-path="url(#pa1cf774791)" style="fill: none; stroke: #cccccc; stroke-width: 0.8; stroke-linecap: round"/>
     </g>
     <g id="text_26">
      <!-- 0 -->
      <g style="fill: #262626" transform="translate(456.679375 309.858452) scale(0.1 -0.1)">
       <use xlink:href="#ArialMT-30"/>
      </g>
     </g>
    </g>
    <g id="ytick_11">
     <g id="line2d_24">
      <path d="M 469.240313 270.158333 
L 848.615312 270.158333 
" clip-path="url(#pa1cf774791)" style="fill: none; stroke: #cccccc; stroke-width: 0.8; stroke-linecap: round"/>
     </g>
     <g id="text_27">
      <!-- 2 -->
      <g style="fill: #262626" transform="translate(456.679375 273.73724) scale(0.1 -0.1)">
       <use xlink:href="#ArialMT-32"/>
      </g>
     </g>
    </g>
    <g id="ytick_12">
     <g id="line2d_25">
      <path d="M 469.240313 234.037121 
L 848.615312 234.037121 
" clip-path="url(#pa1cf774791)" style="fill: none; stroke: #cccccc; stroke-width: 0.8; stroke-linecap: round"/>
     </g>
     <g id="text_28">
      <!-- 4 -->
      <g style="fill: #262626" transform="translate(456.679375 237.616027) scale(0.1 -0.1)">
       <use xlink:href="#ArialMT-34"/>
      </g>
     </g>
    </g>
    <g id="ytick_13">
     <g id="line2d_26">
      <path d="M 469.240313 197.915909 
L 848.615312 197.915909 
" clip-path="url(#pa1cf774791)" style="fill: none; stroke: #cccccc; stroke-width: 0.8; stroke-linecap: round"/>
     </g>
     <g id="text_29">
      <!-- 6 -->
      <g style="fill: #262626" transform="translate(456.679375 201.494815) scale(0.1 -0.1)">
       <use xlink:href="#ArialMT-36"/>
      </g>
     </g>
    </g>
    <g id="ytick_14">
     <g id="line2d_27">
      <path d="M 469.240313 161.794697 
L 848.615312 161.794697 
" clip-path="url(#pa1cf774791)" style="fill: none; stroke: #cccccc; stroke-width: 0.8; stroke-linecap: round"/>
     </g>
     <g id="text_30">
      <!-- 8 -->
      <g style="fill: #262626" transform="translate(456.679375 165.373603) scale(0.1 -0.1)">
       <use xlink:href="#ArialMT-38"/>
      </g>
     </g>
    </g>
    <g id="ytick_15">
     <g id="line2d_28">
      <path d="M 469.240313 125.673485 
L 848.615312 125.673485 
" clip-path="url(#pa1cf774791)" style="fill: none; stroke: #cccccc; stroke-width: 0.8; stroke-linecap: round"/>
     </g>
     <g id="text_31">
      <!-- 10 -->
      <g style="fill: #262626" transform="translate(451.118438 129.252391) scale(0.1 -0.1)">
       <use xlink:href="#ArialMT-31"/>
       <use xlink:href="#ArialMT-30" transform="translate(55.615234 0)"/>
      </g>
     </g>
    </g>
    <g id="ytick_16">
     <g id="line2d_29">
      <path d="M 469.240313 89.552273 
L 848.615312 89.552273 
" clip-path="url(#pa1cf774791)" style="fill: none; stroke: #cccccc; stroke-width: 0.8; stroke-linecap: round"/>
     </g>
     <g id="text_32">
      <!-- 12 -->
      <g style="fill: #262626" transform="translate(451.118438 93.131179) scale(0.1 -0.1)">
       <use xlink:href="#ArialMT-31"/>
       <use xlink:href="#ArialMT-32" transform="translate(55.615234 0)"/>
      </g>
     </g>
    </g>
    <g id="ytick_17">
     <g id="line2d_30">
      <path d="M 469.240313 53.431061 
L 848.615312 53.431061 
" clip-path="url(#pa1cf774791)" style="fill: none; stroke: #cccccc; stroke-width: 0.8; stroke-linecap: round"/>
     </g>
     <g id="text_33">
      <!-- 14 -->
      <g style="fill: #262626" transform="translate(451.118438 57.009967) scale(0.1 -0.1)">
       <use xlink:href="#ArialMT-31"/>
       <use xlink:href="#ArialMT-34" transform="translate(55.615234 0)"/>
      </g>
     </g>
    </g>
    <g id="text_34">
     <!-- Nombre de nombres premiers -->
     <g style="fill: #262626" transform="translate(445.130938 237.233594) rotate(-90) scale(0.1 -0.1)">
      <use xlink:href="#ArialMT-4e"/>
      <use xlink:href="#ArialMT-6f" transform="translate(72.216797 0)"/>
      <use xlink:href="#ArialMT-6d" transform="translate(127.832031 0)"/>
      <use xlink:href="#ArialMT-62" transform="translate(211.132812 0)"/>
      <use xlink:href="#ArialMT-72" transform="translate(266.748047 0)"/>
      <use xlink:href="#ArialMT-65" transform="translate(300.048828 0)"/>
      <use xlink:href="#ArialMT-20" transform="translate(355.664062 0)"/>
      <use xlink:href="#ArialMT-64" transform="translate(383.447266 0)"/>
      <use xlink:href="#ArialMT-65" transform="translate(439.0625 0)"/>
      <use xlink:href="#ArialMT-20" transform="translate(494.677734 0)"/>
      <use xlink:href="#ArialMT-6e" transform="translate(522.460938 0)"/>
      <use xlink:href="#ArialMT-6f" transform="translate(578.076172 0)"/>
      <use xlink:href="#ArialMT-6d" transform="translate(633.691406 0)"/>
      <use xlink:href="#ArialMT-62" transform="translate(716.992188 0)"/>
      <use xlink:href="#ArialMT-72" transform="translate(772.607422 0)"/>
      <use xlink:href="#ArialMT-65" transform="translate(805.908203 0)"/>
      <use xlink:href="#ArialMT-73" transform="translate(861.523438 0)"/>
      <use xlink:href="#ArialMT-20" transform="translate(911.523438 0)"/>
      <use xlink:href="#ArialMT-70" transform="translate(939.306641 0)"/>
      <use xlink:href="#ArialMT-72" transform="translate(994.921875 0)"/>
      <use xlink:href="#ArialMT-65" transform="translate(1028.222656 0)"/>
      <use xlink:href="#ArialMT-6d" transform="translate(1083.837891 0)"/>
      <use xlink:href="#ArialMT-69" transform="translate(1167.138672 0)"/>
      <use xlink:href="#ArialMT-65" transform="translate(1189.355469 0)"/>
      <use xlink:href="#ArialMT-72" transform="translate(1244.970703 0)"/>
      <use xlink:href="#ArialMT-73" transform="translate(1278.271484 0)"/>
     </g>
    </g>
   </g>
   <g id="line2d_31">
    <path d="M 486.484631 306.279545 
L 493.523128 288.218939 
L 500.561625 270.158333 
L 507.600122 270.158333 
L 514.63862 252.097727 
L 521.677117 252.097727 
L 528.715614 234.037121 
L 535.754111 234.037121 
L 542.792608 234.037121 
L 549.831106 234.037121 
L 556.869603 215.976515 
L 563.9081 215.976515 
L 570.946597 197.915909 
L 577.985095 197.915909 
L 585.023592 197.915909 
L 592.062089 197.915909 
L 599.100586 179.855303 
L 606.139083 179.855303 
L 613.177581 161.794697 
L 620.216078 161.794697 
L 627.254575 161.794697 
L 634.293072 161.794697 
L 641.331569 143.734091 
L 648.370067 143.734091 
L 655.408564 143.734091 
L 662.447061 143.734091 
L 669.485558 143.734091 
L 676.524056 143.734091 
L 683.562553 125.673485 
L 690.60105 125.673485 
L 697.639547 107.612879 
L 704.678044 107.612879 
L 711.716542 107.612879 
L 718.755039 107.612879 
L 725.793536 107.612879 
L 732.832033 107.612879 
L 739.87053 89.552273 
L 746.909028 89.552273 
L 753.947525 89.552273 
L 760.986022 89.552273 
L 768.024519 71.491667 
L 775.063017 71.491667 
L 782.101514 53.431061 
L 789.140011 53.431061 
L 796.178508 53.431061 
L 803.217005 53.431061 
L 810.255503 35.370455 
L 817.294 35.370455 
L 824.332497 35.370455 
L 831.370994 35.370455 
" clip-path="url(#pa1cf774791)" style="fill: none; stroke: #004c9e; stroke-width: 1.5; stroke-linecap: round"/>
   </g>
   <g id="patch_9">
    <path d="M 469.240313 319.825 
L 469.240313 21.825 
" style="fill: none; stroke: #cccccc; stroke-width: 0.8; stroke-linejoin: miter; stroke-linecap: square"/>
   </g>
   <g id="patch_10">
    <path d="M 848.615312 319.825 
L 848.615312 21.825 
" style="fill: none; stroke: #cccccc; stroke-width: 0.8; stroke-linejoin: miter; stroke-linecap: square"/>
   </g>
   <g id="patch_11">
    <path d="M 469.240313 319.825 
L 848.615312 319.825 
" style="fill: none; stroke: #cccccc; stroke-width: 0.8; stroke-linejoin: miter; stroke-linecap: square"/>
   </g>
   <g id="patch_12">
    <path d="M 469.240313 21.825 
L 848.615312 21.825 
" style="fill: none; stroke: #cccccc; stroke-width: 0.8; stroke-linejoin: miter; stroke-linecap: square"/>
   </g>
   <g id="text_35">
    <!-- Nombre de nombres premiers ≤ 50 -->
    <g style="fill: #262626" transform="translate(565.937187 15.825) scale(0.12 -0.12)">
     <use xlink:href="#ArialMT-4e"/>
     <use xlink:href="#ArialMT-6f" transform="translate(72.216797 0)"/>
     <use xlink:href="#ArialMT-6d" transform="translate(127.832031 0)"/>
     <use xlink:href="#ArialMT-62" transform="translate(211.132812 0)"/>
     <use xlink:href="#ArialMT-72" transform="translate(266.748047 0)"/>
     <use xlink:href="#ArialMT-65" transform="translate(300.048828 0)"/>
     <use xlink:href="#ArialMT-20" transform="translate(355.664062 0)"/>
     <use xlink:href="#ArialMT-64" transform="translate(383.447266 0)"/>
     <use xlink:href="#ArialMT-65" transform="translate(439.0625 0)"/>
     <use xlink:href="#ArialMT-20" transform="translate(494.677734 0)"/>
     <use xlink:href="#ArialMT-6e" transform="translate(522.460938 0)"/>
     <use xlink:href="#ArialMT-6f" transform="translate(578.076172 0)"/>
     <use xlink:href="#ArialMT-6d" transform="translate(633.691406 0)"/>
     <use xlink:href="#ArialMT-62" transform="translate(716.992188 0)"/>
     <use xlink:href="#ArialMT-72" transform="translate(772.607422 0)"/>
     <use xlink:href="#ArialMT-65" transform="translate(805.908203 0)"/>
     <use xlink:href="#ArialMT-73" transform="translate(861.523438 0)"/>
     <use xlink:href="#ArialMT-20" transform="translate(911.523438 0)"/>
     <use xlink:href="#ArialMT-70" transform="translate(939.306641 0)"/>
     <use xlink:href="#ArialMT-72" transform="translate(994.921875 0)"/>
     <use xlink:href="#ArialMT-65" transform="translate(1028.222656 0)"/>
     <use xlink:href="#ArialMT-6d" transform="translate(1083.837891 0)"/>
     <use xlink:href="#ArialMT-69" transform="translate(1167.138672 0)"/>
     <use xlink:href="#ArialMT-65" transform="translate(1189.355469 0)"/>
     <use xlink:href="#ArialMT-72" transform="translate(1244.970703 0)"/>
     <use xlink:href="#ArialMT-73" transform="translate(1278.271484 0)"/>
     <use xlink:href="#ArialMT-20" transform="translate(1328.271484 0)"/>
     <use xlink:href="#ArialMT-2264" transform="translate(1356.054688 0)"/>
     <use xlink:href="#ArialMT-20" transform="translate(1410.9375 0)"/>
     <use xlink:href="#ArialMT-35" transform="translate(1438.720703 0)"/>
     <use xlink:href="#ArialMT-30" transform="translate(1494.335938 0)"/>
    </g>
   </g>
   <g id="legend_2">
    <g id="patch_13">
     <path d="M 476.240313 44 
L 663.224688 44 
Q 665.224688 44 665.224688 42 
L 665.224688 28.825 
Q 665.224688 26.825 663.224688 26.825 
L 476.240313 26.825 
Q 474.240313 26.825 474.240313 28.825 
L 474.240313 42 
Q 474.240313 44 476.240313 44 
z
" style="fill: #ffffff; opacity: 0.8; stroke: #cccccc; stroke-linejoin: miter"/>
    </g>
    <g id="line2d_32">
     <path d="M 478.240313 34.5125 
L 488.240313 34.5125 
L 498.240313 34.5125 
" style="fill: none; stroke: #004c9e; stroke-width: 1.5; stroke-linecap: round"/>
    </g>
    <g id="text_36">
     <!-- Nombre de nombres premiers ≤ 50 -->
     <g style="fill: #262626" transform="translate(506.240313 38.0125) scale(0.1 -0.1)">
      <use xlink:href="#ArialMT-4e"/>
      <use xlink:href="#ArialMT-6f" transform="translate(72.216797 0)"/>
      <use xlink:href="#ArialMT-6d" transform="translate(127.832031 0)"/>
      <use xlink:href="#ArialMT-62" transform="translate(211.132812 0)"/>
      <use xlink:href="#ArialMT-72" transform="translate(266.748047 0)"/>
      <use xlink:href="#ArialMT-65" transform="translate(300.048828 0)"/>
      <use xlink:href="#ArialMT-20" transform="translate(355.664062 0)"/>
      <use xlink:href="#ArialMT-64" transform="translate(383.447266 0)"/>
      <use xlink:href="#ArialMT-65" transform="translate(439.0625 0)"/>
      <use xlink:href="#ArialMT-20" transform="translate(494.677734 0)"/>
      <use xlink:href="#ArialMT-6e" transform="translate(522.460938 0)"/>
      <use xlink:href="#ArialMT-6f" transform="translate(578.076172 0)"/>
      <use xlink:href="#ArialMT-6d" transform="translate(633.691406 0)"/>
      <use xlink:href="#ArialMT-62" transform="translate(716.992188 0)"/>
      <use xlink:href="#ArialMT-72" transform="translate(772.607422 0)"/>
      <use xlink:href="#ArialMT-65" transform="translate(805.908203 0)"/>
      <use xlink:href="#ArialMT-73" transform="translate(861.523438 0)"/>
      <use xlink:href="#ArialMT-20" transform="translate(911.523438 0)"/>
      <use xlink:href="#ArialMT-70" transform="translate(939.306641 0)"/>
      <use xlink:href="#ArialMT-72" transform="translate(994.921875 0)"/>
      <use xlink:href="#ArialMT-65" transform="translate(1028.222656 0)"/>
      <use xlink:href="#ArialMT-6d" transform="translate(1083.837891 0)"/>
      <use xlink:href="#ArialMT-69" transform="translate(1167.138672 0)"/>
      <use xlink:href="#ArialMT-65" transform="translate(1189.355469 0)"/>
      <use xlink:href="#ArialMT-72" transform="translate(1244.970703 0)"/>
      <use xlink:href="#ArialMT-73" transform="translate(1278.271484 0)"/>
      <use xlink:href="#ArialMT-20" transform="translate(1328.271484 0)"/>
      <use xlink:href="#ArialMT-2264" transform="translate(1356.054688 0)"/>
      <use xlink:href="#ArialMT-20" transform="translate(1410.9375 0)"/>
      <use xlink:href="#ArialMT-35" transform="translate(1438.720703 0)"/>
      <use xlink:href="#ArialMT-30" transform="translate(1494.335938 0)"/>
     </g>
    </g>
   </g>
  </g>
  <g id="axes_3">
   <g id="patch_14">
    <path d="M 41.245313 674.425 
L 420.620313 674.425 
L 420.620313 376.425 
L 41.245313 376.425 
z
" style="fill: #ffffff"/>
   </g>
   <g id="matplotlib.axis_5">
    <g id="xtick_12">
     <g id="line2d_33">
      <path d="M 55.00593 674.425 
L 55.00593 376.425 
" clip-path="url(#pe64588e836)" style="fill: none; stroke: #cccccc; stroke-width: 0.8; stroke-linecap: round"/>
     </g>
     <g id="text_37">
      <!-- 0 -->
      <g style="fill: #262626" transform="translate(52.225461 688.582812) scale(0.1 -0.1)">
       <use xlink:href="#ArialMT-30"/>
      </g>
     </g>
    </g>
    <g id="xtick_13">
     <g id="line2d_34">
      <path d="M 124.679943 674.425 
L 124.679943 376.425 
" clip-path="url(#pe64588e836)" style="fill: none; stroke: #cccccc; stroke-width: 0.8; stroke-linecap: round"/>
     </g>
     <g id="text_38">
      <!-- 20 -->
      <g style="fill: #262626" transform="translate(119.119005 688.582812) scale(0.1 -0.1)">
       <use xlink:href="#ArialMT-32"/>
       <use xlink:href="#ArialMT-30" transform="translate(55.615234 0)"/>
      </g>
     </g>
    </g>
    <g id="xtick_14">
     <g id="line2d_35">
      <path d="M 194.353956 674.425 
L 194.353956 376.425 
" clip-path="url(#pe64588e836)" style="fill: none; stroke: #cccccc; stroke-width: 0.8; stroke-linecap: round"/>
     </g>
     <g id="text_39">
      <!-- 40 -->
      <g style="fill: #262626" transform="translate(188.793018 688.582812) scale(0.1 -0.1)">
       <use xlink:href="#ArialMT-34"/>
       <use xlink:href="#ArialMT-30" transform="translate(55.615234 0)"/>
      </g>
     </g>
    </g>
    <g id="xtick_15">
     <g id="line2d_36">
      <path d="M 264.027969 674.425 
L 264.027969 376.425 
" clip-path="url(#pe64588e836)" style="fill: none; stroke: #cccccc; stroke-width: 0.8; stroke-linecap: round"/>
     </g>
     <g id="text_40">
      <!-- 60 -->
      <g style="fill: #262626" transform="translate(258.467031 688.582812) scale(0.1 -0.1)">
       <use xlink:href="#ArialMT-36"/>
       <use xlink:href="#ArialMT-30" transform="translate(55.615234 0)"/>
      </g>
     </g>
    </g>
    <g id="xtick_16">
     <g id="line2d_37">
      <path d="M 333.701981 674.425 
L 333.701981 376.425 
" clip-path="url(#pe64588e836)" style="fill: none; stroke: #cccccc; stroke-width: 0.8; stroke-linecap: round"/>
     </g>
     <g id="text_41">
      <!-- 80 -->
      <g style="fill: #262626" transform="translate(328.141044 688.582812) scale(0.1 -0.1)">
       <use xlink:href="#ArialMT-38"/>
       <use xlink:href="#ArialMT-30" transform="translate(55.615234 0)"/>
      </g>
     </g>
    </g>
    <g id="xtick_17">
     <g id="line2d_38">
      <path d="M 403.375994 674.425 
L 403.375994 376.425 
" clip-path="url(#pe64588e836)" style="fill: none; stroke: #cccccc; stroke-width: 0.8; stroke-linecap: round"/>
     </g>
     <g id="text_42">
      <!-- 100 -->
      <g style="fill: #262626" transform="translate(395.034588 688.582812) scale(0.1 -0.1)">
       <use xlink:href="#ArialMT-31"/>
       <use xlink:href="#ArialMT-30" transform="translate(55.615234 0)"/>
       <use xlink:href="#ArialMT-30" transform="translate(111.230469 0)"/>
      </g>
     </g>
    </g>
    <g id="text_43">
     <!-- $x$ -->
     <g style="fill: #262626" transform="translate(227.932813 701.728125) scale(0.1 -0.1)">
      <use xlink:href="#DejaVuSans-Oblique-78" transform="translate(0 0.3125)"/>
     </g>
    </g>
   </g>
   <g id="matplotlib.axis_6">
    <g id="ytick_18">
     <g id="line2d_39">
      <path d="M 41.245313 660.879545 
L 420.620313 660.879545 
" clip-path="url(#pe64588e836)" style="fill: none; stroke: #cccccc; stroke-width: 0.8; stroke-linecap: round"/>
     </g>
     <g id="text_44">
      <!-- 0 -->
      <g style="fill: #262626" transform="translate(28.684375 664.458452) scale(0.1 -0.1)">
       <use xlink:href="#ArialMT-30"/>
      </g>
     </g>
    </g>
    <g id="ytick_19">
     <g id="line2d_40">
      <path d="M 41.245313 606.697727 
L 420.620313 606.697727 
" clip-path="url(#pe64588e836)" style="fill: none; stroke: #cccccc; stroke-width: 0.8; stroke-linecap: round"/>
     </g>
     <g id="text_45">
      <!-- 5 -->
      <g style="fill: #262626" transform="translate(28.684375 610.276634) scale(0.1 -0.1)">
       <use xlink:href="#ArialMT-35"/>
      </g>
     </g>
    </g>
    <g id="ytick_20">
     <g id="line2d_41">
      <path d="M 41.245313 552.515909 
L 420.620313 552.515909 
" clip-path="url(#pe64588e836)" style="fill: none; stroke: #cccccc; stroke-width: 0.8; stroke-linecap: round"/>
     </g>
     <g id="text_46">
      <!-- 10 -->
      <g style="fill: #262626" transform="translate(23.123438 556.094815) scale(0.1 -0.1)">
       <use xlink:href="#ArialMT-31"/>
       <use xlink:href="#ArialMT-30" transform="translate(55.615234 0)"/>
      </g>
     </g>
    </g>
    <g id="ytick_21">
     <g id="line2d_42">
      <path d="M 41.245313 498.334091 
L 420.620313 498.334091 
" clip-path="url(#pe64588e836)" style="fill: none; stroke: #cccccc; stroke-width: 0.8; stroke-linecap: round"/>
     </g>
     <g id="text_47">
      <!-- 15 -->
      <g style="fill: #262626" transform="translate(23.123438 501.912997) scale(0.1 -0.1)">
       <use xlink:href="#ArialMT-31"/>
       <use xlink:href="#ArialMT-35" transform="translate(55.615234 0)"/>
      </g>
     </g>
    </g>
    <g id="ytick_22">
     <g id="line2d_43">
      <path d="M 41.245313 444.152273 
L 420.620313 444.152273 
" clip-path="url(#pe64588e836)" style="fill: none; stroke: #cccccc; stroke-width: 0.8; stroke-linecap: round"/>
     </g>
     <g id="text_48">
      <!-- 20 -->
      <g style="fill: #262626" transform="translate(23.123438 447.731179) scale(0.1 -0.1)">
       <use xlink:href="#ArialMT-32"/>
       <use xlink:href="#ArialMT-30" transform="translate(55.615234 0)"/>
      </g>
     </g>
    </g>
    <g id="ytick_23">
     <g id="line2d_44">
      <path d="M 41.245313 389.970455 
L 420.620313 389.970455 
" clip-path="url(#pe64588e836)" style="fill: none; stroke: #cccccc; stroke-width: 0.8; stroke-linecap: round"/>
     </g>
     <g id="text_49">
      <!-- 25 -->
      <g style="fill: #262626" transform="translate(23.123438 393.549361) scale(0.1 -0.1)">
       <use xlink:href="#ArialMT-32"/>
       <use xlink:href="#ArialMT-35" transform="translate(55.615234 0)"/>
      </g>
     </g>
    </g>
    <g id="text_50">
     <!-- Nombre de nombres premiers -->
     <g style="fill: #262626" transform="translate(17.135937 591.833594) rotate(-90) scale(0.1 -0.1)">
      <use xlink:href="#ArialMT-4e"/>
      <use xlink:href="#ArialMT-6f" transform="translate(72.216797 0)"/>
      <use xlink:href="#ArialMT-6d" transform="translate(127.832031 0)"/>
      <use xlink:href="#ArialMT-62" transform="translate(211.132812 0)"/>
      <use xlink:href="#ArialMT-72" transform="translate(266.748047 0)"/>
      <use xlink:href="#ArialMT-65" transform="translate(300.048828 0)"/>
      <use xlink:href="#ArialMT-20" transform="translate(355.664062 0)"/>
      <use xlink:href="#ArialMT-64" transform="translate(383.447266 0)"/>
      <use xlink:href="#ArialMT-65" transform="translate(439.0625 0)"/>
      <use xlink:href="#ArialMT-20" transform="translate(494.677734 0)"/>
      <use xlink:href="#ArialMT-6e" transform="translate(522.460938 0)"/>
      <use xlink:href="#ArialMT-6f" transform="translate(578.076172 0)"/>
      <use xlink:href="#ArialMT-6d" transform="translate(633.691406 0)"/>
      <use xlink:href="#ArialMT-62" transform="translate(716.992188 0)"/>
      <use xlink:href="#ArialMT-72" transform="translate(772.607422 0)"/>
      <use xlink:href="#ArialMT-65" transform="translate(805.908203 0)"/>
      <use xlink:href="#ArialMT-73" transform="translate(861.523438 0)"/>
      <use xlink:href="#ArialMT-20" transform="translate(911.523438 0)"/>
      <use xlink:href="#ArialMT-70" transform="translate(939.306641 0)"/>
      <use xlink:href="#ArialMT-72" transform="translate(994.921875 0)"/>
      <use xlink:href="#ArialMT-65" transform="translate(1028.222656 0)"/>
      <use xlink:href="#ArialMT-6d" transform="translate(1083.837891 0)"/>
      <use xlink:href="#ArialMT-69" transform="translate(1167.138672 0)"/>
      <use xlink:href="#ArialMT-65" transform="translate(1189.355469 0)"/>
      <use xlink:href="#ArialMT-72" transform="translate(1244.970703 0)"/>
      <use xlink:href="#ArialMT-73" transform="translate(1278.271484 0)"/>
     </g>
    </g>
   </g>
   <g id="line2d_45">
    <path d="M 58.489631 660.879545 
L 61.973331 650.043182 
L 65.457032 639.206818 
L 68.940733 639.206818 
L 72.424433 628.370455 
L 75.908134 628.370455 
L 79.391835 617.534091 
L 82.875535 617.534091 
L 86.359236 617.534091 
L 89.842936 617.534091 
L 93.326637 606.697727 
L 96.810338 606.697727 
L 100.294038 595.861364 
L 103.777739 595.861364 
L 107.26144 595.861364 
L 110.74514 595.861364 
L 114.228841 585.025 
L 117.712542 585.025 
L 121.196242 574.188636 
L 124.679943 574.188636 
L 128.163644 574.188636 
L 131.647344 574.188636 
L 135.131045 563.352273 
L 138.614745 563.352273 
L 142.098446 563.352273 
L 145.582147 563.352273 
L 149.065847 563.352273 
L 152.549548 563.352273 
L 156.033249 552.515909 
L 159.516949 552.515909 
L 163.00065 541.679545 
L 166.484351 541.679545 
L 169.968051 541.679545 
L 173.451752 541.679545 
L 176.935453 541.679545 
L 180.419153 541.679545 
L 183.902854 530.843182 
L 187.386554 530.843182 
L 190.870255 530.843182 
L 194.353956 530.843182 
L 197.837656 520.006818 
L 201.321357 520.006818 
L 204.805058 509.170455 
L 208.288758 509.170455 
L 211.772459 509.170455 
L 215.25616 509.170455 
L 218.73986 498.334091 
L 222.223561 498.334091 
L 225.707262 498.334091 
L 229.190962 498.334091 
L 232.674663 498.334091 
L 236.158363 498.334091 
L 239.642064 487.497727 
L 243.125765 487.497727 
L 246.609465 487.497727 
L 250.093166 487.497727 
L 253.576867 487.497727 
L 257.060567 487.497727 
L 260.544268 476.661364 
L 264.027969 476.661364 
L 267.511669 465.825 
L 270.99537 465.825 
L 274.479071 465.825 
L 277.962771 465.825 
L 281.446472 465.825 
L 284.930172 465.825 
L 288.413873 454.988636 
L 291.897574 454.988636 
L 295.381274 454.988636 
L 298.864975 454.988636 
L 302.348676 444.152273 
L 305.832376 444.152273 
L 309.316077 433.315909 
L 312.799778 433.315909 
L 316.283478 433.315909 
L 319.767179 433.315909 
L 323.25088 433.315909 
L 326.73458 433.315909 
L 330.218281 422.479545 
L 333.701981 422.479545 
L 337.185682 422.479545 
L 340.669383 422.479545 
L 344.153083 411.643182 
L 347.636784 411.643182 
L 351.120485 411.643182 
L 354.604185 411.643182 
L 358.087886 411.643182 
L 361.571587 411.643182 
L 365.055287 400.806818 
L 368.538988 400.806818 
L 372.022689 400.806818 
L 375.506389 400.806818 
L 378.99009 400.806818 
L 382.47379 400.806818 
L 385.957491 400.806818 
L 389.441192 400.806818 
L 392.924892 389.970455 
L 396.408593 389.970455 
L 399.892294 389.970455 
L 403.375994 389.970455 
" clip-path="url(#pe64588e836)" style="fill: none; stroke: #004c9e; stroke-width: 1.5; stroke-linecap: round"/>
   </g>
   <g id="patch_15">
    <path d="M 41.245313 674.425 
L 41.245313 376.425 
" style="fill: none; stroke: #cccccc; stroke-width: 0.8; stroke-linejoin: miter; stroke-linecap: square"/>
   </g>
   <g id="patch_16">
    <path d="M 420.620313 674.425 
L 420.620313 376.425 
" style="fill: none; stroke: #cccccc; stroke-width: 0.8; stroke-linejoin: miter; stroke-linecap: square"/>
   </g>
   <g id="patch_17">
    <path d="M 41.245313 674.425 
L 420.620313 674.425 
" style="fill: none; stroke: #cccccc; stroke-width: 0.8; stroke-linejoin: miter; stroke-linecap: square"/>
   </g>
   <g id="patch_18">
    <path d="M 41.245313 376.425 
L 420.620313 376.425 
" style="fill: none; stroke: #cccccc; stroke-width: 0.8; stroke-linejoin: miter; stroke-linecap: square"/>
   </g>
   <g id="text_51">
    <!-- Nombre de nombres premiers ≤ 100 -->
    <g style="fill: #262626" transform="translate(134.605625 370.425) scale(0.12 -0.12)">
     <use xlink:href="#ArialMT-4e"/>
     <use xlink:href="#ArialMT-6f" transform="translate(72.216797 0)"/>
     <use xlink:href="#ArialMT-6d" transform="translate(127.832031 0)"/>
     <use xlink:href="#ArialMT-62" transform="translate(211.132812 0)"/>
     <use xlink:href="#ArialMT-72" transform="translate(266.748047 0)"/>
     <use xlink:href="#ArialMT-65" transform="translate(300.048828 0)"/>
     <use xlink:href="#ArialMT-20" transform="translate(355.664062 0)"/>
     <use xlink:href="#ArialMT-64" transform="translate(383.447266 0)"/>
     <use xlink:href="#ArialMT-65" transform="translate(439.0625 0)"/>
     <use xlink:href="#ArialMT-20" transform="translate(494.677734 0)"/>
     <use xlink:href="#ArialMT-6e" transform="translate(522.460938 0)"/>
     <use xlink:href="#ArialMT-6f" transform="translate(578.076172 0)"/>
     <use xlink:href="#ArialMT-6d" transform="translate(633.691406 0)"/>
     <use xlink:href="#ArialMT-62" transform="translate(716.992188 0)"/>
     <use xlink:href="#ArialMT-72" transform="translate(772.607422 0)"/>
     <use xlink:href="#ArialMT-65" transform="translate(805.908203 0)"/>
     <use xlink:href="#ArialMT-73" transform="translate(861.523438 0)"/>
     <use xlink:href="#ArialMT-20" transform="translate(911.523438 0)"/>
     <use xlink:href="#ArialMT-70" transform="translate(939.306641 0)"/>
     <use xlink:href="#ArialMT-72" transform="translate(994.921875 0)"/>
     <use xlink:href="#ArialMT-65" transform="translate(1028.222656 0)"/>
     <use xlink:href="#ArialMT-6d" transform="translate(1083.837891 0)"/>
     <use xlink:href="#ArialMT-69" transform="translate(1167.138672 0)"/>
     <use xlink:href="#ArialMT-65" transform="translate(1189.355469 0)"/>
     <use xlink:href="#ArialMT-72" transform="translate(1244.970703 0)"/>
     <use xlink:href="#ArialMT-73" transform="translate(1278.271484 0)"/>
     <use xlink:href="#ArialMT-20" transform="translate(1328.271484 0)"/>
     <use xlink:href="#ArialMT-2264" transform="translate(1356.054688 0)"/>
     <use xlink:href="#ArialMT-20" transform="translate(1410.9375 0)"/>
     <use xlink:href="#ArialMT-31" transform="translate(1438.720703 0)"/>
     <use xlink:href="#ArialMT-30" transform="translate(1494.335938 0)"/>
     <use xlink:href="#ArialMT-30" transform="translate(1549.951172 0)"/>
    </g>
   </g>
   <g id="legend_3">
    <g id="patch_19">
     <path d="M 48.245313 398.6 
L 240.790625 398.6 
Q 242.790625 398.6 242.790625 396.6 
L 242.790625 383.425 
Q 242.790625 381.425 240.790625 381.425 
L 48.245313 381.425 
Q 46.245313 381.425 46.245313 383.425 
L 46.245313 396.6 
Q 46.245313 398.6 48.245313 398.6 
z
" style="fill: #ffffff; opacity: 0.8; stroke: #cccccc; stroke-linejoin: miter"/>
    </g>
    <g id="line2d_46">
     <path d="M 50.245313 389.1125 
L 60.245313 389.1125 
L 70.245313 389.1125 
" style="fill: none; stroke: #004c9e; stroke-width: 1.5; stroke-linecap: round"/>
    </g>
    <g id="text_52">
     <!-- Nombre de nombres premiers ≤ 100 -->
     <g style="fill: #262626" transform="translate(78.245313 392.6125) scale(0.1 -0.1)">
      <use xlink:href="#ArialMT-4e"/>
      <use xlink:href="#ArialMT-6f" transform="translate(72.216797 0)"/>
      <use xlink:href="#ArialMT-6d" transform="translate(127.832031 0)"/>
      <use xlink:href="#ArialMT-62" transform="translate(211.132812 0)"/>
      <use xlink:href="#ArialMT-72" transform="translate(266.748047 0)"/>
      <use xlink:href="#ArialMT-65" transform="translate(300.048828 0)"/>
      <use xlink:href="#ArialMT-20" transform="translate(355.664062 0)"/>
      <use xlink:href="#ArialMT-64" transform="translate(383.447266 0)"/>
      <use xlink:href="#ArialMT-65" transform="translate(439.0625 0)"/>
      <use xlink:href="#ArialMT-20" transform="translate(494.677734 0)"/>
      <use xlink:href="#ArialMT-6e" transform="translate(522.460938 0)"/>
      <use xlink:href="#ArialMT-6f" transform="translate(578.076172 0)"/>
      <use xlink:href="#ArialMT-6d" transform="translate(633.691406 0)"/>
      <use xlink:href="#ArialMT-62" transform="translate(716.992188 0)"/>
      <use xlink:href="#ArialMT-72" transform="translate(772.607422 0)"/>
      <use xlink:href="#ArialMT-65" transform="translate(805.908203 0)"/>
      <use xlink:href="#ArialMT-73" transform="translate(861.523438 0)"/>
      <use xlink:href="#ArialMT-20" transform="translate(911.523438 0)"/>
      <use xlink:href="#ArialMT-70" transform="translate(939.306641 0)"/>
      <use xlink:href="#ArialMT-72" transform="translate(994.921875 0)"/>
      <use xlink:href="#ArialMT-65" transform="translate(1028.222656 0)"/>
      <use xlink:href="#ArialMT-6d" transform="translate(1083.837891 0)"/>
      <use xlink:href="#ArialMT-69" transform="translate(1167.138672 0)"/>
      <use xlink:href="#ArialMT-65" transform="translate(1189.355469 0)"/>
      <use xlink:href="#ArialMT-72" transform="translate(1244.970703 0)"/>
      <use xlink:href="#ArialMT-73" transform="translate(1278.271484 0)"/>
      <use xlink:href="#ArialMT-20" transform="translate(1328.271484 0)"/>
      <use xlink:href="#ArialMT-2264" transform="translate(1356.054688 0)"/>
      <use xlink:href="#ArialMT-20" transform="translate(1410.9375 0)"/>
      <use xlink:href="#ArialMT-31" transform="translate(1438.720703 0)"/>
      <use xlink:href="#ArialMT-30" transform="translate(1494.335938 0)"/>
      <use xlink:href="#ArialMT-30" transform="translate(1549.951172 0)"/>
     </g>
    </g>
   </g>
  </g>
  <g id="axes_4">
   <g id="patch_20">
    <path d="M 469.240313 674.425 
L 848.615312 674.425 
L 848.615312 376.425 
L 469.240313 376.425 
z
" style="fill: #ffffff"/>
   </g>
   <g id="matplotlib.axis_7">
    <g id="xtick_18">
     <g id="line2d_47">
      <path d="M 486.139399 674.425 
L 486.139399 376.425 
" clip-path="url(#pf5271b951a)" style="fill: none; stroke: #cccccc; stroke-width: 0.8; stroke-linecap: round"/>
     </g>
     <g id="text_53">
      <!-- 0 -->
      <g style="fill: #262626" transform="translate(483.35893 688.582812) scale(0.1 -0.1)">
       <use xlink:href="#ArialMT-30"/>
      </g>
     </g>
    </g>
    <g id="xtick_19">
     <g id="line2d_48">
      <path d="M 555.185718 674.425 
L 555.185718 376.425 
" clip-path="url(#pf5271b951a)" style="fill: none; stroke: #cccccc; stroke-width: 0.8; stroke-linecap: round"/>
     </g>
     <g id="text_54">
      <!-- 200 -->
      <g style="fill: #262626" transform="translate(546.844312 688.582812) scale(0.1 -0.1)">
       <use xlink:href="#ArialMT-32"/>
       <use xlink:href="#ArialMT-30" transform="translate(55.615234 0)"/>
       <use xlink:href="#ArialMT-30" transform="translate(111.230469 0)"/>
      </g>
     </g>
    </g>
    <g id="xtick_20">
     <g id="line2d_49">
      <path d="M 624.232037 674.425 
L 624.232037 376.425 
" clip-path="url(#pf5271b951a)" style="fill: none; stroke: #cccccc; stroke-width: 0.8; stroke-linecap: round"/>
     </g>
     <g id="text_55">
      <!-- 400 -->
      <g style="fill: #262626" transform="translate(615.890631 688.582812) scale(0.1 -0.1)">
       <use xlink:href="#ArialMT-34"/>
       <use xlink:href="#ArialMT-30" transform="translate(55.615234 0)"/>
       <use xlink:href="#ArialMT-30" transform="translate(111.230469 0)"/>
      </g>
     </g>
    </g>
    <g id="xtick_21">
     <g id="line2d_50">
      <path d="M 693.278356 674.425 
L 693.278356 376.425 
" clip-path="url(#pf5271b951a)" style="fill: none; stroke: #cccccc; stroke-width: 0.8; stroke-linecap: round"/>
     </g>
     <g id="text_56">
      <!-- 600 -->
      <g style="fill: #262626" transform="translate(684.93695 688.582812) scale(0.1 -0.1)">
       <use xlink:href="#ArialMT-36"/>
       <use xlink:href="#ArialMT-30" transform="translate(55.615234 0)"/>
       <use xlink:href="#ArialMT-30" transform="translate(111.230469 0)"/>
      </g>
     </g>
    </g>
    <g id="xtick_22">
     <g id="line2d_51">
      <path d="M 762.324675 674.425 
L 762.324675 376.425 
" clip-path="url(#pf5271b951a)" style="fill: none; stroke: #cccccc; stroke-width: 0.8; stroke-linecap: round"/>
     </g>
     <g id="text_57">
      <!-- 800 -->
      <g style="fill: #262626" transform="translate(753.983269 688.582812) scale(0.1 -0.1)">
       <use xlink:href="#ArialMT-38"/>
       <use xlink:href="#ArialMT-30" transform="translate(55.615234 0)"/>
       <use xlink:href="#ArialMT-30" transform="translate(111.230469 0)"/>
      </g>
     </g>
    </g>
    <g id="xtick_23">
     <g id="line2d_52">
      <path d="M 831.370994 674.425 
L 831.370994 376.425 
" clip-path="url(#pf5271b951a)" style="fill: none; stroke: #cccccc; stroke-width: 0.8; stroke-linecap: round"/>
     </g>
     <g id="text_58">
      <!-- 1000 -->
      <g style="fill: #262626" transform="translate(820.249119 688.582812) scale(0.1 -0.1)">
       <use xlink:href="#ArialMT-31"/>
       <use xlink:href="#ArialMT-30" transform="translate(55.615234 0)"/>
       <use xlink:href="#ArialMT-30" transform="translate(111.230469 0)"/>
       <use xlink:href="#ArialMT-30" transform="translate(166.845703 0)"/>
      </g>
     </g>
    </g>
    <g id="text_59">
     <!-- $x$ -->
     <g style="fill: #262626" transform="translate(655.927812 701.728125) scale(0.1 -0.1)">
      <use xlink:href="#DejaVuSans-Oblique-78" transform="translate(0 0.3125)"/>
     </g>
    </g>
   </g>
   <g id="matplotlib.axis_8">
    <g id="ytick_24">
     <g id="line2d_53">
      <path d="M 469.240313 660.879545 
L 848.615312 660.879545 
" clip-path="url(#pf5271b951a)" style="fill: none; stroke: #cccccc; stroke-width: 0.8; stroke-linecap: round"/>
     </g>
     <g id="text_60">
      <!-- 0 -->
      <g style="fill: #262626" transform="translate(456.679375 664.458452) scale(0.1 -0.1)">
       <use xlink:href="#ArialMT-30"/>
      </g>
     </g>
    </g>
    <g id="ytick_25">
     <g id="line2d_54">
      <path d="M 469.240313 620.565693 
L 848.615312 620.565693 
" clip-path="url(#pf5271b951a)" style="fill: none; stroke: #cccccc; stroke-width: 0.8; stroke-linecap: round"/>
     </g>
     <g id="text_61">
      <!-- 25 -->
      <g style="fill: #262626" transform="translate(451.118438 624.144599) scale(0.1 -0.1)">
       <use xlink:href="#ArialMT-32"/>
       <use xlink:href="#ArialMT-35" transform="translate(55.615234 0)"/>
      </g>
     </g>
    </g>
    <g id="ytick_26">
     <g id="line2d_55">
      <path d="M 469.240313 580.25184 
L 848.615312 580.25184 
" clip-path="url(#pf5271b951a)" style="fill: none; stroke: #cccccc; stroke-width: 0.8; stroke-linecap: round"/>
     </g>
     <g id="text_62">
      <!-- 50 -->
      <g style="fill: #262626" transform="translate(451.118438 583.830746) scale(0.1 -0.1)">
       <use xlink:href="#ArialMT-35"/>
       <use xlink:href="#ArialMT-30" transform="translate(55.615234 0)"/>
      </g>
     </g>
    </g>
    <g id="ytick_27">
     <g id="line2d_56">
      <path d="M 469.240313 539.937987 
L 848.615312 539.937987 
" clip-path="url(#pf5271b951a)" style="fill: none; stroke: #cccccc; stroke-width: 0.8; stroke-linecap: round"/>
     </g>
     <g id="text_63">
      <!-- 75 -->
      <g style="fill: #262626" transform="translate(451.118438 543.516893) scale(0.1 -0.1)">
       <defs>
        <path id="ArialMT-37" d="M 303 3981 
L 303 4522 
L 3269 4522 
L 3269 4084 
Q 2831 3619 2401 2847 
Q 1972 2075 1738 1259 
Q 1569 684 1522 0 
L 944 0 
Q 953 541 1156 1306 
Q 1359 2072 1739 2783 
Q 2119 3494 2547 3981 
L 303 3981 
z
" transform="scale(0.015625)"/>
       </defs>
       <use xlink:href="#ArialMT-37"/>
       <use xlink:href="#ArialMT-35" transform="translate(55.615234 0)"/>
      </g>
     </g>
    </g>
    <g id="ytick_28">
     <g id="line2d_57">
      <path d="M 469.240313 499.624134 
L 848.615312 499.624134 
" clip-path="url(#pf5271b951a)" style="fill: none; stroke: #cccccc; stroke-width: 0.8; stroke-linecap: round"/>
     </g>
     <g id="text_64">
      <!-- 100 -->
      <g style="fill: #262626" transform="translate(445.5575 503.20304) scale(0.1 -0.1)">
       <use xlink:href="#ArialMT-31"/>
       <use xlink:href="#ArialMT-30" transform="translate(55.615234 0)"/>
       <use xlink:href="#ArialMT-30" transform="translate(111.230469 0)"/>
      </g>
     </g>
    </g>
    <g id="ytick_29">
     <g id="line2d_58">
      <path d="M 469.240313 459.310281 
L 848.615312 459.310281 
" clip-path="url(#pf5271b951a)" style="fill: none; stroke: #cccccc; stroke-width: 0.8; stroke-linecap: round"/>
     </g>
     <g id="text_65">
      <!-- 125 -->
      <g style="fill: #262626" transform="translate(445.5575 462.889188) scale(0.1 -0.1)">
       <use xlink:href="#ArialMT-31"/>
       <use xlink:href="#ArialMT-32" transform="translate(55.615234 0)"/>
       <use xlink:href="#ArialMT-35" transform="translate(111.230469 0)"/>
      </g>
     </g>
    </g>
    <g id="ytick_30">
     <g id="line2d_59">
      <path d="M 469.240313 418.996429 
L 848.615312 418.996429 
" clip-path="url(#pf5271b951a)" style="fill: none; stroke: #cccccc; stroke-width: 0.8; stroke-linecap: round"/>
     </g>
     <g id="text_66">
      <!-- 150 -->
      <g style="fill: #262626" transform="translate(445.5575 422.575335) scale(0.1 -0.1)">
       <use xlink:href="#ArialMT-31"/>
       <use xlink:href="#ArialMT-35" transform="translate(55.615234 0)"/>
       <use xlink:href="#ArialMT-30" transform="translate(111.230469 0)"/>
      </g>
     </g>
    </g>
    <g id="ytick_31">
     <g id="line2d_60">
      <path d="M 469.240313 378.682576 
L 848.615312 378.682576 
" clip-path="url(#pf5271b951a)" style="fill: none; stroke: #cccccc; stroke-width: 0.8; stroke-linecap: round"/>
     </g>
     <g id="text_67">
      <!-- 175 -->
      <g style="fill: #262626" transform="translate(445.5575 382.261482) scale(0.1 -0.1)">
       <use xlink:href="#ArialMT-31"/>
       <use xlink:href="#ArialMT-37" transform="translate(55.615234 0)"/>
       <use xlink:href="#ArialMT-35" transform="translate(111.230469 0)"/>
      </g>
     </g>
    </g>
    <g id="text_68">
     <!-- Nombre de nombres premiers -->
     <g style="fill: #262626" transform="translate(439.57 591.833594) rotate(-90) scale(0.1 -0.1)">
      <use xlink:href="#ArialMT-4e"/>
      <use xlink:href="#ArialMT-6f" transform="translate(72.216797 0)"/>
      <use xlink:href="#ArialMT-6d" transform="translate(127.832031 0)"/>
      <use xlink:href="#ArialMT-62" transform="translate(211.132812 0)"/>
      <use xlink:href="#ArialMT-72" transform="translate(266.748047 0)"/>
      <use xlink:href="#ArialMT-65" transform="translate(300.048828 0)"/>
      <use xlink:href="#ArialMT-20" transform="translate(355.664062 0)"/>
      <use xlink:href="#ArialMT-64" transform="translate(383.447266 0)"/>
      <use xlink:href="#ArialMT-65" transform="translate(439.0625 0)"/>
      <use xlink:href="#ArialMT-20" transform="translate(494.677734 0)"/>
      <use xlink:href="#ArialMT-6e" transform="translate(522.460938 0)"/>
      <use xlink:href="#ArialMT-6f" transform="translate(578.076172 0)"/>
      <use xlink:href="#ArialMT-6d" transform="translate(633.691406 0)"/>
      <use xlink:href="#ArialMT-62" transform="translate(716.992188 0)"/>
      <use xlink:href="#ArialMT-72" transform="translate(772.607422 0)"/>
      <use xlink:href="#ArialMT-65" transform="translate(805.908203 0)"/>
      <use xlink:href="#ArialMT-73" transform="translate(861.523438 0)"/>
      <use xlink:href="#ArialMT-20" transform="translate(911.523438 0)"/>
      <use xlink:href="#ArialMT-70" transform="translate(939.306641 0)"/>
      <use xlink:href="#ArialMT-72" transform="translate(994.921875 0)"/>
      <use xlink:href="#ArialMT-65" transform="translate(1028.222656 0)"/>
      <use xlink:href="#ArialMT-6d" transform="translate(1083.837891 0)"/>
      <use xlink:href="#ArialMT-69" transform="translate(1167.138672 0)"/>
      <use xlink:href="#ArialMT-65" transform="translate(1189.355469 0)"/>
      <use xlink:href="#ArialMT-72" transform="translate(1244.970703 0)"/>
      <use xlink:href="#ArialMT-73" transform="translate(1278.271484 0)"/>
     </g>
    </g>
   </g>
   <g id="line2d_61">
    <path d="M 486.484631 660.879545 
L 487.175094 657.654437 
L 487.520325 657.654437 
L 487.865557 656.041883 
L 488.210789 656.041883 
L 488.55602 654.429329 
L 489.591715 654.429329 
L 489.936947 652.816775 
L 490.282178 652.816775 
L 490.62741 651.204221 
L 491.663105 651.204221 
L 492.008336 649.591667 
L 492.353568 649.591667 
L 492.698799 647.979113 
L 493.734494 647.979113 
L 494.079726 646.366558 
L 495.805884 646.366558 
L 496.151115 644.754004 
L 496.496347 644.754004 
L 496.841579 643.14145 
L 498.567737 643.14145 
L 498.912968 641.528896 
L 499.948663 641.528896 
L 500.293894 639.916342 
L 500.639126 639.916342 
L 500.984358 638.303788 
L 502.020052 638.303788 
L 502.365284 636.691234 
L 504.091442 636.691234 
L 504.436674 635.07868 
L 506.162832 635.07868 
L 506.508063 633.466126 
L 506.853295 633.466126 
L 507.198526 631.853571 
L 508.924684 631.853571 
L 509.269916 630.241017 
L 510.305611 630.241017 
L 510.650842 628.628463 
L 510.996074 628.628463 
L 511.341306 627.015909 
L 513.067464 627.015909 
L 513.412695 625.403355 
L 514.44839 625.403355 
L 514.793621 623.790801 
L 516.519779 623.790801 
L 516.865011 622.178247 
L 519.281632 622.178247 
L 519.626864 620.565693 
L 520.662559 620.565693 
L 521.00779 618.953139 
L 521.353022 618.953139 
L 521.698253 617.340584 
L 522.733948 617.340584 
L 523.07918 615.72803 
L 523.424411 615.72803 
L 523.769643 614.115476 
L 524.805338 614.115476 
L 525.150569 612.502922 
L 529.63858 612.502922 
L 529.983812 610.890368 
L 531.019506 610.890368 
L 531.364738 609.277814 
L 533.090896 609.277814 
L 533.436128 607.66526 
L 533.781359 607.66526 
L 534.126591 606.052706 
L 537.233675 606.052706 
L 537.578907 604.440152 
L 537.924138 604.440152 
L 538.26937 602.827597 
L 539.995528 602.827597 
L 540.34076 601.215043 
L 542.066918 601.215043 
L 542.412149 599.602489 
L 543.447844 599.602489 
L 543.793075 597.989935 
L 545.519233 597.989935 
L 545.864465 596.377381 
L 547.590623 596.377381 
L 547.935855 594.764827 
L 548.281086 594.764827 
L 548.626318 593.152273 
L 551.733402 593.152273 
L 552.078634 591.539719 
L 552.423865 591.539719 
L 552.769097 589.927165 
L 553.804792 589.927165 
L 554.150023 588.31461 
L 554.495255 588.31461 
L 554.840487 586.702056 
L 558.638034 586.702056 
L 558.983266 585.089502 
L 562.780813 585.089502 
L 563.126045 583.476948 
L 564.16174 583.476948 
L 564.506971 581.864394 
L 564.852203 581.864394 
L 565.197434 580.25184 
L 566.233129 580.25184 
L 566.578361 578.639286 
L 568.304519 578.639286 
L 568.64975 577.026732 
L 568.994982 577.026732 
L 569.340214 575.414177 
L 572.447298 575.414177 
L 572.792529 573.801623 
L 574.518687 573.801623 
L 574.863919 572.189069 
L 576.590077 572.189069 
L 576.935309 570.576515 
L 578.661467 570.576515 
L 579.006698 568.963961 
L 579.35193 568.963961 
L 579.697161 567.351407 
L 581.423319 567.351407 
L 581.768551 565.738853 
L 582.804246 565.738853 
L 583.149477 564.126299 
L 583.494709 564.126299 
L 583.839941 562.513745 
L 586.947025 562.513745 
L 587.292256 560.90119 
L 591.780267 560.90119 
L 592.125499 559.288636 
L 593.161194 559.288636 
L 593.506425 557.676082 
L 593.851657 557.676082 
L 594.196888 556.063528 
L 595.232583 556.063528 
L 595.577815 554.450974 
L 600.065826 554.450974 
L 600.411057 552.83842 
L 602.137215 552.83842 
L 602.482447 551.225866 
L 605.589531 551.225866 
L 605.934763 549.613312 
L 606.279994 549.613312 
L 606.625226 548.000758 
L 607.660921 548.000758 
L 608.006152 546.388203 
L 609.73231 546.388203 
L 610.077542 544.775649 
L 612.494163 544.775649 
L 612.839395 543.163095 
L 614.565553 543.163095 
L 614.910784 541.550541 
L 616.636942 541.550541 
L 616.982174 539.937987 
L 618.017868 539.937987 
L 618.3631 538.325433 
L 620.089258 538.325433 
L 620.43449 536.712879 
L 622.851111 536.712879 
L 623.196342 535.100325 
L 624.232037 535.100325 
L 624.577269 533.487771 
L 626.99389 533.487771 
L 627.339122 531.875216 
L 630.446206 531.875216 
L 630.791437 530.262662 
L 631.136669 530.262662 
L 631.481901 528.650108 
L 634.588985 528.650108 
L 634.934217 527.037554 
L 635.279448 527.037554 
L 635.62468 525.425 
L 637.350838 525.425 
L 637.696069 523.812446 
L 638.731764 523.812446 
L 639.076996 522.199892 
L 640.803154 522.199892 
L 641.148385 520.587338 
L 643.565007 520.587338 
L 643.910238 518.974784 
L 644.945933 518.974784 
L 645.291164 517.362229 
L 645.636396 517.362229 
L 645.981628 515.749675 
L 647.017322 515.749675 
L 647.362554 514.137121 
L 651.160102 514.137121 
L 651.505333 512.524567 
L 653.921954 512.524567 
L 654.267186 510.912013 
L 655.302881 510.912013 
L 655.648112 509.299459 
L 658.064734 509.299459 
L 658.409965 507.686905 
L 659.44566 507.686905 
L 659.790891 506.074351 
L 661.517049 506.074351 
L 661.862281 504.461797 
L 665.659829 504.461797 
L 666.00506 502.849242 
L 666.350292 502.849242 
L 666.695523 501.236688 
L 672.564461 501.236688 
L 672.909692 499.624134 
L 674.63585 499.624134 
L 674.981082 498.01158 
L 678.088166 498.01158 
L 678.433398 496.399026 
L 680.159556 496.399026 
L 680.504787 494.786472 
L 682.230945 494.786472 
L 682.576177 493.173918 
L 682.921408 493.173918 
L 683.26664 491.561364 
L 684.992798 491.561364 
L 685.33803 489.94881 
L 688.445114 489.94881 
L 688.790345 488.336255 
L 690.516503 488.336255 
L 690.861735 486.723701 
L 692.587893 486.723701 
L 692.933125 485.111147 
L 693.278356 485.111147 
L 693.623588 483.498593 
L 695.349746 483.498593 
L 695.694977 481.886039 
L 697.421135 481.886039 
L 697.766367 480.273485 
L 698.802062 480.273485 
L 699.147293 478.660931 
L 699.492525 478.660931 
L 699.837757 477.048377 
L 703.635304 477.048377 
L 703.980536 475.435823 
L 707.08762 475.435823 
L 707.432852 473.823268 
L 707.778083 473.823268 
L 708.123315 472.210714 
L 709.15901 472.210714 
L 709.504241 470.59816 
L 711.230399 470.59816 
L 711.575631 468.985606 
L 713.301789 468.985606 
L 713.64702 467.373052 
L 713.992252 467.373052 
L 714.337484 465.760498 
L 718.135031 465.760498 
L 718.480263 464.147944 
L 719.515957 464.147944 
L 719.861189 462.53539 
L 721.587347 462.53539 
L 721.932579 460.922835 
L 724.3492 460.922835 
L 724.694431 459.310281 
L 727.801516 459.310281 
L 728.146747 457.697727 
L 730.563369 457.697727 
L 730.9086 456.085173 
L 734.015684 456.085173 
L 734.360916 454.472619 
L 736.777537 454.472619 
L 737.122769 452.860065 
L 738.848927 452.860065 
L 739.194158 451.247511 
L 740.920316 451.247511 
L 741.265548 449.634957 
L 742.301243 449.634957 
L 742.646474 448.022403 
L 745.063096 448.022403 
L 745.408327 446.409848 
L 747.134485 446.409848 
L 747.479717 444.797294 
L 748.515411 444.797294 
L 748.860643 443.18474 
L 751.277264 443.18474 
L 751.622496 441.572186 
L 752.658191 441.572186 
L 753.003422 439.959632 
L 757.491433 439.959632 
L 757.836665 438.347078 
L 760.943749 438.347078 
L 761.28898 436.734524 
L 765.086528 436.734524 
L 765.43176 435.12197 
L 765.776991 435.12197 
L 766.122223 433.509416 
L 769.229307 433.509416 
L 769.574539 431.896861 
L 769.91977 431.896861 
L 770.265002 430.284307 
L 771.300697 430.284307 
L 771.645928 428.671753 
L 771.99116 428.671753 
L 772.336392 427.059199 
L 775.443476 427.059199 
L 775.788707 425.446645 
L 780.276718 425.446645 
L 780.62195 423.834091 
L 781.657645 423.834091 
L 782.002876 422.221537 
L 782.348108 422.221537 
L 782.693339 420.608983 
L 783.729034 420.608983 
L 784.074266 418.996429 
L 788.562277 418.996429 
L 788.907508 417.383874 
L 789.943203 417.383874 
L 790.288434 415.77132 
L 790.633666 415.77132 
L 790.978898 414.158766 
L 792.014592 414.158766 
L 792.359824 412.546212 
L 798.919224 412.546212 
L 799.264456 410.933658 
L 800.300151 410.933658 
L 800.645382 409.321104 
L 803.062004 409.321104 
L 803.407235 407.70855 
L 806.514319 407.70855 
L 806.859551 406.095996 
L 809.276172 406.095996 
L 809.621404 404.483442 
L 810.657099 404.483442 
L 811.00233 402.870887 
L 812.728488 402.870887 
L 813.07372 401.258333 
L 814.799878 401.258333 
L 815.145109 399.645779 
L 819.63312 399.645779 
L 819.978352 398.033225 
L 821.014046 398.033225 
L 821.359278 396.420671 
L 823.085436 396.420671 
L 823.430668 394.808117 
L 825.156826 394.808117 
L 825.502057 393.195563 
L 827.918678 393.195563 
L 828.26391 391.583009 
L 829.990068 391.583009 
L 830.3353 389.970455 
L 831.370994 389.970455 
L 831.370994 389.970455 
" clip-path="url(#pf5271b951a)" style="fill: none; stroke: #004c9e; stroke-width: 1.5; stroke-linecap: round"/>
   </g>
   <g id="patch_21">
    <path d="M 469.240313 674.425 
L 469.240313 376.425 
" style="fill: none; stroke: #cccccc; stroke-width: 0.8; stroke-linejoin: miter; stroke-linecap: square"/>
   </g>
   <g id="patch_22">
    <path d="M 848.615312 674.425 
L 848.615312 376.425 
" style="fill: none; stroke: #cccccc; stroke-width: 0.8; stroke-linejoin: miter; stroke-linecap: square"/>
   </g>
   <g id="patch_23">
    <path d="M 469.240313 674.425 
L 848.615312 674.425 
" style="fill: none; stroke: #cccccc; stroke-width: 0.8; stroke-linejoin: miter; stroke-linecap: square"/>
   </g>
   <g id="patch_24">
    <path d="M 469.240313 376.425 
L 848.615312 376.425 
" style="fill: none; stroke: #cccccc; stroke-width: 0.8; stroke-linejoin: miter; stroke-linecap: square"/>
   </g>
   <g id="text_69">
    <!-- Nombre de nombres premiers ≤ 1000 -->
    <g style="fill: #262626" transform="translate(559.264062 370.425) scale(0.12 -0.12)">
     <use xlink:href="#ArialMT-4e"/>
     <use xlink:href="#ArialMT-6f" transform="translate(72.216797 0)"/>
     <use xlink:href="#ArialMT-6d" transform="translate(127.832031 0)"/>
     <use xlink:href="#ArialMT-62" transform="translate(211.132812 0)"/>
     <use xlink:href="#ArialMT-72" transform="translate(266.748047 0)"/>
     <use xlink:href="#ArialMT-65" transform="translate(300.048828 0)"/>
     <use xlink:href="#ArialMT-20" transform="translate(355.664062 0)"/>
     <use xlink:href="#ArialMT-64" transform="translate(383.447266 0)"/>
     <use xlink:href="#ArialMT-65" transform="translate(439.0625 0)"/>
     <use xlink:href="#ArialMT-20" transform="translate(494.677734 0)"/>
     <use xlink:href="#ArialMT-6e" transform="translate(522.460938 0)"/>
     <use xlink:href="#ArialMT-6f" transform="translate(578.076172 0)"/>
     <use xlink:href="#ArialMT-6d" transform="translate(633.691406 0)"/>
     <use xlink:href="#ArialMT-62" transform="translate(716.992188 0)"/>
     <use xlink:href="#ArialMT-72" transform="translate(772.607422 0)"/>
     <use xlink:href="#ArialMT-65" transform="translate(805.908203 0)"/>
     <use xlink:href="#ArialMT-73" transform="translate(861.523438 0)"/>
     <use xlink:href="#ArialMT-20" transform="translate(911.523438 0)"/>
     <use xlink:href="#ArialMT-70" transform="translate(939.306641 0)"/>
     <use xlink:href="#ArialMT-72" transform="translate(994.921875 0)"/>
     <use xlink:href="#ArialMT-65" transform="translate(1028.222656 0)"/>
     <use xlink:href="#ArialMT-6d" transform="translate(1083.837891 0)"/>
     <use xlink:href="#ArialMT-69" transform="translate(1167.138672 0)"/>
     <use xlink:href="#ArialMT-65" transform="translate(1189.355469 0)"/>
     <use xlink:href="#ArialMT-72" transform="translate(1244.970703 0)"/>
     <use xlink:href="#ArialMT-73" transform="translate(1278.271484 0)"/>
     <use xlink:href="#ArialMT-20" transform="translate(1328.271484 0)"/>
     <use xlink:href="#ArialMT-2264" transform="translate(1356.054688 0)"/>
     <use xlink:href="#ArialMT-20" transform="translate(1410.9375 0)"/>
     <use xlink:href="#ArialMT-31" transform="translate(1438.720703 0)"/>
     <use xlink:href="#ArialMT-30" transform="translate(1494.335938 0)"/>
     <use xlink:href="#ArialMT-30" transform="translate(1549.951172 0)"/>
     <use xlink:href="#ArialMT-30" transform="translate(1605.566406 0)"/>
    </g>
   </g>
   <g id="legend_4">
    <g id="patch_25">
     <path d="M 476.240313 398.6 
L 674.346563 398.6 
Q 676.346563 398.6 676.346563 396.6 
L 676.346563 383.425 
Q 676.346563 381.425 674.346563 381.425 
L 476.240313 381.425 
Q 474.240313 381.425 474.240313 383.425 
L 474.240313 396.6 
Q 474.240313 398.6 476.240313 398.6 
z
" style="fill: #ffffff; opacity: 0.8; stroke: #cccccc; stroke-linejoin: miter"/>
    </g>
    <g id="line2d_62">
     <path d="M 478.240313 389.1125 
L 488.240313 389.1125 
L 498.240313 389.1125 
" style="fill: none; stroke: #004c9e; stroke-width: 1.5; stroke-linecap: round"/>
    </g>
    <g id="text_70">
     <!-- Nombre de nombres premiers ≤ 1000 -->
     <g style="fill: #262626" transform="translate(506.240313 392.6125) scale(0.1 -0.1)">
      <use xlink:href="#ArialMT-4e"/>
      <use xlink:href="#ArialMT-6f" transform="translate(72.216797 0)"/>
      <use xlink:href="#ArialMT-6d" transform="translate(127.832031 0)"/>
      <use xlink:href="#ArialMT-62" transform="translate(211.132812 0)"/>
      <use xlink:href="#ArialMT-72" transform="translate(266.748047 0)"/>
      <use xlink:href="#ArialMT-65" transform="translate(300.048828 0)"/>
      <use xlink:href="#ArialMT-20" transform="translate(355.664062 0)"/>
      <use xlink:href="#ArialMT-64" transform="translate(383.447266 0)"/>
      <use xlink:href="#ArialMT-65" transform="translate(439.0625 0)"/>
      <use xlink:href="#ArialMT-20" transform="translate(494.677734 0)"/>
      <use xlink:href="#ArialMT-6e" transform="translate(522.460938 0)"/>
      <use xlink:href="#ArialMT-6f" transform="translate(578.076172 0)"/>
      <use xlink:href="#ArialMT-6d" transform="translate(633.691406 0)"/>
      <use xlink:href="#ArialMT-62" transform="translate(716.992188 0)"/>
      <use xlink:href="#ArialMT-72" transform="translate(772.607422 0)"/>
      <use xlink:href="#ArialMT-65" transform="translate(805.908203 0)"/>
      <use xlink:href="#ArialMT-73" transform="translate(861.523438 0)"/>
      <use xlink:href="#ArialMT-20" transform="translate(911.523438 0)"/>
      <use xlink:href="#ArialMT-70" transform="translate(939.306641 0)"/>
      <use xlink:href="#ArialMT-72" transform="translate(994.921875 0)"/>
      <use xlink:href="#ArialMT-65" transform="translate(1028.222656 0)"/>
      <use xlink:href="#ArialMT-6d" transform="translate(1083.837891 0)"/>
      <use xlink:href="#ArialMT-69" transform="translate(1167.138672 0)"/>
      <use xlink:href="#ArialMT-65" transform="translate(1189.355469 0)"/>
      <use xlink:href="#ArialMT-72" transform="translate(1244.970703 0)"/>
      <use xlink:href="#ArialMT-73" transform="translate(1278.271484 0)"/>
      <use xlink:href="#ArialMT-20" transform="translate(1328.271484 0)"/>
      <use xlink:href="#ArialMT-2264" transform="translate(1356.054688 0)"/>
      <use xlink:href="#ArialMT-20" transform="translate(1410.9375 0)"/>
      <use xlink:href="#ArialMT-31" transform="translate(1438.720703 0)"/>
      <use xlink:href="#ArialMT-30" transform="translate(1494.335938 0)"/>
      <use xlink:href="#ArialMT-30" transform="translate(1549.951172 0)"/>
      <use xlink:href="#ArialMT-30" transform="translate(1605.566406 0)"/>
     </g>
    </g>
   </g>
  </g>
 </g>
 <defs>
  <clipPath id="p0961515fd9">
   <rect x="41.245313" y="21.825" width="379.375" height="298"/>
  </clipPath>
  <clipPath id="pa1cf774791">
   <rect x="469.240313" y="21.825" width="379.375" height="298"/>
  </clipPath>
  <clipPath id="pe64588e836">
   <rect x="41.245313" y="376.425" width="379.375" height="298"/>
  </clipPath>
  <clipPath id="pf5271b951a">
   <rect x="469.240313" y="376.425" width="379.375" height="298"/>
  </clipPath>
 </defs>
</svg>
