<?xml version="1.0" encoding="utf-8" standalone="no"?>
<!DOCTYPE svg PUBLIC "-//W3C//DTD SVG 1.1//EN"
  "http://www.w3.org/Graphics/SVG/1.1/DTD/svg11.dtd">
<svg xmlns:xlink="http://www.w3.org/1999/xlink" width="830.404687pt" height="488.690312pt" viewBox="0 0 830.404687 488.690312" xmlns="http://www.w3.org/2000/svg" version="1.1">
 <metadata>
  <rdf:RDF xmlns:dc="http://purl.org/dc/elements/1.1/" xmlns:cc="http://creativecommons.org/ns#" xmlns:rdf="http://www.w3.org/1999/02/22-rdf-syntax-ns#">
   <cc:Work>
    <dc:type rdf:resource="http://purl.org/dc/dcmitype/StillImage"/>
    <dc:date>2025-06-15T18:54:25.289389</dc:date>
    <dc:format>image/svg+xml</dc:format>
    <dc:creator>
     <cc:Agent>
      <dc:title>Matplotlib v3.10.3, https://matplotlib.org/</dc:title>
     </cc:Agent>
    </dc:creator>
   </cc:Work>
  </rdf:RDF>
 </metadata>
 <defs>
  <style type="text/css">*{stroke-linejoin: round; stroke-linecap: butt}</style>
 </defs>
 <g id="figure_1">
  <g id="patch_1">
   <path d="M 0 488.690312 
L 830.404687 488.690312 
L 830.404687 0 
L 0 0 
z
" style="fill: #ffffff"/>
  </g>
  <g id="axes_1">
   <g id="patch_2">
    <path d="M 42.004688 465.345 
L 823.204688 465.345 
L 823.204688 21.825 
L 42.004688 21.825 
z
" style="fill: #ffffff"/>
   </g>
   <g id="matplotlib.axis_1">
    <g id="xtick_1">
     <g id="line2d_1">
      <path d="M 77.513778 465.345 
L 77.513778 21.825 
" clip-path="url(#pb0951167ba)" style="fill: none; stroke: #cccccc; stroke-width: 0.8; stroke-linecap: round"/>
     </g>
     <g id="text_1">
      <!-- 0 -->
      <g style="fill: #262626" transform="translate(74.73331 479.502812) scale(0.1 -0.1)">
       <defs>
        <path id="ArialMT-30" d="M 266 2259 
Q 266 3072 433 3567 
Q 600 4063 929 4331 
Q 1259 4600 1759 4600 
Q 2128 4600 2406 4451 
Q 2684 4303 2865 4023 
Q 3047 3744 3150 3342 
Q 3253 2941 3253 2259 
Q 3253 1453 3087 958 
Q 2922 463 2592 192 
Q 2263 -78 1759 -78 
Q 1097 -78 719 397 
Q 266 969 266 2259 
z
M 844 2259 
Q 844 1131 1108 757 
Q 1372 384 1759 384 
Q 2147 384 2411 759 
Q 2675 1134 2675 2259 
Q 2675 3391 2411 3762 
Q 2147 4134 1753 4134 
Q 1366 4134 1134 3806 
Q 844 3388 844 2259 
z
" transform="scale(0.015625)"/>
       </defs>
       <use xlink:href="#ArialMT-30"/>
      </g>
     </g>
    </g>
    <g id="xtick_2">
     <g id="line2d_2">
      <path d="M 219.550142 465.345 
L 219.550142 21.825 
" clip-path="url(#pb0951167ba)" style="fill: none; stroke: #cccccc; stroke-width: 0.8; stroke-linecap: round"/>
     </g>
     <g id="text_2">
      <!-- 100000 -->
      <g style="fill: #262626" transform="translate(202.86733 479.502812) scale(0.1 -0.1)">
       <defs>
        <path id="ArialMT-31" d="M 2384 0 
L 1822 0 
L 1822 3584 
Q 1619 3391 1289 3197 
Q 959 3003 697 2906 
L 697 3450 
Q 1169 3672 1522 3987 
Q 1875 4303 2022 4600 
L 2384 4600 
L 2384 0 
z
" transform="scale(0.015625)"/>
       </defs>
       <use xlink:href="#ArialMT-31"/>
       <use xlink:href="#ArialMT-30" transform="translate(55.615234 0)"/>
       <use xlink:href="#ArialMT-30" transform="translate(111.230469 0)"/>
       <use xlink:href="#ArialMT-30" transform="translate(166.845703 0)"/>
       <use xlink:href="#ArialMT-30" transform="translate(222.460938 0)"/>
       <use xlink:href="#ArialMT-30" transform="translate(278.076172 0)"/>
      </g>
     </g>
    </g>
    <g id="xtick_3">
     <g id="line2d_3">
      <path d="M 361.586506 465.345 
L 361.586506 21.825 
" clip-path="url(#pb0951167ba)" style="fill: none; stroke: #cccccc; stroke-width: 0.8; stroke-linecap: round"/>
     </g>
     <g id="text_3">
      <!-- 200000 -->
      <g style="fill: #262626" transform="translate(344.903693 479.502812) scale(0.1 -0.1)">
       <defs>
        <path id="ArialMT-32" d="M 3222 541 
L 3222 0 
L 194 0 
Q 188 203 259 391 
Q 375 700 629 1000 
Q 884 1300 1366 1694 
Q 2113 2306 2375 2664 
Q 2638 3022 2638 3341 
Q 2638 3675 2398 3904 
Q 2159 4134 1775 4134 
Q 1369 4134 1125 3890 
Q 881 3647 878 3216 
L 300 3275 
Q 359 3922 746 4261 
Q 1134 4600 1788 4600 
Q 2447 4600 2831 4234 
Q 3216 3869 3216 3328 
Q 3216 3053 3103 2787 
Q 2991 2522 2730 2228 
Q 2469 1934 1863 1422 
Q 1356 997 1212 845 
Q 1069 694 975 541 
L 3222 541 
z
" transform="scale(0.015625)"/>
       </defs>
       <use xlink:href="#ArialMT-32"/>
       <use xlink:href="#ArialMT-30" transform="translate(55.615234 0)"/>
       <use xlink:href="#ArialMT-30" transform="translate(111.230469 0)"/>
       <use xlink:href="#ArialMT-30" transform="translate(166.845703 0)"/>
       <use xlink:href="#ArialMT-30" transform="translate(222.460938 0)"/>
       <use xlink:href="#ArialMT-30" transform="translate(278.076172 0)"/>
      </g>
     </g>
    </g>
    <g id="xtick_4">
     <g id="line2d_4">
      <path d="M 503.622869 465.345 
L 503.622869 21.825 
" clip-path="url(#pb0951167ba)" style="fill: none; stroke: #cccccc; stroke-width: 0.8; stroke-linecap: round"/>
     </g>
     <g id="text_4">
      <!-- 300000 -->
      <g style="fill: #262626" transform="translate(486.940057 479.502812) scale(0.1 -0.1)">
       <defs>
        <path id="ArialMT-33" d="M 269 1209 
L 831 1284 
Q 928 806 1161 595 
Q 1394 384 1728 384 
Q 2125 384 2398 659 
Q 2672 934 2672 1341 
Q 2672 1728 2419 1979 
Q 2166 2231 1775 2231 
Q 1616 2231 1378 2169 
L 1441 2663 
Q 1497 2656 1531 2656 
Q 1891 2656 2178 2843 
Q 2466 3031 2466 3422 
Q 2466 3731 2256 3934 
Q 2047 4138 1716 4138 
Q 1388 4138 1169 3931 
Q 950 3725 888 3313 
L 325 3413 
Q 428 3978 793 4289 
Q 1159 4600 1703 4600 
Q 2078 4600 2393 4439 
Q 2709 4278 2876 4000 
Q 3044 3722 3044 3409 
Q 3044 3113 2884 2869 
Q 2725 2625 2413 2481 
Q 2819 2388 3044 2092 
Q 3269 1797 3269 1353 
Q 3269 753 2831 336 
Q 2394 -81 1725 -81 
Q 1122 -81 723 278 
Q 325 638 269 1209 
z
" transform="scale(0.015625)"/>
       </defs>
       <use xlink:href="#ArialMT-33"/>
       <use xlink:href="#ArialMT-30" transform="translate(55.615234 0)"/>
       <use xlink:href="#ArialMT-30" transform="translate(111.230469 0)"/>
       <use xlink:href="#ArialMT-30" transform="translate(166.845703 0)"/>
       <use xlink:href="#ArialMT-30" transform="translate(222.460938 0)"/>
       <use xlink:href="#ArialMT-30" transform="translate(278.076172 0)"/>
      </g>
     </g>
    </g>
    <g id="xtick_5">
     <g id="line2d_5">
      <path d="M 645.659233 465.345 
L 645.659233 21.825 
" clip-path="url(#pb0951167ba)" style="fill: none; stroke: #cccccc; stroke-width: 0.8; stroke-linecap: round"/>
     </g>
     <g id="text_5">
      <!-- 400000 -->
      <g style="fill: #262626" transform="translate(628.97642 479.502812) scale(0.1 -0.1)">
       <defs>
        <path id="ArialMT-34" d="M 2069 0 
L 2069 1097 
L 81 1097 
L 81 1613 
L 2172 4581 
L 2631 4581 
L 2631 1613 
L 3250 1613 
L 3250 1097 
L 2631 1097 
L 2631 0 
L 2069 0 
z
M 2069 1613 
L 2069 3678 
L 634 1613 
L 2069 1613 
z
" transform="scale(0.015625)"/>
       </defs>
       <use xlink:href="#ArialMT-34"/>
       <use xlink:href="#ArialMT-30" transform="translate(55.615234 0)"/>
       <use xlink:href="#ArialMT-30" transform="translate(111.230469 0)"/>
       <use xlink:href="#ArialMT-30" transform="translate(166.845703 0)"/>
       <use xlink:href="#ArialMT-30" transform="translate(222.460938 0)"/>
       <use xlink:href="#ArialMT-30" transform="translate(278.076172 0)"/>
      </g>
     </g>
    </g>
    <g id="xtick_6">
     <g id="line2d_6">
      <path d="M 787.695597 465.345 
L 787.695597 21.825 
" clip-path="url(#pb0951167ba)" style="fill: none; stroke: #cccccc; stroke-width: 0.8; stroke-linecap: round"/>
     </g>
     <g id="text_6">
      <!-- 500000 -->
      <g style="fill: #262626" transform="translate(771.012784 479.502812) scale(0.1 -0.1)">
       <defs>
        <path id="ArialMT-35" d="M 266 1200 
L 856 1250 
Q 922 819 1161 601 
Q 1400 384 1738 384 
Q 2144 384 2425 690 
Q 2706 997 2706 1503 
Q 2706 1984 2436 2262 
Q 2166 2541 1728 2541 
Q 1456 2541 1237 2417 
Q 1019 2294 894 2097 
L 366 2166 
L 809 4519 
L 3088 4519 
L 3088 3981 
L 1259 3981 
L 1013 2750 
Q 1425 3038 1878 3038 
Q 2478 3038 2890 2622 
Q 3303 2206 3303 1553 
Q 3303 931 2941 478 
Q 2500 -78 1738 -78 
Q 1113 -78 717 272 
Q 322 622 266 1200 
z
" transform="scale(0.015625)"/>
       </defs>
       <use xlink:href="#ArialMT-35"/>
       <use xlink:href="#ArialMT-30" transform="translate(55.615234 0)"/>
       <use xlink:href="#ArialMT-30" transform="translate(111.230469 0)"/>
       <use xlink:href="#ArialMT-30" transform="translate(166.845703 0)"/>
       <use xlink:href="#ArialMT-30" transform="translate(222.460938 0)"/>
       <use xlink:href="#ArialMT-30" transform="translate(278.076172 0)"/>
      </g>
     </g>
    </g>
   </g>
   <g id="matplotlib.axis_2">
    <g id="ytick_1">
     <g id="line2d_7">
      <path d="M 42.004688 445.185 
L 823.204688 445.185 
" clip-path="url(#pb0951167ba)" style="fill: none; stroke: #cccccc; stroke-width: 0.8; stroke-linecap: round"/>
     </g>
     <g id="text_7">
      <!-- 0 -->
      <g style="fill: #262626" transform="translate(29.44375 448.763906) scale(0.1 -0.1)">
       <use xlink:href="#ArialMT-30"/>
      </g>
     </g>
    </g>
    <g id="ytick_2">
     <g id="line2d_8">
      <path d="M 42.004688 348.276573 
L 823.204688 348.276573 
" clip-path="url(#pb0951167ba)" style="fill: none; stroke: #cccccc; stroke-width: 0.8; stroke-linecap: round"/>
     </g>
     <g id="text_8">
      <!-- 10000 -->
      <g style="fill: #262626" transform="translate(7.2 351.855479) scale(0.1 -0.1)">
       <use xlink:href="#ArialMT-31"/>
       <use xlink:href="#ArialMT-30" transform="translate(55.615234 0)"/>
       <use xlink:href="#ArialMT-30" transform="translate(111.230469 0)"/>
       <use xlink:href="#ArialMT-30" transform="translate(166.845703 0)"/>
       <use xlink:href="#ArialMT-30" transform="translate(222.460938 0)"/>
      </g>
     </g>
    </g>
    <g id="ytick_3">
     <g id="line2d_9">
      <path d="M 42.004688 251.368146 
L 823.204688 251.368146 
" clip-path="url(#pb0951167ba)" style="fill: none; stroke: #cccccc; stroke-width: 0.8; stroke-linecap: round"/>
     </g>
     <g id="text_9">
      <!-- 20000 -->
      <g style="fill: #262626" transform="translate(7.2 254.947052) scale(0.1 -0.1)">
       <use xlink:href="#ArialMT-32"/>
       <use xlink:href="#ArialMT-30" transform="translate(55.615234 0)"/>
       <use xlink:href="#ArialMT-30" transform="translate(111.230469 0)"/>
       <use xlink:href="#ArialMT-30" transform="translate(166.845703 0)"/>
       <use xlink:href="#ArialMT-30" transform="translate(222.460938 0)"/>
      </g>
     </g>
    </g>
    <g id="ytick_4">
     <g id="line2d_10">
      <path d="M 42.004688 154.459719 
L 823.204688 154.459719 
" clip-path="url(#pb0951167ba)" style="fill: none; stroke: #cccccc; stroke-width: 0.8; stroke-linecap: round"/>
     </g>
     <g id="text_10">
      <!-- 30000 -->
      <g style="fill: #262626" transform="translate(7.2 158.038625) scale(0.1 -0.1)">
       <use xlink:href="#ArialMT-33"/>
       <use xlink:href="#ArialMT-30" transform="translate(55.615234 0)"/>
       <use xlink:href="#ArialMT-30" transform="translate(111.230469 0)"/>
       <use xlink:href="#ArialMT-30" transform="translate(166.845703 0)"/>
       <use xlink:href="#ArialMT-30" transform="translate(222.460938 0)"/>
      </g>
     </g>
    </g>
    <g id="ytick_5">
     <g id="line2d_11">
      <path d="M 42.004688 57.551292 
L 823.204688 57.551292 
" clip-path="url(#pb0951167ba)" style="fill: none; stroke: #cccccc; stroke-width: 0.8; stroke-linecap: round"/>
     </g>
     <g id="text_11">
      <!-- 40000 -->
      <g style="fill: #262626" transform="translate(7.2 61.130198) scale(0.1 -0.1)">
       <use xlink:href="#ArialMT-34"/>
       <use xlink:href="#ArialMT-30" transform="translate(55.615234 0)"/>
       <use xlink:href="#ArialMT-30" transform="translate(111.230469 0)"/>
       <use xlink:href="#ArialMT-30" transform="translate(166.845703 0)"/>
       <use xlink:href="#ArialMT-30" transform="translate(222.460938 0)"/>
      </g>
     </g>
    </g>
   </g>
   <g id="line2d_12">
    <path d="M 77.513778 445.185 
L 77.868869 444.671385 
L 78.863124 443.624774 
L 81.206724 441.521861 
L 81.774869 441.017938 
L 82.91116 440.068235 
L 83.905415 439.273586 
L 84.828651 438.537082 
L 87.953451 436.114371 
L 88.237524 435.901173 
L 88.876688 435.426321 
L 89.444833 434.999924 
L 91.717415 433.274954 
L 92.356578 432.809794 
L 92.995742 432.344633 
L 95.978506 430.193266 
L 96.404615 429.883159 
L 97.540906 429.078819 
L 98.109051 428.729949 
L 100.168578 427.179414 
L 101.162833 426.530128 
L 101.730978 426.123112 
L 102.654215 425.493208 
L 103.932542 424.562887 
L 104.358651 424.349688 
L 120.053669 413.767288 
L 120.550797 413.44749 
L 121.18996 413.059856 
L 121.900142 412.546242 
L 127.226506 409.018775 
L 127.510578 408.834649 
L 127.936688 408.572996 
L 128.22076 408.408252 
L 128.646869 408.127218 
L 132.055742 405.917705 
L 132.623887 405.568835 
L 133.902215 404.754804 
L 134.754433 404.183045 
L 135.038506 404.037682 
L 139.299597 401.246719 
L 139.93876 400.888158 
L 140.435888 400.490833 
L 140.648942 400.413307 
L 141.856251 399.64773 
L 142.28236 399.376387 
L 142.921524 399.017825 
L 143.631706 398.572047 
L 145.975306 397.089348 
L 146.543451 396.740477 
L 149.526215 394.831381 
L 150.165378 394.47282 
L 151.301669 393.678171 
L 153.148142 392.544342 
L 154.497488 391.720621 
L 154.78156 391.575258 
L 155.136651 391.284533 
L 155.917851 390.858136 
L 156.201924 390.664319 
L 156.770069 390.325139 
L 157.054142 390.111941 
L 158.261451 389.326983 
L 161.03116 387.543868 
L 161.315233 387.398505 
L 163.445778 386.07086 
L 165.647342 384.743214 
L 166.996688 383.938874 
L 167.422797 383.735366 
L 168.488069 382.989172 
L 170.831669 381.59369 
L 171.257778 381.312656 
L 173.317306 380.072228 
L 174.098506 379.539232 
L 174.595633 379.306651 
L 177.223306 377.765807 
L 177.649415 377.494464 
L 180.348106 375.759803 
L 180.703197 375.565986 
L 182.265597 374.625974 
L 183.827997 373.666581 
L 184.183087 373.463073 
L 184.751233 373.133585 
L 185.24836 372.784714 
L 186.02956 372.348626 
L 187.662978 371.350469 
L 188.160106 371.001599 
L 188.515197 370.827164 
L 188.870288 370.623656 
L 191.071851 369.296011 
L 191.711015 368.908377 
L 193.415451 367.852075 
L 194.125633 367.386915 
L 194.62276 367.10588 
L 194.977851 366.863609 
L 198.386724 364.876987 
L 199.594033 364.169555 
L 199.949124 363.975738 
L 201.369487 363.132635 
L 201.866615 362.822528 
L 202.647815 362.318604 
L 203.357997 362.018188 
L 203.855124 361.69839 
L 205.275487 360.797142 
L 206.837887 359.85713 
L 208.826397 358.645775 
L 210.672869 357.511946 
L 211.383051 357.104931 
L 212.803415 356.203682 
L 213.37156 355.83543 
L 213.584615 355.709449 
L 217.987742 353.180139 
L 218.697924 352.734361 
L 221.680688 350.9997 
L 222.106797 350.718665 
L 225.728724 348.615752 
L 226.865015 347.956775 
L 227.362142 347.656359 
L 227.717233 347.443161 
L 231.268142 345.379011 
L 232.688506 344.535908 
L 236.381451 342.394231 
L 237.58876 341.696491 
L 237.872833 341.589892 
L 238.511997 341.124731 
L 238.938106 340.911533 
L 239.293197 340.727407 
L 240.642542 339.923067 
L 241.636797 339.399761 
L 243.341233 338.362841 
L 243.980397 337.994589 
L 245.542797 337.044886 
L 245.826869 336.899524 
L 246.608069 336.473127 
L 247.105197 336.192092 
L 249.235742 334.912901 
L 249.519815 334.719084 
L 249.874906 334.515576 
L 251.65036 333.430202 
L 252.005451 333.246076 
L 253.425815 332.402973 
L 254.064978 332.054102 
L 254.420069 331.831213 
L 255.201269 331.414507 
L 255.55636 331.181926 
L 256.834687 330.41635 
L 257.11876 330.280678 
L 257.402833 330.106243 
L 258.326069 329.61201 
L 260.669669 328.23591 
L 261.02476 327.993639 
L 265.925015 325.192986 
L 267.27436 324.388646 
L 268.126578 323.933176 
L 268.978797 323.468016 
L 269.688978 323.061 
L 271.96156 321.617065 
L 272.316651 321.432939 
L 273.310906 320.87087 
L 273.950069 320.502618 
L 275.015342 319.901786 
L 275.654506 319.523843 
L 278.708287 317.740728 
L 279.134397 317.459693 
L 287.372506 312.846852 
L 287.656578 312.691799 
L 288.153706 312.459218 
L 289.716106 311.480443 
L 291.065451 310.685794 
L 293.124978 309.435675 
L 294.190251 308.834843 
L 298.664397 306.276461 
L 299.019487 306.053571 
L 299.232542 305.976045 
L 299.871706 305.665938 
L 300.652906 305.22985 
L 302.002251 304.415819 
L 302.42836 304.222002 
L 302.996506 303.892513 
L 303.706687 303.514571 
L 304.061778 303.320754 
L 308.891015 300.558864 
L 309.814251 300.05494 
L 310.382397 299.735142 
L 310.808506 299.463798 
L 311.660724 298.988947 
L 312.299887 298.717603 
L 312.939051 298.300897 
L 313.507197 298.058626 
L 315.069597 297.108924 
L 315.921815 296.672836 
L 316.276906 296.469328 
L 317.626251 295.80066 
L 318.123378 295.500244 
L 318.478469 295.316118 
L 319.117633 294.928484 
L 322.384469 293.029079 
L 322.810578 292.748044 
L 331.616833 287.825096 
L 331.971924 287.602207 
L 332.540069 287.253337 
L 333.321269 286.730031 
L 333.605342 286.584668 
L 334.102469 286.303634 
L 334.883669 285.983836 
L 335.522833 285.664038 
L 336.01996 285.363622 
L 336.659124 284.975988 
L 337.724397 284.365465 
L 337.937451 284.229794 
L 338.505597 283.890614 
L 339.286797 283.454526 
L 341.701415 282.029972 
L 342.127524 281.748938 
L 351.572942 276.467429 
L 352.567197 275.90536 
L 352.851269 275.740615 
L 353.277378 275.469272 
L 354.626724 274.800604 
L 355.620978 274.238535 
L 355.905051 274.0641 
L 370.747851 265.836574 
L 371.315997 265.565231 
L 372.097197 265.129143 
L 373.872651 264.043768 
L 374.29876 263.83057 
L 375.86116 262.890558 
L 376.358287 262.57076 
L 377.210506 262.115291 
L 377.849669 261.737348 
L 385.022506 257.938537 
L 385.377597 257.754411 
L 385.732687 257.541213 
L 389.92276 255.128193 
L 390.348869 254.914994 
L 390.70396 254.730868 
L 391.840251 254.081582 
L 403.061124 247.840679 
L 403.700287 247.443355 
L 404.268433 247.104175 
L 405.54676 246.35798 
L 409.594797 244.274449 
L 409.878869 244.138777 
L 410.589051 243.731762 
L 411.157197 243.392582 
L 414.850142 241.493177 
L 415.418288 241.231525 
L 415.844397 240.960181 
L 416.270506 240.679146 
L 428.20156 234.060301 
L 428.485633 233.876175 
L 428.840724 233.730812 
L 430.261088 232.887709 
L 449.720069 222.392526 
L 450.359233 222.033965 
L 450.85636 221.752931 
L 457.603088 217.95412 
L 458.029197 217.624632 
L 458.597342 217.343597 
L 459.023451 217.198235 
L 486.223415 202.468154 
L 486.862578 202.187119 
L 487.643778 201.770413 
L 488.140906 201.469997 
L 488.567015 201.179272 
L 489.419233 200.743184 
L 489.774324 200.510603 
L 489.987378 200.423386 
L 491.123669 199.764409 
L 491.549778 199.541519 
L 492.25996 199.182958 
L 493.254215 198.659653 
L 494.035415 198.252637 
L 497.444287 196.517976 
L 498.225487 196.091579 
L 498.651597 195.86869 
L 507.10276 191.372139 
L 507.599888 191.129868 
L 509.233306 190.141402 
L 509.943487 189.744077 
L 511.150797 189.036646 
L 511.363851 188.891283 
L 511.860978 188.619939 
L 518.252615 185.247526 
L 518.607706 185.0634 
L 519.175851 184.733912 
L 520.738251 183.978026 
L 529.615524 179.016314 
L 529.899597 178.861261 
L 530.254687 178.657753 
L 531.035887 178.231356 
L 532.598287 177.291344 
L 537.711597 174.626363 
L 538.066687 174.422855 
L 538.776869 174.01584 
L 539.487051 173.56037 
L 539.771124 173.434389 
L 540.907415 172.775412 
L 541.47556 172.513759 
L 541.901669 172.29087 
L 554.826978 165.352226 
L 555.111051 165.1681 
L 555.892251 164.732012 
L 560.366397 162.40621 
L 560.792506 162.183321 
L 575.138178 154.479101 
L 575.84836 154.091467 
L 576.345487 153.800742 
L 577.126688 153.374345 
L 578.405015 152.62815 
L 578.902142 152.385879 
L 579.967415 151.833501 
L 585.22276 149.07161 
L 585.435815 148.95532 
L 589.767924 146.697354 
L 590.123015 146.561682 
L 602.267124 140.059127 
L 603.900542 139.274168 
L 604.397669 139.031897 
L 604.681742 138.925298 
L 609.581997 136.376606 
L 610.079124 136.0665 
L 610.860324 135.562576 
L 611.78356 135.058652 
L 615.050397 133.401518 
L 615.831597 132.975121 
L 616.896869 132.374288 
L 617.820106 131.880055 
L 620.37676 130.610555 
L 621.299997 130.126013 
L 622.081197 129.718998 
L 622.862397 129.28291 
L 623.927669 128.682077 
L 628.330797 126.385348 
L 628.756906 126.220603 
L 636.639924 121.791888 
L 637.492142 121.336419 
L 638.557415 120.784041 
L 641.114069 119.495159 
L 641.398142 119.359487 
L 642.463415 118.8168 
L 643.03156 118.47762 
L 643.244615 118.380712 
L 643.81276 118.031841 
L 644.878033 117.489154 
L 645.801269 116.975539 
L 646.227378 116.75265 
L 647.71876 116.054909 
L 648.357924 115.783566 
L 652.40596 113.700035 
L 653.684287 113.060439 
L 654.252433 112.711569 
L 656.027888 111.868465 
L 664.763124 107.216861 
L 665.331269 106.955208 
L 666.254506 106.441593 
L 666.751633 106.121796 
L 667.532833 105.71478 
L 668.314033 105.288383 
L 668.598106 105.14302 
L 670.018469 104.464661 
L 670.515597 104.183627 
L 677.830469 100.30729 
L 678.114542 100.181309 
L 678.398615 100.006874 
L 679.108797 99.561095 
L 682.943778 97.584163 
L 683.582942 97.31282 
L 684.151088 96.963949 
L 684.577197 96.760442 
L 684.861269 96.576316 
L 685.358397 96.363117 
L 685.784506 96.091773 
L 686.920797 95.578159 
L 687.204869 95.432796 
L 688.554215 94.618765 
L 688.838287 94.512166 
L 689.477451 94.153605 
L 690.116615 93.765971 
L 690.968833 93.310502 
L 692.24716 92.554616 
L 692.673269 92.331726 
L 693.454469 91.91502 
L 693.880578 91.68244 
L 694.732797 91.21728 
L 695.869087 90.567993 
L 696.579269 90.160978 
L 697.289451 89.792726 
L 697.71556 89.579527 
L 699.704069 88.600752 
L 700.05916 88.455389 
L 705.243488 85.751644 
L 705.52756 85.596591 
L 706.024688 85.315556 
L 712.487342 81.914071 
L 713.623633 81.33262 
L 714.90196 80.751169 
L 715.328069 80.537971 
L 717.884724 79.026199 
L 718.310833 78.80331 
L 720.583415 77.688863 
L 722.358869 76.84576 
L 722.998033 76.525962 
L 724.205342 75.915439 
L 724.844506 75.518114 
L 726.051815 74.917282 
L 726.406906 74.723465 
L 729.176615 73.337675 
L 729.886797 72.950041 
L 730.383924 72.669007 
L 732.230397 71.816212 
L 732.585487 71.612705 
L 734.360942 70.779292 
L 735.142142 70.362586 
L 736.278433 69.790826 
L 737.414724 69.14154 
L 740.894615 67.368116 
L 741.675815 66.951409 
L 742.314978 66.554085 
L 755.52436 59.470079 
L 756.802688 58.830483 
L 765.67996 54.101352 
L 766.532178 53.781554 
L 767.029306 53.548974 
L 767.810506 53.238867 
L 777.042869 48.315919 
L 777.39796 48.131793 
L 777.682033 48.005812 
L 777.966106 47.831377 
L 785.280978 43.96473 
L 786.204215 43.470498 
L 787.695597 42.646776 
L 787.695597 42.646776 
" clip-path="url(#pb0951167ba)" style="fill: none; stroke: #004c9e; stroke-width: 1.5; stroke-linecap: round"/>
   </g>
   <g id="line2d_13">
    <path d="M 77.513778 445.185 
L 77.797851 444.698596 
L 78.863124 443.534217 
L 81.064688 441.506269 
L 84.686615 438.496885 
L 89.94196 434.433505 
L 97.043778 429.233414 
L 106.205124 422.810794 
L 117.568033 415.126206 
L 131.203524 406.180838 
L 147.253633 395.923577 
L 165.860397 384.302472 
L 187.094833 371.308135 
L 211.02796 356.927931 
L 237.730797 341.146904 
L 267.345378 323.907337 
L 299.871706 305.233407 
L 335.451815 285.066005 
L 374.085706 263.4262 
L 415.915415 240.254294 
L 460.940942 215.569168 
L 509.233306 189.349323 
L 560.863524 161.572954 
L 615.831597 132.255725 
L 674.208542 101.374467 
L 736.065378 68.905936 
L 787.695597 41.985 
L 787.695597 41.985 
" clip-path="url(#pb0951167ba)" style="fill: none; stroke-dasharray: 1.5,2.475; stroke-dashoffset: 0; stroke: #11976a; stroke-width: 1.5"/>
   </g>
   <g id="line2d_14">
    <path d="M 77.513778 445.185 
L 77.868869 444.746219 
L 79.218215 443.544819 
L 82.058942 441.342718 
L 86.746142 438.010324 
L 93.563888 433.451184 
L 102.725233 427.604258 
L 114.443233 420.399875 
L 128.859924 411.806292 
L 146.117342 401.785872 
L 166.357524 390.297505 
L 189.651488 377.337061 
L 216.141269 362.857863 
L 245.897887 346.850622 
L 279.063378 329.266199 
L 315.70876 310.092439 
L 355.905051 289.315523 
L 399.723269 266.920341 
L 447.234433 242.890752 
L 498.50956 217.209785 
L 553.548651 189.894888 
L 612.493742 160.892179 
L 675.415851 130.183039 
L 742.314978 97.782722 
L 787.695597 75.935863 
L 787.695597 75.935863 
" clip-path="url(#pb0951167ba)" style="fill: none; stroke-dasharray: 5.55,2.4; stroke-dashoffset: 0; stroke: #ff944d; stroke-width: 1.5"/>
   </g>
   <g id="patch_3">
    <path d="M 42.004688 465.345 
L 42.004688 21.825 
" style="fill: none; stroke: #cccccc; stroke-width: 0.8; stroke-linejoin: miter; stroke-linecap: square"/>
   </g>
   <g id="patch_4">
    <path d="M 823.204688 465.345 
L 823.204688 21.825 
" style="fill: none; stroke: #cccccc; stroke-width: 0.8; stroke-linejoin: miter; stroke-linecap: square"/>
   </g>
   <g id="patch_5">
    <path d="M 42.004688 465.345 
L 823.204687 465.345 
" style="fill: none; stroke: #cccccc; stroke-width: 0.8; stroke-linejoin: miter; stroke-linecap: square"/>
   </g>
   <g id="patch_6">
    <path d="M 42.004688 21.825 
L 823.204687 21.825 
" style="fill: none; stroke: #cccccc; stroke-width: 0.8; stroke-linejoin: miter; stroke-linecap: square"/>
   </g>
   <g id="text_12">
    <!-- Nombre de nombres premiers ≤ 500 000 -->
    <g style="fill: #262626" transform="translate(324.600937 15.825) scale(0.12 -0.12)">
     <defs>
      <path id="ArialMT-4e" d="M 488 0 
L 488 4581 
L 1109 4581 
L 3516 984 
L 3516 4581 
L 4097 4581 
L 4097 0 
L 3475 0 
L 1069 3600 
L 1069 0 
L 488 0 
z
" transform="scale(0.015625)"/>
      <path id="ArialMT-6f" d="M 213 1659 
Q 213 2581 725 3025 
Q 1153 3394 1769 3394 
Q 2453 3394 2887 2945 
Q 3322 2497 3322 1706 
Q 3322 1066 3130 698 
Q 2938 331 2570 128 
Q 2203 -75 1769 -75 
Q 1072 -75 642 372 
Q 213 819 213 1659 
z
M 791 1659 
Q 791 1022 1069 705 
Q 1347 388 1769 388 
Q 2188 388 2466 706 
Q 2744 1025 2744 1678 
Q 2744 2294 2464 2611 
Q 2184 2928 1769 2928 
Q 1347 2928 1069 2612 
Q 791 2297 791 1659 
z
" transform="scale(0.015625)"/>
      <path id="ArialMT-6d" d="M 422 0 
L 422 3319 
L 925 3319 
L 925 2853 
Q 1081 3097 1340 3245 
Q 1600 3394 1931 3394 
Q 2300 3394 2536 3241 
Q 2772 3088 2869 2813 
Q 3263 3394 3894 3394 
Q 4388 3394 4653 3120 
Q 4919 2847 4919 2278 
L 4919 0 
L 4359 0 
L 4359 2091 
Q 4359 2428 4304 2576 
Q 4250 2725 4106 2815 
Q 3963 2906 3769 2906 
Q 3419 2906 3187 2673 
Q 2956 2441 2956 1928 
L 2956 0 
L 2394 0 
L 2394 2156 
Q 2394 2531 2256 2718 
Q 2119 2906 1806 2906 
Q 1569 2906 1367 2781 
Q 1166 2656 1075 2415 
Q 984 2175 984 1722 
L 984 0 
L 422 0 
z
" transform="scale(0.015625)"/>
      <path id="ArialMT-62" d="M 941 0 
L 419 0 
L 419 4581 
L 981 4581 
L 981 2947 
Q 1338 3394 1891 3394 
Q 2197 3394 2470 3270 
Q 2744 3147 2920 2923 
Q 3097 2700 3197 2384 
Q 3297 2069 3297 1709 
Q 3297 856 2875 390 
Q 2453 -75 1863 -75 
Q 1275 -75 941 416 
L 941 0 
z
M 934 1684 
Q 934 1088 1097 822 
Q 1363 388 1816 388 
Q 2184 388 2453 708 
Q 2722 1028 2722 1663 
Q 2722 2313 2464 2622 
Q 2206 2931 1841 2931 
Q 1472 2931 1203 2611 
Q 934 2291 934 1684 
z
" transform="scale(0.015625)"/>
      <path id="ArialMT-72" d="M 416 0 
L 416 3319 
L 922 3319 
L 922 2816 
Q 1116 3169 1280 3281 
Q 1444 3394 1641 3394 
Q 1925 3394 2219 3213 
L 2025 2691 
Q 1819 2813 1613 2813 
Q 1428 2813 1281 2702 
Q 1134 2591 1072 2394 
Q 978 2094 978 1738 
L 978 0 
L 416 0 
z
" transform="scale(0.015625)"/>
      <path id="ArialMT-65" d="M 2694 1069 
L 3275 997 
Q 3138 488 2766 206 
Q 2394 -75 1816 -75 
Q 1088 -75 661 373 
Q 234 822 234 1631 
Q 234 2469 665 2931 
Q 1097 3394 1784 3394 
Q 2450 3394 2872 2941 
Q 3294 2488 3294 1666 
Q 3294 1616 3291 1516 
L 816 1516 
Q 847 969 1125 678 
Q 1403 388 1819 388 
Q 2128 388 2347 550 
Q 2566 713 2694 1069 
z
M 847 1978 
L 2700 1978 
Q 2663 2397 2488 2606 
Q 2219 2931 1791 2931 
Q 1403 2931 1139 2672 
Q 875 2413 847 1978 
z
" transform="scale(0.015625)"/>
      <path id="ArialMT-20" transform="scale(0.015625)"/>
      <path id="ArialMT-64" d="M 2575 0 
L 2575 419 
Q 2259 -75 1647 -75 
Q 1250 -75 917 144 
Q 584 363 401 755 
Q 219 1147 219 1656 
Q 219 2153 384 2558 
Q 550 2963 881 3178 
Q 1213 3394 1622 3394 
Q 1922 3394 2156 3267 
Q 2391 3141 2538 2938 
L 2538 4581 
L 3097 4581 
L 3097 0 
L 2575 0 
z
M 797 1656 
Q 797 1019 1065 703 
Q 1334 388 1700 388 
Q 2069 388 2326 689 
Q 2584 991 2584 1609 
Q 2584 2291 2321 2609 
Q 2059 2928 1675 2928 
Q 1300 2928 1048 2622 
Q 797 2316 797 1656 
z
" transform="scale(0.015625)"/>
      <path id="ArialMT-6e" d="M 422 0 
L 422 3319 
L 928 3319 
L 928 2847 
Q 1294 3394 1984 3394 
Q 2284 3394 2536 3286 
Q 2788 3178 2913 3003 
Q 3038 2828 3088 2588 
Q 3119 2431 3119 2041 
L 3119 0 
L 2556 0 
L 2556 2019 
Q 2556 2363 2490 2533 
Q 2425 2703 2258 2804 
Q 2091 2906 1866 2906 
Q 1506 2906 1245 2678 
Q 984 2450 984 1813 
L 984 0 
L 422 0 
z
" transform="scale(0.015625)"/>
      <path id="ArialMT-73" d="M 197 991 
L 753 1078 
Q 800 744 1014 566 
Q 1228 388 1613 388 
Q 2000 388 2187 545 
Q 2375 703 2375 916 
Q 2375 1106 2209 1216 
Q 2094 1291 1634 1406 
Q 1016 1563 777 1677 
Q 538 1791 414 1992 
Q 291 2194 291 2438 
Q 291 2659 392 2848 
Q 494 3038 669 3163 
Q 800 3259 1026 3326 
Q 1253 3394 1513 3394 
Q 1903 3394 2198 3281 
Q 2494 3169 2634 2976 
Q 2775 2784 2828 2463 
L 2278 2388 
Q 2241 2644 2061 2787 
Q 1881 2931 1553 2931 
Q 1166 2931 1000 2803 
Q 834 2675 834 2503 
Q 834 2394 903 2306 
Q 972 2216 1119 2156 
Q 1203 2125 1616 2013 
Q 2213 1853 2448 1751 
Q 2684 1650 2818 1456 
Q 2953 1263 2953 975 
Q 2953 694 2789 445 
Q 2625 197 2315 61 
Q 2006 -75 1616 -75 
Q 969 -75 630 194 
Q 291 463 197 991 
z
" transform="scale(0.015625)"/>
      <path id="ArialMT-70" d="M 422 -1272 
L 422 3319 
L 934 3319 
L 934 2888 
Q 1116 3141 1344 3267 
Q 1572 3394 1897 3394 
Q 2322 3394 2647 3175 
Q 2972 2956 3137 2557 
Q 3303 2159 3303 1684 
Q 3303 1175 3120 767 
Q 2938 359 2589 142 
Q 2241 -75 1856 -75 
Q 1575 -75 1351 44 
Q 1128 163 984 344 
L 984 -1272 
L 422 -1272 
z
M 931 1641 
Q 931 1000 1190 694 
Q 1450 388 1819 388 
Q 2194 388 2461 705 
Q 2728 1022 2728 1688 
Q 2728 2322 2467 2637 
Q 2206 2953 1844 2953 
Q 1484 2953 1207 2617 
Q 931 2281 931 1641 
z
" transform="scale(0.015625)"/>
      <path id="ArialMT-69" d="M 425 3934 
L 425 4581 
L 988 4581 
L 988 3934 
L 425 3934 
z
M 425 0 
L 425 3319 
L 988 3319 
L 988 0 
L 425 0 
z
" transform="scale(0.015625)"/>
      <path id="ArialMT-2264" d="M 241 2381 
L 241 2906 
L 3275 4188 
L 3275 3625 
L 869 2641 
L 3275 1644 
L 3275 1084 
L 241 2381 
z
M 3269 331 
L 244 331 
L 244 853 
L 3269 853 
L 3269 331 
z
" transform="scale(0.015625)"/>
     </defs>
     <use xlink:href="#ArialMT-4e"/>
     <use xlink:href="#ArialMT-6f" transform="translate(72.216797 0)"/>
     <use xlink:href="#ArialMT-6d" transform="translate(127.832031 0)"/>
     <use xlink:href="#ArialMT-62" transform="translate(211.132812 0)"/>
     <use xlink:href="#ArialMT-72" transform="translate(266.748047 0)"/>
     <use xlink:href="#ArialMT-65" transform="translate(300.048828 0)"/>
     <use xlink:href="#ArialMT-20" transform="translate(355.664062 0)"/>
     <use xlink:href="#ArialMT-64" transform="translate(383.447266 0)"/>
     <use xlink:href="#ArialMT-65" transform="translate(439.0625 0)"/>
     <use xlink:href="#ArialMT-20" transform="translate(494.677734 0)"/>
     <use xlink:href="#ArialMT-6e" transform="translate(522.460938 0)"/>
     <use xlink:href="#ArialMT-6f" transform="translate(578.076172 0)"/>
     <use xlink:href="#ArialMT-6d" transform="translate(633.691406 0)"/>
     <use xlink:href="#ArialMT-62" transform="translate(716.992188 0)"/>
     <use xlink:href="#ArialMT-72" transform="translate(772.607422 0)"/>
     <use xlink:href="#ArialMT-65" transform="translate(805.908203 0)"/>
     <use xlink:href="#ArialMT-73" transform="translate(861.523438 0)"/>
     <use xlink:href="#ArialMT-20" transform="translate(911.523438 0)"/>
     <use xlink:href="#ArialMT-70" transform="translate(939.306641 0)"/>
     <use xlink:href="#ArialMT-72" transform="translate(994.921875 0)"/>
     <use xlink:href="#ArialMT-65" transform="translate(1028.222656 0)"/>
     <use xlink:href="#ArialMT-6d" transform="translate(1083.837891 0)"/>
     <use xlink:href="#ArialMT-69" transform="translate(1167.138672 0)"/>
     <use xlink:href="#ArialMT-65" transform="translate(1189.355469 0)"/>
     <use xlink:href="#ArialMT-72" transform="translate(1244.970703 0)"/>
     <use xlink:href="#ArialMT-73" transform="translate(1278.271484 0)"/>
     <use xlink:href="#ArialMT-20" transform="translate(1328.271484 0)"/>
     <use xlink:href="#ArialMT-2264" transform="translate(1356.054688 0)"/>
     <use xlink:href="#ArialMT-20" transform="translate(1410.9375 0)"/>
     <use xlink:href="#ArialMT-35" transform="translate(1438.720703 0)"/>
     <use xlink:href="#ArialMT-30" transform="translate(1494.335938 0)"/>
     <use xlink:href="#ArialMT-30" transform="translate(1549.951172 0)"/>
     <use xlink:href="#ArialMT-20" transform="translate(1605.566406 0)"/>
     <use xlink:href="#ArialMT-30" transform="translate(1633.349609 0)"/>
     <use xlink:href="#ArialMT-30" transform="translate(1688.964844 0)"/>
     <use xlink:href="#ArialMT-30" transform="translate(1744.580078 0)"/>
    </g>
   </g>
   <g id="legend_1">
    <g id="patch_7">
     <path d="M 49.004688 77.015625 
L 213.821875 77.015625 
Q 215.821875 77.015625 215.821875 75.015625 
L 215.821875 28.825 
Q 215.821875 26.825 213.821875 26.825 
L 49.004688 26.825 
Q 47.004688 26.825 47.004688 28.825 
L 47.004688 75.015625 
Q 47.004688 77.015625 49.004688 77.015625 
z
" style="fill: #ffffff; opacity: 0.8; stroke: #cccccc; stroke-linejoin: miter"/>
    </g>
    <g id="line2d_15">
     <path d="M 51.004688 34.482812 
L 61.004688 34.482812 
L 71.004688 34.482812 
" style="fill: none; stroke: #004c9e; stroke-width: 1.5; stroke-linecap: round"/>
    </g>
    <g id="text_13">
     <!-- Nombre de nombres premiers -->
     <g style="fill: #262626" transform="translate(79.004688 37.982812) scale(0.1 -0.1)">
      <use xlink:href="#ArialMT-4e"/>
      <use xlink:href="#ArialMT-6f" transform="translate(72.216797 0)"/>
      <use xlink:href="#ArialMT-6d" transform="translate(127.832031 0)"/>
      <use xlink:href="#ArialMT-62" transform="translate(211.132812 0)"/>
      <use xlink:href="#ArialMT-72" transform="translate(266.748047 0)"/>
      <use xlink:href="#ArialMT-65" transform="translate(300.048828 0)"/>
      <use xlink:href="#ArialMT-20" transform="translate(355.664062 0)"/>
      <use xlink:href="#ArialMT-64" transform="translate(383.447266 0)"/>
      <use xlink:href="#ArialMT-65" transform="translate(439.0625 0)"/>
      <use xlink:href="#ArialMT-20" transform="translate(494.677734 0)"/>
      <use xlink:href="#ArialMT-6e" transform="translate(522.460938 0)"/>
      <use xlink:href="#ArialMT-6f" transform="translate(578.076172 0)"/>
      <use xlink:href="#ArialMT-6d" transform="translate(633.691406 0)"/>
      <use xlink:href="#ArialMT-62" transform="translate(716.992188 0)"/>
      <use xlink:href="#ArialMT-72" transform="translate(772.607422 0)"/>
      <use xlink:href="#ArialMT-65" transform="translate(805.908203 0)"/>
      <use xlink:href="#ArialMT-73" transform="translate(861.523438 0)"/>
      <use xlink:href="#ArialMT-20" transform="translate(911.523438 0)"/>
      <use xlink:href="#ArialMT-70" transform="translate(939.306641 0)"/>
      <use xlink:href="#ArialMT-72" transform="translate(994.921875 0)"/>
      <use xlink:href="#ArialMT-65" transform="translate(1028.222656 0)"/>
      <use xlink:href="#ArialMT-6d" transform="translate(1083.837891 0)"/>
      <use xlink:href="#ArialMT-69" transform="translate(1167.138672 0)"/>
      <use xlink:href="#ArialMT-65" transform="translate(1189.355469 0)"/>
      <use xlink:href="#ArialMT-72" transform="translate(1244.970703 0)"/>
      <use xlink:href="#ArialMT-73" transform="translate(1278.271484 0)"/>
     </g>
    </g>
    <g id="line2d_16">
     <path d="M 51.004688 48.628125 
L 61.004688 48.628125 
L 71.004688 48.628125 
" style="fill: none; stroke-dasharray: 1.5,2.475; stroke-dashoffset: 0; stroke: #11976a; stroke-width: 1.5"/>
    </g>
    <g id="text_14">
     <!-- $Li(x)$ -->
     <g style="fill: #262626" transform="translate(79.004688 52.128125) scale(0.1 -0.1)">
      <defs>
       <path id="DejaVuSans-Oblique-4c" d="M 1075 4666 
L 1709 4666 
L 909 525 
L 3181 525 
L 3078 0 
L 172 0 
L 1075 4666 
z
" transform="scale(0.015625)"/>
       <path id="DejaVuSans-Oblique-69" d="M 1172 4863 
L 1747 4863 
L 1606 4134 
L 1031 4134 
L 1172 4863 
z
M 909 3500 
L 1484 3500 
L 800 0 
L 225 0 
L 909 3500 
z
" transform="scale(0.015625)"/>
       <path id="DejaVuSans-28" d="M 1984 4856 
Q 1566 4138 1362 3434 
Q 1159 2731 1159 2009 
Q 1159 1288 1364 580 
Q 1569 -128 1984 -844 
L 1484 -844 
Q 1016 -109 783 600 
Q 550 1309 550 2009 
Q 550 2706 781 3412 
Q 1013 4119 1484 4856 
L 1984 4856 
z
" transform="scale(0.015625)"/>
       <path id="DejaVuSans-Oblique-78" d="M 3841 3500 
L 2234 1784 
L 3219 0 
L 2559 0 
L 1819 1388 
L 531 0 
L -166 0 
L 1556 1844 
L 641 3500 
L 1300 3500 
L 1972 2234 
L 3144 3500 
L 3841 3500 
z
" transform="scale(0.015625)"/>
       <path id="DejaVuSans-29" d="M 513 4856 
L 1013 4856 
Q 1481 4119 1714 3412 
Q 1947 2706 1947 2009 
Q 1947 1309 1714 600 
Q 1481 -109 1013 -844 
L 513 -844 
Q 928 -128 1133 580 
Q 1338 1288 1338 2009 
Q 1338 2731 1133 3434 
Q 928 4138 513 4856 
z
" transform="scale(0.015625)"/>
      </defs>
      <use xlink:href="#DejaVuSans-Oblique-4c" transform="translate(0 0.015625)"/>
      <use xlink:href="#DejaVuSans-Oblique-69" transform="translate(55.712891 0.015625)"/>
      <use xlink:href="#DejaVuSans-28" transform="translate(83.496094 0.015625)"/>
      <use xlink:href="#DejaVuSans-Oblique-78" transform="translate(122.509766 0.015625)"/>
      <use xlink:href="#DejaVuSans-29" transform="translate(181.689453 0.015625)"/>
     </g>
    </g>
    <g id="line2d_17">
     <path d="M 51.004688 63.915625 
L 61.004688 63.915625 
L 71.004688 63.915625 
" style="fill: none; stroke-dasharray: 5.55,2.4; stroke-dashoffset: 0; stroke: #ff944d; stroke-width: 1.5"/>
    </g>
    <g id="text_15">
     <!-- $\frac{x}{\log(x)}$ -->
     <g style="fill: #262626" transform="translate(79.004688 67.415625) scale(0.1 -0.1)">
      <defs>
       <path id="DejaVuSans-6c" d="M 603 4863 
L 1178 4863 
L 1178 0 
L 603 0 
L 603 4863 
z
" transform="scale(0.015625)"/>
       <path id="DejaVuSans-6f" d="M 1959 3097 
Q 1497 3097 1228 2736 
Q 959 2375 959 1747 
Q 959 1119 1226 758 
Q 1494 397 1959 397 
Q 2419 397 2687 759 
Q 2956 1122 2956 1747 
Q 2956 2369 2687 2733 
Q 2419 3097 1959 3097 
z
M 1959 3584 
Q 2709 3584 3137 3096 
Q 3566 2609 3566 1747 
Q 3566 888 3137 398 
Q 2709 -91 1959 -91 
Q 1206 -91 779 398 
Q 353 888 353 1747 
Q 353 2609 779 3096 
Q 1206 3584 1959 3584 
z
" transform="scale(0.015625)"/>
       <path id="DejaVuSans-67" d="M 2906 1791 
Q 2906 2416 2648 2759 
Q 2391 3103 1925 3103 
Q 1463 3103 1205 2759 
Q 947 2416 947 1791 
Q 947 1169 1205 825 
Q 1463 481 1925 481 
Q 2391 481 2648 825 
Q 2906 1169 2906 1791 
z
M 3481 434 
Q 3481 -459 3084 -895 
Q 2688 -1331 1869 -1331 
Q 1566 -1331 1297 -1286 
Q 1028 -1241 775 -1147 
L 775 -588 
Q 1028 -725 1275 -790 
Q 1522 -856 1778 -856 
Q 2344 -856 2625 -561 
Q 2906 -266 2906 331 
L 2906 616 
Q 2728 306 2450 153 
Q 2172 0 1784 0 
Q 1141 0 747 490 
Q 353 981 353 1791 
Q 353 2603 747 3093 
Q 1141 3584 1784 3584 
Q 2172 3584 2450 3431 
Q 2728 3278 2906 2969 
L 2906 3500 
L 3481 3500 
L 3481 434 
z
" transform="scale(0.015625)"/>
      </defs>
      <use xlink:href="#DejaVuSans-Oblique-78" transform="translate(81 44.71875) scale(0.7)"/>
      <use xlink:href="#DejaVuSans-6c" transform="translate(0 -39.720313) scale(0.7)"/>
      <use xlink:href="#DejaVuSans-6f" transform="translate(19.448242 -39.720313) scale(0.7)"/>
      <use xlink:href="#DejaVuSans-67" transform="translate(62.275391 -39.720313) scale(0.7)"/>
      <use xlink:href="#DejaVuSans-28" transform="translate(106.708984 -39.720313) scale(0.7)"/>
      <use xlink:href="#DejaVuSans-Oblique-78" transform="translate(134.018555 -39.720313) scale(0.7)"/>
      <use xlink:href="#DejaVuSans-29" transform="translate(175.444336 -39.720313) scale(0.7)"/>
      <path d="M 0 19.71875 
L 0 25.96875 
L 202.753906 25.96875 
L 202.753906 19.71875 
L 0 19.71875 
z
"/>
     </g>
    </g>
   </g>
  </g>
 </g>
 <defs>
  <clipPath id="pb0951167ba">
   <rect x="42.004688" y="21.825" width="781.2" height="443.52"/>
  </clipPath>
 </defs>
</svg>
